<?xml version="1.0" encoding="utf-8"?>
<!-- Generator: Adobe Illustrator 18.1.1, SVG Export Plug-In . SVG Version: 6.00 Build 0)  -->
<svg version="1.1" id="Capa_1" xmlns="http://www.w3.org/2000/svg" xmlns:xlink="http://www.w3.org/1999/xlink" x="0px" y="0px"
	 viewBox="0 0 64 64" style="enable-background:new 0 0 64 64;" xml:space="preserve">
<g>
	<path style="fill:#B5B4B5;" d="M60.1415672,21.3291016v26.2636719c0,4.1328125-3.3710938,7.5039063-7.5039063,7.5039063H11.3661757
		c-4.1328125,0-7.5039063-3.3710938-7.5039063-7.5039063V21.3291016c0-4.1328125,3.371094-7.5039063,7.5039063-7.5039063h6.565917
		l1.4951172-3.9863281c0.7324219-1.9345703,3.019043-3.5175781,5.0708008-3.5175781H39.505825
		c2.0517578,0,4.3383789,1.5830078,5.0708008,3.5175781l1.4951172,3.9863281h6.565918
		C56.7704735,13.8251953,60.1415672,17.1962891,60.1415672,21.3291016z M45.1337547,34.4609375
		c0-7.2402344-5.8916016-13.1318359-13.1318359-13.1318359s-13.1318378,5.8916016-13.1318378,13.1318359
		s5.8916016,13.1318359,13.1318378,13.1318359S45.1337547,41.7011719,45.1337547,34.4609375z M40.4438133,34.4609375
		c0,4.6601563-3.78125,8.4423828-8.4418945,8.4423828s-8.4418964-3.7822266-8.4418964-8.4423828
		s3.78125-8.4423828,8.4418964-8.4423828S40.4438133,29.8007813,40.4438133,34.4609375z"/>
</g>
</svg>
