<?xml version="1.0" encoding="utf-8"?>
<!-- Generator: Adobe Illustrator 18.1.1, SVG Export Plug-In . SVG Version: 6.00 Build 0)  -->
<svg version="1.1" id="Capa_1" xmlns="http://www.w3.org/2000/svg" xmlns:xlink="http://www.w3.org/1999/xlink" x="0px" y="0px"
	 viewBox="0 0 305.073 62.167" enable-background="new 0 0 305.073 62.167" xml:space="preserve">
<g>
	<g>
		<g>
			<g>
				<path fill="#0D335E" d="M19.019,39.348l0.667,1.616c-0.129,0.117-0.284,0.243-0.465,0.377c-0.182,0.135-0.395,0.278-0.641,0.43
					c-0.246,0.082-0.541,0.199-0.887,0.352c-0.346,0.152-0.741,0.328-1.185,0.526c-0.34,0.211-0.617,0.369-0.834,0.475
					c-0.217,0.105-0.366,0.158-0.448,0.158c-0.152,0-0.43,0.065-0.834,0.193c-0.404,0.129-0.934,0.322-1.589,0.579
					c-0.351,0.129-0.723,0.261-1.115,0.395c-0.392,0.134-0.799,0.254-1.22,0.36l-1.089-0.228L8.711,44.88
					c-0.223,0-0.448-0.003-0.676-0.009c-0.228-0.006-0.448-0.021-0.658-0.044c-0.34-0.012-0.594-0.059-0.764-0.14
					c-0.17-0.082-0.254-0.199-0.254-0.351l0.105-0.667l-0.105-0.123c-0.398,0-0.665-0.053-0.799-0.158
					c-0.135-0.105-0.202-0.351-0.202-0.738c0-0.175,0.009-0.468,0.026-0.878c0.017-0.409,0.044-0.942,0.079-1.598
					c0-0.059,0.038-0.182,0.114-0.369c0.076-0.187,0.114-0.321,0.114-0.403c-0.059-0.117-0.094-0.211-0.105-0.281
					c-0.012-0.07-0.017-0.134-0.017-0.193c0.023-0.456,0.073-1.018,0.149-1.686c0.076-0.667,0.173-1.458,0.29-2.371
					c0.141-0.55,0.257-1.17,0.351-1.861c-0.024-0.515-0.047-1.042-0.07-1.581c0.433-1.943,0.878-3.898,1.335-5.865
					c0.07-0.351,0.202-0.685,0.395-1.001c0.193-0.316,0.424-0.621,0.694-0.913c0.117-0.082,0.193-0.147,0.228-0.193
					c0.059-0.105,0.134-0.238,0.228-0.395c0.093-0.158,0.205-0.336,0.334-0.536c0.07-0.047,0.184-0.117,0.342-0.21
					c0.158-0.094,0.372-0.222,0.641-0.387c0.117-0.094,0.252-0.205,0.404-0.334c0.152-0.128,0.328-0.281,0.527-0.456
					c0.445-0.269,0.857-0.553,1.238-0.851c0.38-0.299,0.857-0.483,1.431-0.553c0.269-0.012,0.538-0.027,0.808-0.044
					c0.269-0.017,0.527-0.037,0.773-0.062c0.234-0.047,0.439-0.076,0.615-0.087c0.117-0.023,0.219-0.047,0.307-0.07
					c0.088-0.024,0.167-0.036,0.237-0.036c0.07,0,0.167,0.009,0.29,0.026c0.123,0.017,0.29,0.044,0.501,0.079
					c0.164,0.012,0.304,0.017,0.421,0.017c0.117,0,0.228-0.006,0.334-0.017c0.468,0.14,0.814,0.346,1.036,0.615
					c0.222,0.269,0.334,0.591,0.334,0.965c0,0.808-0.079,1.408-0.237,1.8c-0.158,0.392-0.407,0.588-0.746,0.588
					c-0.258,0-0.55-0.132-0.878-0.395c-0.328-0.264-1.212-0.395-2.651-0.395c-0.597,0.117-1.188,0.235-1.774,0.351
					c-0.059,0.094-0.126,0.164-0.202,0.211c-0.076,0.047-0.144,0.082-0.202,0.105l-0.615-0.228c-0.187,0.07-0.398,0.264-0.632,0.579
					c-0.234,0.316-0.48,0.75-0.737,1.3c-0.059,0.118-0.103,0.263-0.132,0.439c-0.029,0.176-0.044,0.381-0.044,0.615
					c-0.21,0.843-0.421,1.657-0.632,2.441c-0.199,0.843-0.36,1.481-0.483,1.914c-0.123,0.433-0.196,0.696-0.219,0.79
					c-0.035,0.117-0.064,0.228-0.088,0.334c-0.024,0.105-0.035,0.211-0.035,0.316c0,0.152,0.029,0.27,0.088,0.351
					c0.059,0.082,0.146,0.123,0.263,0.123c0.105,0,0.36-0.193,0.764-0.579c0.404-0.387,0.705-0.603,0.904-0.65
					c0.246-0.07,0.494-0.146,0.746-0.228c0.252-0.082,0.512-0.182,0.782-0.299c0.105-0.035,0.383-0.082,0.834-0.14
					c0.451-0.058,1.08-0.129,1.888-0.211l0.492,0.14l0.931-0.175l0.492,0.228c0.117,0.117,0.225,0.261,0.325,0.43
					c0.1,0.17,0.19,0.355,0.272,0.553c0,0.703-0.076,1.235-0.228,1.599c-0.152,0.363-0.38,0.544-0.685,0.544l-0.966-0.386
					c-0.796,0.082-1.583,0.161-2.362,0.237c-0.779,0.076-1.572,0.149-2.38,0.219c-0.983,0.199-1.738,0.521-2.265,0.966
					c-0.527,0.445-0.819,1.031-0.878,1.756c-0.012,0.152-0.053,0.386-0.123,0.702c-0.07,0.316-0.153,0.709-0.246,1.177l0.123,0.527
					c-0.105,0.504-0.187,0.978-0.246,1.422c-0.059,0.445-0.088,0.843-0.088,1.194c0,0.117,0.018,0.202,0.053,0.254
					c0.035,0.053,0.076,0.068,0.123,0.044c0.562-0.047,1.012-0.082,1.352-0.105c0.339-0.024,0.58-0.029,0.72-0.018
					c0.305,0.024,0.615,0.047,0.931,0.07l1.107-0.088c0.117-0.023,0.371-0.117,0.764-0.281c0.392-0.164,0.746-0.246,1.062-0.246
					c0.339,0,0.682-0.035,1.027-0.105c0.345-0.07,0.676-0.164,0.992-0.281c0.316-0.117,0.629-0.237,0.939-0.36
					c0.31-0.123,0.624-0.243,0.939-0.36c0.117-0.035,0.272-0.099,0.465-0.193C18.536,39.623,18.761,39.501,19.019,39.348z"/>
				<path fill="#0D335E" d="M23.044,25.142L22.763,24c0.07-0.233,0.141-0.47,0.211-0.711c0.07-0.239,0.135-0.477,0.193-0.711
					c0.07-0.164,0.19-0.29,0.361-0.377c0.17-0.088,0.395-0.132,0.677-0.132c0.105,0,0.267-0.023,0.484-0.07
					c0.217-0.047,0.372-0.07,0.466-0.07c0.105,0,0.246,0.082,0.422,0.246c0.176,0.164,0.299,0.257,0.369,0.281
					c0.082-0.058,0.185-0.158,0.307-0.298c0.123-0.141,0.272-0.328,0.448-0.562c0.152-0.186,0.299-0.339,0.44-0.456
					c0.141-0.116,0.293-0.199,0.457-0.246c0.19,0.094,0.356,0.17,0.498,0.228c0.083,0.047,0.139,0.1,0.169,0.158
					c0.029,0.058,0.044,0.14,0.044,0.246c0,0.059-0.029,0.185-0.088,0.377c-0.059,0.193-0.147,0.454-0.264,0.781
					c-0.129,0.352-0.229,0.644-0.299,0.878c-0.07,0.235-0.118,0.416-0.141,0.545c-0.176,0.269-0.314,0.512-0.414,0.729
					c-0.1,0.217-0.15,0.418-0.15,0.606c0,0.234,0.07,0.582,0.21,1.045c0.141,0.463,0.345,1.039,0.614,1.73
					c0.374,0.936,0.754,1.914,1.14,2.932c0.351,1.124,0.719,2.21,1.105,3.258c0.386,1.047,0.789,2.052,1.21,3.011
					c0.433,1.007,0.789,1.757,1.07,2.248c0.281,0.492,0.491,0.738,0.632,0.738c0.116,0,0.201-0.068,0.253-0.202
					c0.052-0.134,0.079-0.348,0.079-0.641c0-0.117,0.015-0.269,0.044-0.456c0.029-0.187,0.079-0.392,0.149-0.615
					c0.105-0.316,0.204-0.673,0.297-1.071c0.116-0.608,0.224-1.141,0.323-1.598c0.099-0.457,0.184-0.849,0.254-1.177
					c0.047-0.211,0.099-0.656,0.157-1.334c0.058-0.679,0.117-1.598,0.175-2.757c0-0.116,0.02-0.281,0.061-0.491
					c0.04-0.211,0.079-0.451,0.114-0.72c0.047-0.269,0.082-0.501,0.105-0.694c0.023-0.193,0.035-0.366,0.035-0.518
					c0-0.269-0.029-0.67-0.088-1.203c-0.059-0.532-0.088-0.933-0.088-1.203c0.176-0.737,0.339-1.457,0.492-2.16
					c0.129-0.608,0.252-1.114,0.369-1.518c0.117-0.404,0.217-0.711,0.298-0.922c0.187-0.422,0.415-0.787,0.685-1.097
					c0.269-0.31,0.568-0.565,0.895-0.764h0.141c0.117,0,0.196,0.023,0.237,0.07c0.041,0.047,0.061,0.123,0.061,0.228
					c-0.059,0.246-0.111,0.433-0.158,0.562c0.035,0.211,0.07,0.434,0.105,0.668c-0.035,0.292-0.076,0.538-0.123,0.737
					c-0.024,0.129-0.047,0.325-0.07,0.588c-0.023,0.264-0.035,0.583-0.035,0.957c0,0.141-0.017,0.442-0.053,0.905
					c-0.035,0.462-0.1,1.079-0.193,1.853c-0.07,1.1-0.155,2.195-0.254,3.284c-0.099,1.089-0.202,2.178-0.307,3.266
					c-0.093,1.311-0.228,2.508-0.403,3.591c-0.176,1.083-0.386,2.052-0.631,2.906c-0.059,0.515-0.167,1.089-0.325,1.721
					c-0.158,0.632-0.36,1.317-0.605,2.054l-0.544,0.878c-0.035,0.047-0.403,0.196-1.105,0.448c-0.701,0.252-1.093,0.378-1.175,0.378
					c-0.176,0-0.439-0.231-0.79-0.693c-0.351-0.463-0.766-1.168-1.246-2.116c-0.457-0.854-0.819-1.56-1.088-2.116
					c-0.27-0.556-0.439-0.975-0.509-1.256c-0.024-0.105-0.059-0.24-0.105-0.403c-0.047-0.164-0.1-0.352-0.158-0.562
					c-0.234-0.515-0.53-1.153-0.887-1.914c-0.357-0.761-0.77-1.662-1.238-2.704c-0.082-0.258-0.184-0.507-0.307-0.746
					s-0.272-0.495-0.448-0.764L25.21,31.13c-0.082,0.234-0.164,0.527-0.246,0.878c-0.082,0.351-0.176,0.773-0.282,1.265
					c-0.117,0.316-0.241,0.597-0.37,0.843c-0.176,0.679-0.376,1.416-0.599,2.212c-0.223,0.796-0.464,1.651-0.722,2.564
					c-0.07,0.305-0.141,0.621-0.211,0.948c-0.07,0.328-0.153,0.667-0.247,1.018l-0.317,0.579c-0.047,0.351-0.1,0.697-0.158,1.036
					c-0.082,0.27-0.185,0.594-0.308,0.975c-0.123,0.38-0.273,0.834-0.449,1.361c-0.035,0.269-0.12,0.471-0.255,0.606
					c-0.134,0.134-0.319,0.207-0.553,0.219c-0.024,0.047-0.07,0.097-0.14,0.149c-0.07,0.052-0.187,0.102-0.351,0.149
					c-0.117,0.023-0.205-0.038-0.263-0.184c-0.059-0.147-0.088-0.36-0.088-0.641c0-0.164,0.029-0.422,0.088-0.773
					c0.059-0.351,0.146-0.796,0.263-1.334c0.129-0.609,0.231-1.086,0.308-1.432c0.076-0.345,0.126-0.564,0.15-0.658
					c0.047-0.281,0.1-0.65,0.158-1.106s0.123-0.983,0.194-1.58c0.023-0.152,0.061-0.342,0.114-0.571
					c0.053-0.228,0.12-0.495,0.202-0.799c0.058-0.234,0.176-0.869,0.351-1.905c0.176-1.036,0.404-2.479,0.686-4.328
					C22.469,28.806,22.762,26.98,23.044,25.142z"/>
				<path fill="#0D335E" d="M51.698,20.418c0.269,0.082,0.544,0.173,0.825,0.272c0.281,0.099,0.556,0.201,0.825,0.307
					c0.094,0.047,0.237,0.175,0.43,0.386c0.193,0.21,0.442,0.509,0.746,0.895c0.339,0.41,0.541,0.682,0.606,0.817
					c0.064,0.134,0.19,0.465,0.378,0.992c0.129,0.199,0.295,0.559,0.5,1.079c0.205,0.522,0.307,0.899,0.307,1.133
					c0,0.422-0.316,0.934-0.948,1.536c-0.632,0.603-1.13,0.904-1.493,0.904c-0.234,0-0.407-0.073-0.518-0.219
					c-0.111-0.146-0.167-0.36-0.167-0.641c-0.105-0.468-0.187-0.872-0.246-1.212c-0.328-1.276-0.764-2.236-1.308-2.88
					c-0.544-0.644-1.209-0.966-1.993-0.966c-0.398,0-0.787,0.068-1.168,0.202c-0.38,0.134-0.729,0.337-1.045,0.606
					c-0.164,0.129-0.38,0.345-0.65,0.65c-0.269,0.304-0.591,0.685-0.966,1.141c-0.047,0.082-0.111,0.176-0.193,0.281
					c-0.082,0.106-0.182,0.246-0.298,0.422c-0.105,0.199-0.243,0.437-0.413,0.711c-0.17,0.275-0.378,0.588-0.623,0.94
					c-0.105,0.304-0.211,0.585-0.316,0.842c-0.105,0.258-0.234,0.498-0.386,0.72c-0.035,0.047-0.07,0.137-0.105,0.272
					c-0.035,0.134-0.076,0.313-0.123,0.536c-0.082,0.27-0.173,0.562-0.272,0.878c-0.1,0.316-0.208,0.661-0.325,1.036
					c-0.187,1.276-0.322,2.286-0.404,3.029c-0.082,0.743-0.123,1.227-0.123,1.449c0,0.504,0.044,1.007,0.132,1.51
					c0.088,0.504,0.225,1.007,0.413,1.51c0.141,0.363,0.275,0.674,0.404,0.931c0.129,0.257,0.252,0.445,0.369,0.562
					c0.176,0.175,0.398,0.31,0.667,0.403c0.269,0.094,0.568,0.141,0.896,0.141c0.468,0,0.913-0.082,1.334-0.246
					c0.422-0.164,0.814-0.392,1.177-0.685c0.105-0.094,0.316-0.307,0.632-0.641s0.743-0.787,1.282-1.361
					c0.117-0.094,0.26-0.225,0.43-0.395c0.169-0.169,0.354-0.36,0.553-0.571c0.222-0.305,0.43-0.608,0.623-0.913
					c0.193-0.305,0.389-0.597,0.588-0.878c0.246-0.316,0.518-0.55,0.817-0.703c0.298-0.152,0.623-0.228,0.975-0.228
					c0.48,0,0.837,0.105,1.071,0.316c0.234,0.211,0.351,0.527,0.351,0.948c0,0.14-0.041,0.337-0.123,0.588
					c-0.082,0.252-0.135,0.448-0.158,0.588c-0.024,0.211-0.059,0.472-0.106,0.782c-0.047,0.31-0.1,0.676-0.158,1.097
					c-0.024,0.526-0.079,0.995-0.167,1.405c-0.088,0.41-0.208,0.767-0.361,1.071c-0.187,0.398-0.349,1.036-0.484,1.914
					c-0.135,0.878-0.302,1.521-0.501,1.931c-0.07,0.117-0.135,0.302-0.194,0.554c-0.059,0.252-0.123,0.571-0.193,0.957
					c-0.047,0.246-0.103,0.456-0.167,0.632c-0.065,0.176-0.155,0.316-0.273,0.422c-0.094,0.07-0.223,0.146-0.387,0.228
					c-0.164,0.082-0.393,0.169-0.686,0.263c-0.047,0.27-0.129,0.472-0.247,0.606c-0.117,0.134-0.276,0.202-0.475,0.202
					c-0.164,0-0.29-0.07-0.378-0.211c-0.088-0.14-0.132-0.369-0.132-0.685c0-0.118,0.02-0.302,0.061-0.553
					c0.041-0.252,0.114-0.571,0.219-0.957c0.047-0.187,0.088-0.439,0.123-0.755s0.059-0.703,0.07-1.159
					c0.023-0.234,0.085-0.603,0.184-1.106c0.099-0.503,0.243-1.124,0.43-1.861l-0.229-1.141c0.047-0.141,0.088-0.299,0.123-0.475
					c0-0.082-0.021-0.143-0.061-0.184c-0.041-0.041-0.103-0.062-0.185-0.062c-0.409,0.281-0.749,0.55-1.018,0.808
					c-0.597,0.515-1.1,0.936-1.509,1.264c-0.41,0.328-0.725,0.568-0.948,0.72c-0.468,0.305-0.942,0.556-1.421,0.755
					c-0.48,0.199-0.971,0.334-1.474,0.403l-0.772-0.158c-0.234,0.035-0.433,0.07-0.596,0.105c-0.257,0-0.532-0.064-0.825-0.193
					c-0.293-0.129-0.608-0.316-0.947-0.562c-0.293-0.234-0.565-0.515-0.816-0.843c-0.252-0.328-0.471-0.72-0.658-1.177
					c-0.07-0.14-0.158-0.421-0.263-0.842c-0.105-0.422-0.245-0.96-0.421-1.616c0.105-0.281,0.169-0.585,0.193-0.913
					c0.023-0.328,0.012-0.679-0.035-1.054l0.351-2.634c0.281-2.201,0.834-4.156,1.659-5.865c0.825-1.709,1.899-3.202,3.222-4.478
					c0.445-0.444,0.819-0.802,1.124-1.071c0.304-0.27,0.498-0.457,0.579-0.562c0.258-0.199,0.541-0.398,0.852-0.597
					c0.31-0.199,0.647-0.398,1.01-0.597c0.187-0.106,0.401-0.214,0.641-0.325c0.24-0.112,0.524-0.226,0.852-0.342l1.633-0.193
					l0.544,0.14L51.698,20.418z"/>
				<path fill="#0D335E" d="M66.888,39.348c0.468,1.018,0.702,1.557,0.702,1.616c-0.152,0.211-0.293,0.433-0.422,0.667
					c-0.129,0.234-0.269,0.474-0.422,0.72c-0.14,0.211-0.322,0.392-0.544,0.544c-0.222,0.152-0.48,0.281-0.773,0.386
					c-0.421,0.164-0.819,0.325-1.194,0.483c-0.375,0.158-0.714,0.313-1.018,0.465c-0.34,0.164-0.705,0.272-1.097,0.325
					c-0.392,0.052-0.77,0.102-1.133,0.149c-0.258,0.07-0.512,0.114-0.764,0.132c-0.252,0.017-0.483,0.027-0.694,0.027
					c-0.176,0-0.322-0.009-0.439-0.027c-0.117-0.017-0.217-0.049-0.298-0.097c-0.105-0.07-0.208-0.14-0.307-0.211
					c-0.1-0.07-0.196-0.134-0.29-0.193c-0.199-0.117-0.351-0.205-0.456-0.264c-0.141-0.082-0.243-0.316-0.307-0.702
					c-0.064-0.387-0.097-0.949-0.097-1.687c0-0.515,0.146-1.335,0.439-2.46c0.293-1.124,0.439-1.874,0.439-2.249
					c0-0.082-0.012-0.196-0.035-0.342c-0.024-0.147-0.035-0.267-0.035-0.36c0-0.328,0.114-1.075,0.342-2.24
					c0.228-1.166,0.343-1.976,0.343-2.434c0-0.222-0.085-0.383-0.255-0.483c-0.17-0.099-0.255-0.249-0.255-0.448
					c0-0.281,0.023-0.596,0.07-0.947c0.047-0.352,0.129-0.737,0.246-1.159c0.093-0.339,0.181-0.681,0.263-1.026
					c0.082-0.346,0.164-0.682,0.246-1.01c0.082-0.385,0.167-0.777,0.255-1.175c0.088-0.398,0.161-0.784,0.219-1.159
					c0.07-0.257,0.181-0.573,0.334-0.947c0.152-0.374,0.334-0.802,0.544-1.281c0.105-0.233,0.199-0.454,0.281-0.658
					c0.082-0.204,0.17-0.424,0.263-0.658c0.093-0.187,0.228-0.353,0.404-0.5c0.176-0.146,0.392-0.278,0.65-0.395
					c0.211-0.082,0.398-0.143,0.562-0.185c0.164-0.041,0.275-0.061,0.334-0.061c0.316,0,0.547,0.108,0.693,0.325
					c0.146,0.217,0.219,0.547,0.219,0.992c0,0.14-0.009,0.302-0.026,0.483c-0.017,0.182-0.061,0.39-0.132,0.624
					c-0.047,0.246-0.091,0.456-0.132,0.632c-0.041,0.175-0.073,0.316-0.097,0.422c-0.012,0.281-0.029,0.538-0.053,0.772
					c-0.024,0.235-0.053,0.451-0.088,0.65c-0.07,0.141-0.164,0.311-0.281,0.509c-0.082,0.55-0.149,1.01-0.202,1.378
					c-0.053,0.369-0.079,0.63-0.079,0.782c0,0.492-0.126,1.109-0.377,1.853c-0.252,0.743-0.378,1.308-0.378,1.695
					c0,0.164-0.029,0.377-0.088,0.64c-0.059,0.263-0.146,0.577-0.263,0.94c-0.129,0.491-0.231,0.872-0.307,1.141
					c-0.076,0.27-0.126,0.433-0.149,0.491c-0.024,0.176-0.05,0.381-0.079,0.615c-0.029,0.235-0.073,0.509-0.132,0.826
					c-0.27,1.276-0.471,2.333-0.606,3.17c-0.135,0.837-0.202,1.466-0.202,1.888c0,0.387,0.041,0.685,0.123,0.895
					s0.205,0.316,0.369,0.316c0.738,0,1.484-0.082,2.239-0.246c0.755-0.164,1.542-0.404,2.362-0.72
					c0.094-0.011,0.185-0.035,0.272-0.07c0.088-0.036,0.178-0.07,0.272-0.105c0.141-0.164,0.246-0.316,0.316-0.456
					c0.152-0.094,0.287-0.19,0.404-0.29C66.706,39.556,66.806,39.453,66.888,39.348z"/>
				<path fill="#0D335E" d="M69.258,40.683c0-0.656,0.026-1.209,0.079-1.659c0.053-0.451,0.114-0.805,0.184-1.063
					c-0.024-0.199-0.053-0.403-0.088-0.614c0-0.246,0.029-0.656,0.088-1.229c0.059-0.574,0.146-1.323,0.263-2.248
					c0.105-0.89,0.196-1.577,0.272-2.063c0.076-0.486,0.132-0.781,0.167-0.887c-0.024-0.199-0.05-0.416-0.079-0.65
					c-0.029-0.234-0.079-0.491-0.149-0.773l-0.386-0.281l-0.088-0.211c0.023-0.327,0.044-0.658,0.061-0.992
					c0.017-0.333,0.055-0.67,0.114-1.01c0.023-0.422,0.079-0.79,0.167-1.106c0.088-0.316,0.178-0.591,0.272-0.826
					c0.035-0.058,0.073-0.14,0.114-0.246c0.041-0.105,0.097-0.217,0.167-0.334c0.105-0.421,0.211-0.842,0.316-1.264
					c0.105-0.422,0.217-0.831,0.334-1.23c0.176-0.398,0.427-0.72,0.755-0.965c0.327-0.246,0.726-0.404,1.194-0.474
					c0.328-0.176,0.608-0.307,0.843-0.396c0.234-0.087,0.422-0.132,0.562-0.132c0.164,0,0.292,0.065,0.386,0.193
					c0.093,0.129,0.14,0.31,0.14,0.544c0,0.094-0.047,0.419-0.14,0.975c-0.094,0.556-0.24,1.326-0.439,2.309
					c-0.035,0.328-0.094,0.717-0.176,1.168c-0.082,0.451-0.193,0.986-0.334,1.606c-0.176,0.691-0.348,1.449-0.518,2.274
					c-0.17,0.826-0.325,1.736-0.465,2.731c-0.059,0.422-0.123,0.837-0.193,1.247c-0.07,0.41-0.135,0.826-0.193,1.247
					c-0.07,0.48-0.132,0.934-0.184,1.361c-0.053,0.428-0.079,0.811-0.079,1.15c0,0.129,0.009,0.252,0.026,0.369
					c0.017,0.117,0.026,0.228,0.026,0.334c0.023,0.129,0.02,0.298-0.009,0.509c-0.029,0.211-0.061,0.463-0.097,0.755
					c-0.047,0.281-0.088,0.536-0.123,0.764c-0.035,0.228-0.053,0.401-0.053,0.518c0,0.597,0.015,1.08,0.044,1.449
					c0.029,0.369,0.061,0.612,0.097,0.729c0.082,0.316,0.164,0.656,0.246,1.018c0,0.199-0.263,0.495-0.79,0.887
					c-0.527,0.392-0.907,0.589-1.141,0.589c-0.141,0-0.266-0.05-0.378-0.15c-0.111-0.099-0.226-0.249-0.342-0.448
					c-0.082-0.187-0.147-0.357-0.193-0.509c-0.047-0.152-0.07-0.292-0.07-0.421c0-0.07,0.023-0.182,0.07-0.334
					c0.047-0.152,0.07-0.264,0.07-0.334c-0.094-0.352-0.199-0.644-0.316-0.879c-0.024,0.118-0.035,0.094-0.035-0.07
					C69.258,41.45,69.258,41.14,69.258,40.683z"/>
				<path fill="#0D335E" d="M86.924,39.331l0.703,1.616c-0.164,0.128-0.525,0.239-1.08,0.332c-0.557,0.094-1.279,0.175-2.169,0.245
					c-1.031,1.004-2.058,1.84-3.082,2.506c-1.025,0.666-2.04,1.157-3.047,1.473c-0.234,0.07-0.504,0.147-0.808,0.229
					c-0.187,0-0.392-0.038-0.615-0.115s-0.468-0.184-0.737-0.324c-0.281-0.176-0.498-0.346-0.65-0.509
					c-0.152-0.164-0.228-0.334-0.228-0.509c0-0.351,0.169-0.691,0.509-1.018c0.339-0.328,0.837-0.638,1.493-0.931
					c1.311-0.608,2.605-1.223,3.881-1.844c0.187,0,0.322,0.038,0.403,0.115c0.082,0.076,0.123,0.172,0.123,0.289
					c0,0.316-0.226,0.583-0.676,0.799c-0.451,0.217-0.676,0.372-0.676,0.466c0.082,0.117,0.152,0.175,0.211,0.175
					c0.152,0,0.489-0.228,1.01-0.685c0.521-0.456,0.776-0.743,0.764-0.861l-0.087-0.403l0.035-0.07
					c0.304-0.269,0.529-0.509,0.676-0.72c0.146-0.211,0.219-0.38,0.219-0.509c0-0.293-0.147-0.685-0.439-1.177
					c-0.293-0.492-0.732-1.083-1.317-1.774c-0.445-0.538-0.89-1.021-1.334-1.449c-0.445-0.427-0.872-0.805-1.282-1.132
					c-0.164-0.14-0.304-0.278-0.422-0.413c-0.117-0.134-0.21-0.26-0.281-0.377c-0.129-0.234-0.231-0.427-0.307-0.58
					c-0.076-0.151-0.144-0.252-0.202-0.298c-0.059-0.07-0.138-0.155-0.237-0.255c-0.1-0.099-0.219-0.213-0.36-0.342
					c-0.246-0.257-0.436-0.615-0.571-1.071c-0.135-0.456-0.202-1.024-0.202-1.703c0-0.445,0.061-0.875,0.184-1.291
					c0.123-0.416,0.301-0.787,0.536-1.115c0.035-0.07,0.07-0.152,0.105-0.246c0.035-0.093,0.076-0.199,0.123-0.316
					c0.269-0.55,0.726-1.145,1.37-1.783c0.644-0.638,1.487-1.313,2.529-2.028c0.14-0.07,0.31-0.164,0.509-0.281
					c0.199-0.116,0.422-0.269,0.668-0.456c0.14-0.116,0.295-0.222,0.465-0.316c0.169-0.094,0.371-0.182,0.606-0.264
					c0.316-0.129,0.673-0.27,1.071-0.422c0.585-0.305,1.071-0.527,1.458-0.667c0.386-0.14,0.678-0.211,0.878-0.211
					c0.386,0,0.676,0.117,0.869,0.351c0.193,0.234,0.29,0.574,0.29,1.019c0,0.491-0.038,0.893-0.114,1.203
					c-0.076,0.31-0.179,0.518-0.307,0.623c-1.382,1.1-2.494,1.929-3.336,2.485c-0.843,0.556-1.435,0.834-1.773,0.834
					c-0.164,0-0.293-0.047-0.387-0.14c-0.094-0.094-0.14-0.234-0.14-0.422c0-0.317,0.263-0.665,0.79-1.045
					c0.527-0.38,0.784-0.67,0.773-0.869l-0.158-0.105c-0.059,0-0.126,0.017-0.202,0.053c-0.076,0.035-0.155,0.082-0.237,0.14
					c-1.031,0.831-1.806,1.577-2.327,2.239c-0.521,0.661-0.782,1.238-0.782,1.73c0,0.386,0.067,0.778,0.202,1.177
					c0.134,0.398,0.331,0.808,0.588,1.229c0.187,0.293,0.459,0.664,0.817,1.115c0.357,0.451,0.81,0.992,1.361,1.624
					c0.761,0.878,1.346,1.557,1.756,2.037c0.41,0.48,0.638,0.732,0.685,0.755c0.234,0.305,0.433,0.609,0.597,0.913
					c0.164,0.305,0.275,0.597,0.334,0.878c0.058,0.222,0.1,0.498,0.123,0.826c0.023,0.328,0.036,0.726,0.036,1.194
					c0,0.275,0.041,0.433,0.123,0.474c0.082,0.041,0.217,0.061,0.403,0.061c0.07,0,0.126-0.015,0.167-0.044
					C86.833,39.416,86.877,39.378,86.924,39.331z"/>
				<path fill="#0D335E" d="M105.152,20.032c0.199,0,0.339,0.108,0.422,0.325c0.082,0.217,0.123,0.53,0.123,0.94
					c0,0.27-0.047,0.752-0.141,1.449c-0.094,0.697-0.228,1.607-0.404,2.731l0.211,1.141c-0.094,0.27-0.187,0.586-0.281,0.949
					c-0.094,0.363-0.176,0.76-0.246,1.194c-0.094,0.492-0.179,0.907-0.255,1.247c-0.076,0.339-0.15,0.615-0.219,0.825
					c-0.094,0.363-0.179,0.7-0.256,1.01c-0.076,0.31-0.132,0.617-0.167,0.922c-0.083,0.738-0.191,1.438-0.325,2.098
					c-0.135,0.662-0.314,1.297-0.536,1.906c-0.153,0.445-0.384,1.294-0.695,2.546c-0.31,1.253-0.706,2.897-1.187,4.934
					c-0.211,0.913-0.446,1.598-0.704,2.055s-0.539,0.685-0.844,0.685c-0.153,0-0.264-0.035-0.334-0.105
					c-0.07-0.07-0.118-0.193-0.141-0.369c-0.012-0.059-0.015-0.123-0.009-0.193c0.006-0.07,0.009-0.275,0.009-0.615
					c-0.012-0.129-0.047-0.257-0.105-0.386l0.352-1.37c-0.012-0.152-0.041-0.316-0.088-0.491c0-0.41,0.102-1.238,0.307-2.485
					c0.204-1.247,0.5-2.918,0.887-5.014c0.14-0.691,0.275-1.446,0.403-2.265c0-0.141-0.012-0.24-0.035-0.299
					c-0.023-0.058-0.07-0.087-0.14-0.087c-0.129,0.058-0.264,0.116-0.404,0.175l-0.439-0.21c-0.07,0.023-0.214,0.132-0.43,0.324
					c-0.217,0.193-0.377,0.289-0.483,0.289c-0.222,0-0.547-0.037-0.975-0.114c-0.427-0.076-0.746-0.114-0.957-0.114
					c-0.257,0-0.533,0.067-0.825,0.201c-0.293,0.134-0.597,0.336-0.914,0.604c-0.55,0.082-1.039,0.213-1.466,0.394
					c-0.427,0.18-0.805,0.411-1.133,0.691c-0.164,0.129-0.339,0.268-0.526,0.42c-0.094,0.082-0.161,0.372-0.202,0.87
					c-0.041,0.498-0.062,1.181-0.062,2.048c0,0.797,0.041,1.383,0.123,1.758c0.082,0.375,0.205,0.562,0.369,0.562
					c0.105,0,0.199-0.026,0.281-0.079c0.082-0.052,0.182-0.137,0.299-0.255c0.07-0.082,0.152-0.167,0.246-0.254
					c0.094-0.088,0.17-0.179,0.228-0.272l0.141-0.017c0.082-0.012,0.143,0.012,0.184,0.07c0.041,0.058,0.062,0.146,0.062,0.264
					c-0.117,0.258-0.231,0.492-0.342,0.703c-0.112,0.211-0.208,0.387-0.29,0.527c-0.363,0.55-0.72,1.095-1.071,1.634
					c-0.211,0.281-0.462,0.498-0.755,0.65c-0.292,0.153-0.632,0.228-1.018,0.228c-0.314,0-0.551-0.427-0.708-1.283
					c-0.157-0.856-0.236-2.133-0.236-3.832c0-0.657-0.041-1.228-0.122-1.714c-0.082-0.486-0.216-0.905-0.402-1.256
					c-0.175-0.305-0.297-0.575-0.367-0.809c-0.07-0.234-0.105-0.433-0.105-0.597c0-0.129,0.032-0.275,0.097-0.439
					c0.065-0.164,0.161-0.327,0.29-0.491c0.152-0.187,0.272-0.342,0.36-0.465c0.088-0.123,0.137-0.225,0.15-0.307
					c0.07-0.187,0.137-0.433,0.201-0.737c0.065-0.304,0.137-0.656,0.219-1.053c0.07-0.269,0.134-0.65,0.193-1.141
					c0.059-0.491,0.1-1.082,0.123-1.772c0.059-1.311,0.182-2.305,0.369-2.983c0.187-0.679,0.263-1.082,0.228-1.211l-0.105-0.439
					c0.023-0.246,0.058-0.561,0.105-0.948c0.047-0.385,0.111-0.83,0.193-1.333c0.105-0.071,0.222-0.173,0.351-0.307
					c0.129-0.134,0.263-0.302,0.403-0.5c0.808-0.305,1.247-0.456,1.317-0.456c0.422,0,0.738,0.111,0.948,0.334
					c0.211,0.222,0.316,0.539,0.316,0.948c0,0.118-0.033,0.281-0.097,0.492c-0.065,0.211-0.143,0.475-0.237,0.79
					c-0.105,0.269-0.219,0.767-0.342,1.493c-0.123,0.725-0.261,1.656-0.413,2.791c-0.105,0.819-0.219,1.589-0.342,2.309
					c-0.123,0.72-0.267,1.39-0.43,2.01c-0.024,0.082-0.041,0.182-0.052,0.299c0,0.175,0.029,0.301,0.087,0.377
					c0.059,0.076,0.147,0.115,0.264,0.115c0.433-0.035,0.825-0.07,1.177-0.105c0.116,0,0.521-0.129,1.212-0.385h1.352
					c0.187,0,0.459-0.02,0.816-0.061c0.357-0.041,0.624-0.062,0.799-0.062c0.164,0,0.413,0.038,0.746,0.114
					c0.334,0.076,0.594,0.114,0.781,0.114c0.14,0,0.321-0.023,0.544-0.07c0.222-0.047,0.491-0.129,0.808-0.246
					c0.152,0,0.281-0.017,0.387-0.052s0.158-0.088,0.158-0.158c0.058-0.152,0.126-0.339,0.202-0.562
					c0.076-0.222,0.155-0.48,0.237-0.773c0.023-0.269,0.055-0.591,0.097-0.966c0.041-0.374,0.097-0.813,0.167-1.317
					c0.164-0.937,0.284-1.703,0.36-2.3c0.076-0.597,0.114-1.018,0.114-1.265c0-0.093-0.012-0.181-0.035-0.263
					c-0.024-0.082-0.065-0.146-0.123-0.193c-0.094-0.105-0.199-0.234-0.316-0.386c0.082-0.234,0.17-0.415,0.264-0.544
					c0.269-0.41,0.497-0.752,0.685-1.027c0.187-0.275,0.339-0.472,0.456-0.589c0.187-0.199,0.413-0.395,0.677-0.589
					C104.476,20.41,104.789,20.219,105.152,20.032z"/>
			</g>
		</g>
		<g>
			<g>
				<path fill="#0D335E" d="M109.246,12.983h9.264c0.311,0,0.598,0.166,0.754,0.435l9.554,16.496h0.116v-16.06
					c0-0.481,0.39-0.871,0.871-0.871h8.068c0.481,0,0.871,0.39,0.871,0.871v29.145c0,0.902-0.731,1.634-1.634,1.634h-8.001
					c-0.307,0-0.591-0.161-0.748-0.424l-10.084-16.875h-0.092v16.428c0,0.481-0.39,0.871-0.871,0.871h-8.068
					c-0.481,0-0.871-0.39-0.871-0.871V13.854C108.375,13.373,108.765,12.983,109.246,12.983z"/>
				<path fill="#0D335E" d="M212.507,44.983h-9.154c-0.172,0-0.323-0.115-0.368-0.281l-5.229-19.244h-0.089l-4.551,19.232
					c-0.041,0.172-0.194,0.294-0.371,0.294h-9.783c-0.179,0-0.334-0.125-0.372-0.299l-6.88-31.238
					c-0.052-0.238,0.129-0.463,0.372-0.463h9.057c0.179,0,0.335,0.125,0.373,0.3l3.301,15.205h0.089l3.845-15.218
					c0.043-0.169,0.195-0.288,0.37-0.288h9.469c0.169,0,0.319,0.112,0.366,0.274l4.345,14.881h0.089l2.801-14.845
					c0.034-0.18,0.191-0.311,0.375-0.311h9.089c0.245,0,0.426,0.228,0.372,0.466l-7.141,31.238
					C212.839,44.86,212.684,44.983,212.507,44.983z"/>
				<g>
					<path fill="#0D335E" d="M171.316,17.057c-2.96-3.023-6.97-4.564-12.028-4.621c-4.999,0.057-8.971,1.598-11.916,4.621
						c-3.05,2.995-4.59,6.943-4.62,11.843c0.03,4.872,1.569,8.805,4.62,11.8c2.945,3.052,6.917,4.606,11.916,4.664
						c5.058-0.057,9.067-1.612,12.028-4.664c2.975-2.995,4.478-6.928,4.508-11.8C175.794,24,174.292,20.053,171.316,17.057z
						 M165.791,31.054c0,3.576-2.926,6.502-6.502,6.502h0c-3.576,0-6.502-2.926-6.502-6.502v-4.308c0-3.576,2.926-6.502,6.502-6.502
						l0,0c3.576,0,6.502,2.926,6.502,6.502V31.054z"/>
				</g>
			</g>
		</g>
	</g>
	<g>
		<g>
			<path fill="#0D335E" d="M222.754,12.437c0-0.922,0.325-1.706,0.973-2.352c0.647-0.646,1.436-0.969,2.364-0.969
				c0.919,0,1.702,0.323,2.351,0.969c0.649,0.646,0.972,1.429,0.972,2.352c0,0.922-0.324,1.705-0.972,2.351
				c-0.649,0.646-1.433,0.969-2.356,0.969c-0.93,0-1.718-0.323-2.364-0.969C223.078,14.142,222.754,13.358,222.754,12.437z
				 M223.169,12.437c0,0.812,0.285,1.501,0.854,2.066c0.569,0.565,1.258,0.848,2.065,0.848c0.809,0,1.497-0.283,2.065-0.849
				c0.566-0.567,0.849-1.255,0.849-2.064c0-0.81-0.284-1.499-0.851-2.066c-0.568-0.568-1.255-0.852-2.062-0.852
				s-1.495,0.283-2.065,0.849C223.454,10.935,223.169,11.624,223.169,12.437z M227.713,14.505h-0.764l-0.442-1.014
				c-0.109-0.246-0.225-0.431-0.346-0.554c-0.12-0.123-0.247-0.185-0.381-0.185h-0.382v1.752h-0.628v-4.211h1.215
				c0.487,0,0.868,0.101,1.141,0.304c0.274,0.203,0.41,0.486,0.41,0.849c0,0.29-0.093,0.536-0.279,0.739
				c-0.185,0.202-0.447,0.338-0.784,0.406c0.118,0.033,0.235,0.115,0.353,0.245c0.118,0.13,0.232,0.31,0.341,0.54L227.713,14.505z
				 M225.398,10.828v1.399h0.619c0.279,0,0.489-0.059,0.63-0.176c0.141-0.118,0.212-0.294,0.212-0.529
				c0-0.249-0.077-0.427-0.228-0.534c-0.151-0.107-0.392-0.16-0.72-0.16H225.398z"/>
		</g>
	</g>
	<g>
		<path fill="none" stroke="#0D335E" stroke-width="0.5" stroke-miterlimit="10" d="M246.165,15.371
			c-0.008-0.002-0.015-0.004-0.023-0.006l-10.3-1.947c-0.575-0.109-1.165,0.092-1.563,0.533l-9.739,10.791
			c-0.443,0.49-0.577,1.197-0.346,1.822l4.672,12.666c0.144,0.39,0.514,1.054,0.968,1.423c0.806,0.658,1.322,0.637,1.539,0.68
			l62.097,11.701c0.436,0.087,0.86-0.196,0.946-0.632l5.285-26.836c0.087-0.442-0.206-0.868-0.649-0.946L246.165,15.371z"/>
		<path fill="#0D335E" d="M246.918,16.765c-0.008-0.002-0.015-0.004-0.022-0.005l-9.81-1.802c-0.548-0.101-1.109,0.086-1.488,0.494
			l-9.275,9.989c-0.422,0.454-0.549,1.108-0.329,1.687l4.45,11.724c0.202,0.533,0.668,0.921,1.229,1.024l0.932,0.171l-0.001,0.007
			l60.554,11.461l4.899-25.666L246.918,16.765z"/>
		<path fill="#FEFEFF" d="M290.148,49.405l-49.253-8.853c-1.319-0.237-2.196-1.498-1.959-2.817l3.289-18.295
			c0.237-1.319,1.498-2.196,2.817-1.959l49.253,8.853c1.319,0.237,2.196,1.498,1.959,2.817l-3.289,18.295
			C292.728,48.765,291.467,49.642,290.148,49.405z"/>
		
			<rect x="240.798" y="38.363" transform="matrix(0.9834 0.1815 -0.1815 0.9834 11.8997 -47.6465)" fill="#0D335E" width="50.984" height="5.668"/>
		<g>
			<path fill="#FFFFFF" d="M272.48,43.365l0.082,0.309c-0.03,0.016-0.066,0.032-0.107,0.048c-0.041,0.017-0.09,0.034-0.145,0.051
				c-0.053,0.005-0.117,0.014-0.192,0.027c-0.075,0.013-0.162,0.029-0.259,0.046c-0.076,0.024-0.138,0.041-0.186,0.051
				c-0.048,0.01-0.08,0.014-0.096,0.01c-0.031-0.006-0.09-0.005-0.176,0.002c-0.087,0.007-0.201,0.02-0.343,0.04
				c-0.076,0.009-0.156,0.018-0.24,0.026c-0.084,0.008-0.171,0.014-0.26,0.016l-0.214-0.082l-0.146,0.027
				c-0.045-0.009-0.091-0.018-0.137-0.028c-0.046-0.01-0.09-0.021-0.133-0.033c-0.069-0.015-0.119-0.033-0.151-0.054
				c-0.032-0.021-0.045-0.045-0.04-0.071l0.044-0.113l-0.017-0.026c-0.081-0.015-0.134-0.035-0.157-0.059
				c-0.024-0.024-0.029-0.069-0.017-0.137c0.006-0.031,0.017-0.082,0.035-0.153c0.017-0.071,0.04-0.164,0.069-0.277
				c0.002-0.01,0.014-0.03,0.036-0.06c0.022-0.03,0.034-0.052,0.037-0.066c-0.008-0.023-0.012-0.041-0.012-0.053
				s0.001-0.024,0.003-0.035c0.02-0.079,0.049-0.176,0.087-0.29c0.038-0.114,0.084-0.249,0.138-0.405
				c0.047-0.091,0.091-0.195,0.134-0.313c0.012-0.091,0.025-0.185,0.038-0.28c0.153-0.324,0.309-0.65,0.467-0.977
				c0.026-0.059,0.064-0.112,0.114-0.16c0.05-0.048,0.107-0.092,0.172-0.133c0.027-0.01,0.044-0.018,0.053-0.025
				c0.015-0.016,0.035-0.036,0.06-0.061c0.024-0.024,0.053-0.051,0.086-0.081c0.016-0.005,0.041-0.013,0.077-0.024
				c0.035-0.01,0.083-0.025,0.143-0.043c0.027-0.012,0.058-0.026,0.093-0.043c0.035-0.017,0.076-0.037,0.122-0.06
				c0.099-0.03,0.193-0.064,0.28-0.101c0.087-0.038,0.191-0.052,0.31-0.042c0.055,0.008,0.11,0.016,0.166,0.023
				c0.055,0.007,0.108,0.014,0.159,0.019c0.049,0.001,0.092,0.004,0.128,0.008c0.025,0,0.046,0,0.065,0
				c0.019-0.001,0.035,0,0.049,0.003c0.014,0.003,0.034,0.008,0.058,0.016c0.024,0.008,0.058,0.019,0.099,0.033
				c0.033,0.008,0.061,0.015,0.085,0.019c0.024,0.005,0.047,0.008,0.068,0.01c0.091,0.043,0.154,0.092,0.19,0.148
				c0.036,0.056,0.048,0.117,0.036,0.182c-0.027,0.142-0.063,0.244-0.108,0.307s-0.102,0.087-0.172,0.074
				c-0.052-0.01-0.108-0.044-0.166-0.103c-0.058-0.059-0.233-0.116-0.526-0.172c-0.125-0.003-0.25-0.005-0.373-0.007
				c-0.015,0.014-0.031,0.024-0.048,0.029c-0.017,0.005-0.032,0.009-0.045,0.011l-0.117-0.064c-0.04,0.005-0.09,0.031-0.148,0.077
				c-0.058,0.046-0.123,0.113-0.193,0.199c-0.016,0.018-0.03,0.042-0.041,0.072c-0.012,0.03-0.022,0.065-0.029,0.106
				c-0.071,0.14-0.141,0.274-0.21,0.404c-0.069,0.14-0.123,0.246-0.162,0.317c-0.039,0.071-0.063,0.115-0.071,0.13
				c-0.011,0.019-0.021,0.038-0.029,0.055c-0.008,0.018-0.014,0.036-0.018,0.054c-0.005,0.027-0.003,0.048,0.006,0.065
				c0.009,0.017,0.026,0.027,0.05,0.032c0.021,0.004,0.08-0.02,0.175-0.072c0.095-0.052,0.164-0.079,0.206-0.079
				c0.052-0.003,0.105-0.007,0.159-0.011c0.054-0.005,0.11-0.012,0.169-0.022c0.023-0.002,0.081,0,0.174,0.008
				c0.094,0.007,0.224,0.019,0.391,0.036l0.095,0.044l0.195,0.005l0.092,0.059c0.02,0.025,0.037,0.054,0.052,0.088
				c0.015,0.034,0.027,0.07,0.037,0.108c-0.023,0.123-0.057,0.214-0.1,0.272c-0.043,0.058-0.096,0.081-0.157,0.069l-0.184-0.105
				c-0.165-0.016-0.328-0.033-0.489-0.05c-0.161-0.017-0.325-0.035-0.492-0.054c-0.207-0.003-0.371,0.024-0.493,0.082
				c-0.122,0.058-0.201,0.149-0.237,0.274c-0.008,0.026-0.024,0.066-0.048,0.118c-0.025,0.053-0.055,0.118-0.089,0.197l0.007,0.097
				c-0.038,0.084-0.071,0.164-0.097,0.24c-0.027,0.076-0.046,0.144-0.058,0.206c-0.004,0.021-0.003,0.036,0.002,0.047
				c0.005,0.011,0.013,0.015,0.024,0.012c0.116,0.014,0.209,0.025,0.279,0.034c0.07,0.009,0.119,0.017,0.147,0.025
				c0.061,0.016,0.124,0.032,0.187,0.048l0.228,0.027c0.025,0,0.079-0.006,0.165-0.02c0.085-0.014,0.16-0.014,0.224-0.002
				c0.069,0.013,0.14,0.02,0.213,0.021c0.073,0.001,0.143-0.003,0.211-0.011c0.068-0.008,0.136-0.017,0.203-0.027
				c0.067-0.01,0.135-0.019,0.203-0.027c0.025-0.002,0.059-0.007,0.101-0.016C272.372,43.394,272.422,43.382,272.48,43.365z"/>
			<path fill="#FFFFFF" d="M273.773,41.029l-0.019-0.211c0.022-0.038,0.044-0.077,0.067-0.117c0.022-0.039,0.043-0.078,0.063-0.117
				c0.02-0.026,0.048-0.043,0.086-0.052c0.038-0.009,0.085-0.008,0.142,0.003c0.021,0.004,0.055,0.006,0.101,0.006
				c0.046,0,0.078,0.002,0.097,0.006c0.021,0.004,0.047,0.024,0.078,0.059c0.03,0.036,0.052,0.057,0.066,0.063
				c0.019-0.007,0.043-0.021,0.072-0.04c0.03-0.02,0.066-0.047,0.11-0.081c0.037-0.027,0.072-0.048,0.105-0.063
				c0.033-0.015,0.066-0.023,0.101-0.025c0.035,0.024,0.067,0.044,0.094,0.059c0.015,0.011,0.025,0.023,0.029,0.034
				c0.004,0.011,0.004,0.026,0.001,0.045c-0.002,0.01-0.012,0.031-0.03,0.063c-0.018,0.032-0.045,0.074-0.08,0.127
				c-0.038,0.057-0.068,0.104-0.09,0.142c-0.022,0.038-0.038,0.068-0.047,0.09c-0.045,0.04-0.081,0.078-0.108,0.112
				c-0.028,0.034-0.044,0.068-0.051,0.1c-0.008,0.041-0.005,0.105,0.008,0.191c0.013,0.087,0.036,0.196,0.067,0.327
				c0.045,0.179,0.09,0.365,0.134,0.558c0.034,0.211,0.073,0.415,0.116,0.614c0.044,0.199,0.092,0.39,0.146,0.575
				c0.055,0.193,0.102,0.339,0.143,0.436c0.041,0.097,0.075,0.148,0.104,0.154c0.024,0.005,0.043-0.004,0.058-0.026
				c0.015-0.022,0.028-0.058,0.037-0.109c0.004-0.021,0.012-0.047,0.024-0.078s0.029-0.066,0.051-0.102
				c0.032-0.051,0.064-0.11,0.096-0.176c0.044-0.102,0.084-0.191,0.119-0.268c0.035-0.076,0.066-0.142,0.091-0.197
				c0.017-0.035,0.042-0.111,0.076-0.228c0.034-0.117,0.077-0.276,0.127-0.477c0.004-0.02,0.013-0.048,0.029-0.084
				c0.015-0.035,0.031-0.076,0.047-0.122c0.018-0.045,0.033-0.085,0.045-0.118c0.011-0.033,0.019-0.063,0.024-0.09
				c0.009-0.047,0.016-0.119,0.022-0.214c0.006-0.096,0.013-0.167,0.022-0.214c0.06-0.122,0.118-0.242,0.172-0.36
				c0.046-0.102,0.088-0.186,0.126-0.252c0.037-0.066,0.068-0.116,0.091-0.15c0.052-0.067,0.111-0.122,0.176-0.166
				c0.065-0.044,0.134-0.077,0.208-0.099l0.029,0.005c0.024,0.005,0.039,0.012,0.046,0.021c0.007,0.01,0.008,0.024,0.005,0.042
				c-0.02,0.041-0.037,0.072-0.051,0.092c0,0.038,0,0.079-0.001,0.121c-0.017,0.05-0.033,0.091-0.049,0.125
				c-0.009,0.022-0.02,0.055-0.034,0.1c-0.014,0.045-0.027,0.101-0.039,0.167c-0.005,0.025-0.018,0.077-0.041,0.157
				c-0.023,0.08-0.056,0.185-0.101,0.317c-0.051,0.19-0.105,0.379-0.161,0.566c-0.056,0.187-0.114,0.374-0.171,0.561
				c-0.063,0.226-0.13,0.431-0.202,0.614c-0.072,0.183-0.147,0.345-0.225,0.485c-0.029,0.088-0.07,0.184-0.123,0.289
				c-0.053,0.105-0.117,0.217-0.192,0.337l-0.14,0.133c-0.009,0.007-0.089,0.019-0.24,0.036c-0.151,0.017-0.235,0.024-0.252,0.021
				c-0.036-0.007-0.082-0.058-0.138-0.152c-0.056-0.095-0.117-0.234-0.183-0.419c-0.064-0.167-0.115-0.305-0.151-0.413
				c-0.036-0.108-0.057-0.188-0.062-0.24c-0.001-0.019-0.004-0.044-0.008-0.075c-0.004-0.031-0.009-0.066-0.013-0.105
				c-0.03-0.099-0.069-0.223-0.117-0.37c-0.047-0.147-0.101-0.321-0.162-0.522c-0.008-0.048-0.021-0.096-0.038-0.143
				s-0.039-0.097-0.066-0.151l-0.027,0.004c-0.025,0.038-0.051,0.086-0.079,0.144c-0.028,0.058-0.062,0.129-0.1,0.211
				c-0.034,0.051-0.069,0.095-0.103,0.134c-0.058,0.112-0.124,0.234-0.196,0.365c-0.072,0.131-0.149,0.272-0.232,0.422
				c-0.025,0.051-0.049,0.103-0.075,0.158c-0.025,0.055-0.053,0.111-0.084,0.169l-0.084,0.089c-0.021,0.06-0.043,0.118-0.067,0.176
				c-0.026,0.044-0.057,0.097-0.095,0.159c-0.038,0.062-0.083,0.136-0.137,0.221c-0.016,0.046-0.04,0.078-0.072,0.096
				c-0.032,0.018-0.072,0.024-0.12,0.017c-0.006,0.007-0.018,0.014-0.034,0.021c-0.016,0.006-0.042,0.011-0.076,0.013
				c-0.025,0-0.04-0.015-0.047-0.042c-0.007-0.028-0.006-0.067,0.003-0.116c0.005-0.029,0.02-0.073,0.044-0.132
				c0.024-0.059,0.056-0.134,0.098-0.224c0.047-0.102,0.083-0.181,0.11-0.239c0.027-0.057,0.044-0.094,0.052-0.11
				c0.019-0.047,0.042-0.11,0.069-0.188c0.027-0.078,0.058-0.168,0.092-0.27c0.01-0.026,0.024-0.058,0.042-0.096
				s0.041-0.082,0.068-0.132c0.02-0.039,0.065-0.146,0.135-0.321c0.07-0.175,0.165-0.419,0.284-0.733
				C273.533,41.649,273.654,41.34,273.773,41.029z"/>
			<path fill="#FFFFFF" d="M279.762,41.309c0.052,0.025,0.105,0.051,0.159,0.08c0.054,0.028,0.106,0.057,0.158,0.086
				c0.018,0.012,0.042,0.04,0.075,0.084c0.032,0.044,0.073,0.106,0.122,0.186c0.055,0.085,0.087,0.141,0.096,0.167
				c0.009,0.026,0.023,0.089,0.044,0.189c0.02,0.04,0.042,0.109,0.066,0.209c0.024,0.099,0.033,0.17,0.025,0.211
				c-0.014,0.074-0.095,0.152-0.244,0.233c-0.149,0.081-0.26,0.115-0.334,0.101c-0.048-0.009-0.08-0.029-0.098-0.059
				c-0.018-0.03-0.022-0.07-0.013-0.119c-0.006-0.086-0.009-0.16-0.01-0.222c-0.024-0.236-0.081-0.422-0.17-0.556
				c-0.089-0.134-0.214-0.216-0.373-0.247c-0.081-0.015-0.163-0.019-0.244-0.01c-0.082,0.009-0.16,0.031-0.233,0.066
				c-0.038,0.016-0.089,0.046-0.154,0.089c-0.065,0.043-0.143,0.097-0.235,0.163c-0.012,0.012-0.029,0.027-0.049,0.042
				c-0.02,0.015-0.045,0.036-0.075,0.062c-0.028,0.031-0.064,0.067-0.108,0.109c-0.044,0.042-0.096,0.089-0.158,0.141
				c-0.032,0.049-0.062,0.094-0.092,0.136c-0.03,0.041-0.064,0.078-0.103,0.111c-0.009,0.007-0.019,0.021-0.031,0.044
				c-0.012,0.022-0.026,0.052-0.043,0.089c-0.026,0.044-0.054,0.092-0.085,0.143c-0.031,0.052-0.064,0.108-0.101,0.169
				c-0.081,0.217-0.142,0.388-0.183,0.516c-0.042,0.127-0.066,0.21-0.073,0.249c-0.017,0.088-0.025,0.178-0.024,0.27
				c0.001,0.092,0.012,0.185,0.034,0.281c0.016,0.069,0.033,0.129,0.051,0.179c0.018,0.05,0.036,0.088,0.056,0.113
				c0.03,0.038,0.071,0.07,0.122,0.097c0.052,0.027,0.111,0.047,0.178,0.059c0.095,0.018,0.189,0.021,0.28,0.008
				c0.091-0.012,0.179-0.037,0.262-0.075c0.025-0.012,0.075-0.042,0.15-0.088s0.177-0.109,0.306-0.189
				c0.027-0.012,0.06-0.029,0.101-0.053c0.04-0.023,0.084-0.049,0.132-0.079c0.055-0.045,0.108-0.09,0.157-0.136
				c0.049-0.046,0.099-0.09,0.149-0.131c0.061-0.046,0.124-0.076,0.19-0.092c0.066-0.015,0.134-0.016,0.206-0.002
				c0.098,0.019,0.167,0.051,0.207,0.097c0.041,0.046,0.054,0.106,0.04,0.18c-0.005,0.025-0.02,0.057-0.045,0.098
				c-0.025,0.041-0.042,0.073-0.052,0.097c-0.012,0.036-0.028,0.08-0.048,0.133c-0.02,0.053-0.043,0.115-0.069,0.186
				c-0.022,0.091-0.049,0.171-0.081,0.24c-0.032,0.068-0.068,0.126-0.109,0.174c-0.051,0.063-0.106,0.168-0.162,0.317
				s-0.112,0.255-0.166,0.319c-0.018,0.018-0.038,0.048-0.058,0.09c-0.02,0.042-0.044,0.095-0.071,0.16
				c-0.018,0.041-0.036,0.076-0.055,0.104c-0.019,0.028-0.042,0.049-0.07,0.063c-0.021,0.009-0.05,0.017-0.086,0.025
				c-0.036,0.008-0.086,0.015-0.148,0.02c-0.019,0.045-0.042,0.078-0.07,0.097c-0.028,0.019-0.063,0.025-0.103,0.017
				c-0.033-0.006-0.057-0.024-0.07-0.052c-0.013-0.028-0.014-0.07-0.004-0.125c0.004-0.021,0.014-0.052,0.031-0.095
				c0.017-0.043,0.042-0.096,0.077-0.159c0.016-0.031,0.032-0.074,0.05-0.128c0.018-0.054,0.035-0.121,0.053-0.201
				c0.013-0.04,0.037-0.102,0.074-0.187c0.037-0.084,0.087-0.188,0.15-0.31l-0.008-0.209c0.014-0.023,0.028-0.049,0.041-0.078
				c0.003-0.014,0.001-0.026-0.006-0.035c-0.007-0.009-0.019-0.015-0.036-0.018c-0.093,0.033-0.171,0.068-0.234,0.102
				c-0.139,0.067-0.255,0.122-0.349,0.163c-0.094,0.042-0.167,0.072-0.217,0.09c-0.105,0.035-0.21,0.061-0.314,0.077
				c-0.104,0.016-0.209,0.021-0.313,0.014l-0.152-0.058c-0.049-0.003-0.09-0.004-0.125-0.005c-0.052-0.01-0.106-0.032-0.161-0.066
				c-0.055-0.034-0.113-0.079-0.174-0.135c-0.052-0.052-0.098-0.112-0.138-0.179c-0.04-0.067-0.072-0.144-0.095-0.232
				c-0.01-0.027-0.018-0.08-0.026-0.158c-0.007-0.078-0.018-0.178-0.032-0.3c0.031-0.045,0.054-0.096,0.07-0.153
				c0.016-0.057,0.025-0.119,0.028-0.186l0.159-0.448c0.131-0.375,0.308-0.697,0.533-0.964c0.225-0.268,0.493-0.488,0.805-0.661
				c0.105-0.061,0.194-0.109,0.264-0.144c0.071-0.036,0.116-0.061,0.137-0.076c0.059-0.025,0.123-0.049,0.193-0.072
				c0.07-0.023,0.145-0.045,0.225-0.066c0.042-0.011,0.089-0.022,0.141-0.032c0.053-0.01,0.114-0.019,0.185-0.027l0.339,0.029
				l0.106,0.046L279.762,41.309z"/>
			<path fill="#FFFFFF" d="M282.223,45.217c0.061,0.197,0.091,0.3,0.089,0.311c-0.038,0.031-0.074,0.065-0.108,0.101
				c-0.034,0.036-0.071,0.073-0.11,0.11c-0.036,0.032-0.079,0.056-0.129,0.074c-0.05,0.018-0.107,0.031-0.17,0.038
				c-0.091,0.013-0.178,0.025-0.259,0.039c-0.082,0.013-0.156,0.027-0.223,0.042c-0.075,0.016-0.153,0.02-0.234,0.015
				c-0.082-0.006-0.16-0.012-0.236-0.018c-0.055,0.002-0.108,0-0.16-0.006c-0.052-0.007-0.099-0.014-0.142-0.022
				c-0.036-0.007-0.065-0.014-0.088-0.022c-0.023-0.008-0.042-0.017-0.058-0.028c-0.019-0.016-0.038-0.033-0.056-0.049
				c-0.018-0.016-0.035-0.031-0.053-0.045c-0.037-0.028-0.065-0.05-0.084-0.064c-0.026-0.02-0.039-0.065-0.039-0.135
				c0-0.07,0.012-0.17,0.037-0.3c0.017-0.09,0.074-0.228,0.171-0.414c0.097-0.186,0.152-0.312,0.164-0.377
				c0.003-0.014,0.004-0.035,0.004-0.061c0-0.027,0.002-0.048,0.005-0.065c0.011-0.057,0.059-0.184,0.144-0.38
				c0.085-0.196,0.136-0.333,0.151-0.414c0.007-0.039-0.005-0.07-0.036-0.095c-0.031-0.024-0.044-0.053-0.037-0.088
				c0.009-0.049,0.025-0.104,0.046-0.163c0.021-0.06,0.051-0.124,0.089-0.194c0.03-0.056,0.06-0.112,0.088-0.17
				c0.028-0.057,0.056-0.113,0.084-0.168c0.03-0.064,0.06-0.13,0.091-0.196c0.031-0.066,0.059-0.131,0.083-0.195
				c0.023-0.042,0.056-0.093,0.099-0.153c0.043-0.06,0.095-0.128,0.154-0.204c0.029-0.037,0.056-0.072,0.079-0.105
				c0.023-0.033,0.049-0.068,0.076-0.105c0.025-0.029,0.058-0.053,0.099-0.072c0.041-0.019,0.089-0.034,0.145-0.044
				c0.046-0.006,0.086-0.01,0.121-0.011c0.035-0.001,0.058,0,0.07,0.002c0.064,0.012,0.108,0.04,0.13,0.084s0.026,0.104,0.012,0.182
				c-0.005,0.025-0.012,0.053-0.021,0.084c-0.01,0.031-0.025,0.066-0.048,0.104c-0.018,0.041-0.034,0.077-0.048,0.106
				c-0.014,0.029-0.025,0.053-0.034,0.07c-0.012,0.049-0.024,0.093-0.036,0.133c-0.013,0.04-0.026,0.077-0.039,0.111
				c-0.019,0.022-0.044,0.048-0.074,0.078c-0.035,0.093-0.064,0.171-0.087,0.234c-0.023,0.063-0.037,0.107-0.042,0.134
				c-0.016,0.086-0.063,0.19-0.139,0.31c-0.076,0.121-0.12,0.215-0.133,0.283c-0.005,0.029-0.019,0.065-0.039,0.109
				c-0.021,0.044-0.049,0.096-0.085,0.155c-0.043,0.081-0.076,0.144-0.101,0.188c-0.025,0.044-0.04,0.071-0.047,0.08
				c-0.011,0.03-0.023,0.065-0.037,0.105c-0.014,0.04-0.032,0.087-0.054,0.14c-0.097,0.213-0.174,0.391-0.229,0.532
				c-0.055,0.142-0.09,0.249-0.104,0.323c-0.013,0.068-0.014,0.122-0.005,0.162c0.01,0.04,0.031,0.063,0.065,0.07
				c0.15,0.029,0.305,0.043,0.464,0.044c0.159,0.001,0.327-0.011,0.505-0.035c0.019,0.002,0.039,0.001,0.058-0.002
				c0.019-0.003,0.039-0.005,0.059-0.008c0.034-0.023,0.061-0.046,0.08-0.068c0.034-0.011,0.065-0.022,0.092-0.035
				C282.179,45.246,282.202,45.232,282.223,45.217z"/>
			<path fill="#FFFFFF" d="M282.661,45.542c0.022-0.115,0.046-0.211,0.071-0.288c0.026-0.077,0.05-0.137,0.073-0.179
				c0.002-0.036,0.003-0.073,0.003-0.111c0.008-0.043,0.028-0.114,0.059-0.212c0.031-0.098,0.074-0.226,0.129-0.384
				c0.051-0.152,0.092-0.269,0.124-0.351c0.032-0.082,0.053-0.132,0.064-0.149c0.002-0.036,0.004-0.075,0.006-0.117
				c0.002-0.042,0-0.089-0.005-0.141l-0.069-0.064l-0.011-0.04c0.016-0.056,0.031-0.114,0.046-0.172
				c0.015-0.058,0.034-0.115,0.057-0.173c0.019-0.073,0.042-0.136,0.071-0.188c0.028-0.052,0.056-0.097,0.083-0.134
				c0.009-0.009,0.02-0.022,0.031-0.039c0.012-0.017,0.027-0.034,0.045-0.052c0.035-0.07,0.071-0.14,0.106-0.209
				s0.072-0.137,0.109-0.203c0.049-0.063,0.111-0.11,0.186-0.14c0.075-0.03,0.161-0.043,0.259-0.037
				c0.073-0.018,0.134-0.03,0.185-0.037c0.051-0.006,0.09-0.007,0.119-0.001c0.033,0.006,0.057,0.023,0.072,0.049
				c0.015,0.026,0.018,0.06,0.01,0.101c-0.003,0.016-0.023,0.072-0.061,0.166c-0.038,0.094-0.093,0.223-0.166,0.388
				c-0.018,0.056-0.043,0.122-0.075,0.198c-0.032,0.076-0.072,0.166-0.121,0.269c-0.059,0.114-0.119,0.241-0.181,0.379
				c-0.062,0.138-0.124,0.292-0.186,0.461c-0.026,0.072-0.053,0.142-0.081,0.211c-0.028,0.069-0.055,0.14-0.081,0.211
				c-0.03,0.082-0.058,0.159-0.083,0.232c-0.025,0.073-0.043,0.139-0.054,0.199c-0.004,0.023-0.007,0.045-0.007,0.066
				c0,0.021-0.002,0.041-0.006,0.06c0,0.023-0.006,0.053-0.019,0.089c-0.013,0.036-0.028,0.079-0.045,0.129
				c-0.019,0.048-0.036,0.091-0.05,0.129c-0.015,0.039-0.024,0.068-0.028,0.089c-0.02,0.105-0.033,0.19-0.039,0.256
				c-0.006,0.066-0.008,0.11-0.005,0.132c0.006,0.059,0.011,0.121,0.016,0.188c-0.007,0.035-0.07,0.077-0.19,0.125
				c-0.12,0.048-0.204,0.068-0.252,0.059c-0.029-0.005-0.053-0.019-0.072-0.041c-0.019-0.022-0.038-0.052-0.055-0.092
				c-0.01-0.036-0.018-0.068-0.022-0.097c-0.004-0.028-0.005-0.054,0-0.077c0.002-0.012,0.011-0.031,0.025-0.056
				c0.015-0.025,0.023-0.044,0.025-0.056c-0.007-0.065-0.019-0.121-0.035-0.166c-0.009,0.02-0.01,0.015-0.005-0.014
				C282.635,45.677,282.645,45.623,282.661,45.542z"/>
			<path fill="#FFFFFF" d="M286.301,45.989l0.089,0.311c-0.038,0.016-0.115,0.022-0.231,0.017c-0.116-0.005-0.266-0.019-0.45-0.041
				c-0.243,0.136-0.48,0.243-0.711,0.32c-0.231,0.077-0.454,0.124-0.669,0.14c-0.05,0.003-0.107,0.006-0.172,0.009
				c-0.038-0.007-0.079-0.022-0.121-0.044s-0.089-0.05-0.139-0.085c-0.051-0.042-0.09-0.08-0.115-0.114
				c-0.026-0.035-0.035-0.067-0.029-0.098c0.012-0.062,0.057-0.115,0.138-0.159c0.08-0.044,0.192-0.08,0.335-0.106
				c0.287-0.056,0.571-0.114,0.851-0.173c0.038,0.007,0.064,0.019,0.078,0.036c0.014,0.017,0.019,0.035,0.015,0.056
				c-0.011,0.055-0.065,0.093-0.164,0.114c-0.099,0.021-0.15,0.039-0.153,0.056c0.013,0.024,0.025,0.037,0.037,0.039
				c0.031,0.006,0.107-0.021,0.228-0.081c0.121-0.06,0.183-0.1,0.184-0.121l-0.004-0.074l0.009-0.011
				c0.071-0.035,0.125-0.069,0.162-0.1c0.037-0.031,0.057-0.058,0.062-0.081c0.01-0.051-0.007-0.126-0.05-0.223
				c-0.043-0.098-0.113-0.218-0.209-0.362c-0.073-0.112-0.147-0.214-0.223-0.306c-0.076-0.092-0.151-0.175-0.223-0.248
				c-0.029-0.031-0.053-0.06-0.072-0.089c-0.019-0.028-0.034-0.054-0.045-0.077c-0.018-0.046-0.033-0.084-0.043-0.114
				c-0.01-0.029-0.021-0.05-0.031-0.06c-0.01-0.015-0.023-0.032-0.04-0.054c-0.017-0.021-0.038-0.046-0.062-0.074
				c-0.041-0.055-0.068-0.125-0.08-0.21c-0.012-0.085-0.007-0.187,0.016-0.306c0.015-0.078,0.042-0.151,0.081-0.219
				c0.039-0.068,0.088-0.126,0.146-0.175c0.01-0.011,0.019-0.024,0.03-0.039c0.01-0.015,0.022-0.032,0.036-0.051
				c0.073-0.086,0.186-0.173,0.338-0.26c0.152-0.087,0.346-0.173,0.582-0.258c0.031-0.007,0.069-0.017,0.113-0.03
				c0.044-0.013,0.095-0.031,0.151-0.054c0.032-0.015,0.067-0.028,0.105-0.037c0.038-0.01,0.082-0.017,0.132-0.023
				c0.069-0.01,0.146-0.021,0.232-0.032c0.129-0.031,0.236-0.051,0.319-0.061c0.083-0.01,0.145-0.011,0.186-0.003
				c0.079,0.015,0.134,0.047,0.165,0.095c0.032,0.049,0.04,0.112,0.025,0.19c-0.016,0.086-0.037,0.155-0.063,0.207
				c-0.026,0.051-0.054,0.084-0.083,0.097c-0.318,0.14-0.572,0.242-0.762,0.307c-0.19,0.065-0.32,0.091-0.389,0.078
				c-0.033-0.006-0.058-0.02-0.074-0.039c-0.016-0.02-0.021-0.046-0.014-0.079c0.011-0.056,0.076-0.106,0.196-0.153
				c0.12-0.046,0.182-0.087,0.186-0.123l-0.029-0.025c-0.012-0.002-0.026-0.002-0.043,0.001c-0.017,0.003-0.034,0.008-0.053,0.015
				c-0.237,0.106-0.42,0.207-0.548,0.303c-0.128,0.096-0.2,0.187-0.217,0.273c-0.013,0.068-0.012,0.139,0.002,0.214
				c0.014,0.075,0.04,0.154,0.079,0.238c0.028,0.059,0.071,0.134,0.129,0.227c0.058,0.093,0.132,0.205,0.223,0.338
				c0.126,0.183,0.222,0.325,0.289,0.425c0.067,0.1,0.105,0.153,0.114,0.159c0.038,0.062,0.068,0.124,0.091,0.183
				c0.023,0.06,0.036,0.115,0.039,0.167c0.004,0.041,0.004,0.091-0.003,0.15c-0.006,0.058-0.017,0.129-0.033,0.211
				c-0.009,0.048-0.006,0.078,0.009,0.088c0.015,0.01,0.042,0.019,0.08,0.026c0.014,0.003,0.026,0.002,0.035-0.001
				C286.28,46,286.29,45.995,286.301,45.989z"/>
			<path fill="#FFFFFF" d="M290.654,43.309c0.041,0.008,0.065,0.032,0.075,0.073c0.009,0.041,0.007,0.098-0.006,0.17
				c-0.009,0.047-0.035,0.13-0.077,0.249c-0.042,0.119-0.1,0.273-0.173,0.463l0.005,0.208c-0.028,0.044-0.058,0.095-0.089,0.156
				c-0.031,0.06-0.061,0.127-0.09,0.2c-0.035,0.083-0.067,0.152-0.093,0.209c-0.027,0.057-0.051,0.102-0.072,0.136
				c-0.031,0.06-0.06,0.116-0.086,0.167c-0.026,0.051-0.047,0.103-0.065,0.155c-0.041,0.126-0.087,0.245-0.136,0.355
				c-0.05,0.111-0.107,0.215-0.173,0.313c-0.046,0.072-0.121,0.212-0.226,0.42c-0.105,0.208-0.24,0.481-0.406,0.819
				c-0.073,0.152-0.144,0.263-0.212,0.333c-0.068,0.07-0.133,0.099-0.195,0.087c-0.031-0.006-0.053-0.016-0.064-0.031
				c-0.012-0.015-0.017-0.038-0.016-0.07c0-0.011,0.001-0.022,0.005-0.034c0.004-0.012,0.011-0.048,0.022-0.107
				c0.002-0.023-0.001-0.047-0.009-0.072l0.117-0.227c0.003-0.027,0.002-0.057-0.001-0.09c0.014-0.072,0.062-0.213,0.145-0.424
				c0.083-0.211,0.199-0.492,0.348-0.845c0.052-0.116,0.104-0.243,0.158-0.382c0.005-0.025,0.006-0.043,0.003-0.054
				c-0.003-0.011-0.011-0.018-0.026-0.021c-0.028,0.005-0.058,0.01-0.088,0.015l-0.082-0.054c-0.015,0.001-0.048,0.015-0.098,0.04
				c-0.051,0.025-0.086,0.036-0.108,0.032c-0.045-0.009-0.11-0.028-0.195-0.058c-0.084-0.03-0.148-0.049-0.191-0.057
				c-0.052-0.01-0.111-0.009-0.175,0.003c-0.064,0.012-0.133,0.036-0.206,0.071c-0.115-0.007-0.219-0.003-0.312,0.012
				c-0.093,0.015-0.178,0.041-0.254,0.077c-0.038,0.016-0.078,0.034-0.121,0.053c-0.022,0.011-0.045,0.059-0.07,0.145
				c-0.025,0.086-0.052,0.205-0.081,0.357c-0.027,0.14-0.038,0.244-0.034,0.313c0.004,0.069,0.023,0.107,0.056,0.113
				c0.021,0.004,0.041,0.003,0.06-0.003c0.018-0.006,0.042-0.017,0.069-0.033c0.017-0.012,0.036-0.023,0.058-0.035
				s0.041-0.025,0.056-0.039l0.029,0.002c0.017,0.001,0.029,0.008,0.035,0.019c0.006,0.012,0.008,0.028,0.004,0.049
				c-0.032,0.041-0.063,0.077-0.093,0.11c-0.03,0.033-0.055,0.06-0.077,0.081c-0.092,0.082-0.183,0.164-0.273,0.245
				c-0.052,0.041-0.111,0.069-0.175,0.085c-0.065,0.015-0.136,0.016-0.215,0.001c-0.064-0.012-0.098-0.096-0.101-0.252
				c-0.003-0.156,0.023-0.383,0.08-0.681c0.022-0.115,0.033-0.217,0.032-0.305c0-0.088-0.014-0.167-0.04-0.236
				c-0.025-0.06-0.041-0.112-0.048-0.156c-0.006-0.044-0.007-0.08-0.001-0.109c0.004-0.023,0.016-0.047,0.034-0.073
				c0.019-0.026,0.044-0.051,0.075-0.075c0.037-0.027,0.067-0.05,0.089-0.068c0.022-0.018,0.035-0.034,0.041-0.048
				c0.02-0.03,0.042-0.071,0.066-0.121c0.023-0.051,0.05-0.11,0.08-0.176c0.023-0.044,0.049-0.109,0.077-0.193
				c0.028-0.084,0.056-0.186,0.084-0.306c0.056-0.228,0.114-0.397,0.175-0.509c0.061-0.112,0.09-0.18,0.087-0.204l-0.007-0.081
				c0.013-0.042,0.031-0.096,0.053-0.162c0.022-0.066,0.05-0.141,0.084-0.226c0.024-0.008,0.051-0.022,0.082-0.04
				c0.031-0.019,0.064-0.043,0.099-0.072c0.175-0.022,0.269-0.032,0.283-0.029c0.086,0.016,0.146,0.048,0.182,0.095
				c0.035,0.047,0.046,0.107,0.033,0.178c-0.004,0.021-0.016,0.048-0.036,0.083c-0.02,0.034-0.045,0.078-0.075,0.129
				c-0.03,0.043-0.07,0.126-0.119,0.249c-0.049,0.122-0.108,0.28-0.177,0.474c-0.049,0.14-0.098,0.27-0.147,0.392
				c-0.049,0.121-0.101,0.233-0.155,0.336c-0.008,0.013-0.014,0.03-0.021,0.05c-0.006,0.031-0.004,0.054,0.005,0.07
				s0.026,0.026,0.05,0.03c0.089,0.011,0.17,0.02,0.243,0.027c0.024,0.005,0.11-0.002,0.259-0.021l0.275,0.052
				c0.038,0.007,0.094,0.014,0.168,0.021c0.074,0.007,0.129,0.013,0.165,0.02c0.033,0.006,0.083,0.023,0.148,0.049
				c0.065,0.026,0.117,0.043,0.155,0.05c0.029,0.005,0.066,0.008,0.113,0.009c0.047,0,0.104-0.004,0.173-0.012
				c0.031,0.006,0.058,0.008,0.08,0.006c0.023-0.002,0.035-0.009,0.037-0.022c0.017-0.024,0.037-0.055,0.06-0.091
				c0.023-0.036,0.048-0.078,0.074-0.126c0.014-0.046,0.031-0.102,0.052-0.166c0.021-0.064,0.047-0.139,0.078-0.225
				c0.065-0.158,0.115-0.288,0.15-0.389c0.035-0.102,0.057-0.174,0.065-0.217c0.003-0.016,0.004-0.032,0.002-0.048
				c-0.002-0.015-0.008-0.028-0.019-0.039c-0.016-0.022-0.033-0.049-0.051-0.08c0.025-0.038,0.048-0.066,0.072-0.085
				c0.068-0.061,0.126-0.113,0.174-0.154c0.047-0.041,0.085-0.07,0.113-0.086c0.045-0.028,0.097-0.053,0.157-0.077
				C290.504,43.349,290.574,43.328,290.654,43.309z"/>
		</g>
		<g>
			<path fill="#0D335E" d="M242.112,33.301l2.669-14.663l9.276,1.688c1.334,0.243,2.239,0.688,2.713,1.336
				c0.474,0.648,0.599,1.589,0.374,2.824c-0.179,0.982-0.499,1.698-0.96,2.148c-0.462,0.45-1.138,0.704-2.029,0.76
				c0.81,0.354,1.343,0.879,1.599,1.575c0.256,0.697,0.27,1.671,0.042,2.923c-0.253,1.387-0.708,2.313-1.366,2.776
				c-0.658,0.463-1.672,0.57-3.042,0.321L242.112,33.301z M248.446,30.984l0.635,0.116c0.311,0.057,0.541,0.021,0.689-0.107
				c0.148-0.128,0.258-0.392,0.331-0.792l0.107-0.591c0.071-0.388,0.058-0.671-0.037-0.849c-0.095-0.178-0.296-0.295-0.601-0.351
				l-0.635-0.116L248.446,30.984z M249.895,23.022l-0.377,2.072l0.635,0.116c0.3,0.054,0.527,0.017,0.681-0.113
				c0.154-0.13,0.265-0.383,0.334-0.759c0.072-0.394,0.06-0.678-0.036-0.854c-0.096-0.175-0.296-0.291-0.602-0.346L249.895,23.022z"
				/>
			<path fill="#0D335E" d="M256.325,35.888l2.669-14.663l9.24,1.682l-0.608,3.342l-3.518-0.64l-0.292,1.605l3.518,0.64l-0.608,3.342
				l-3.518-0.64l-0.552,3.033l3.518,0.64l-0.608,3.342L256.325,35.888z"/>
			<path fill="#0D335E" d="M270.298,38.541c-1.17-0.213-2.016-0.608-2.54-1.186c-0.523-0.578-0.703-1.32-0.538-2.225l0.483-2.654
				l5.855,1.066l-0.188,1.031c-0.066,0.365-0.059,0.639,0.023,0.824c0.082,0.185,0.246,0.3,0.493,0.345
				c0.253,0.046,0.452-0.009,0.599-0.164c0.147-0.155,0.257-0.436,0.331-0.842c0.083-0.458,0.087-0.789,0.012-0.991
				c-0.076-0.202-0.315-0.431-0.718-0.686l-3.676-2.327c-0.844-0.536-1.388-1.048-1.633-1.536c-0.245-0.488-0.3-1.105-0.164-1.852
				l0.286-1.569c0.164-0.899,0.592-1.526,1.285-1.88c0.693-0.353,1.624-0.424,2.794-0.211l5.907,1.075
				c1.17,0.213,2.015,0.607,2.536,1.181c0.521,0.575,0.7,1.312,0.536,2.211l-0.316,1.737l-5.81-1.058l0.034-0.185
				c0.059-0.323,0.04-0.58-0.056-0.771c-0.096-0.19-0.264-0.308-0.505-0.352c-0.206-0.037-0.384-0.003-0.533,0.104
				c-0.15,0.106-0.245,0.268-0.284,0.486c-0.038,0.212-0.012,0.394,0.078,0.547c0.09,0.153,0.348,0.366,0.772,0.637l4.265,2.79
				c0.542,0.36,0.889,0.789,1.041,1.287c0.152,0.498,0.144,1.209-0.024,2.132l-0.295,1.622c-0.196,1.076-0.63,1.815-1.301,2.218
				c-0.672,0.403-1.619,0.493-2.841,0.271L270.298,38.541z"/>
			<path fill="#0D335E" d="M283.464,40.828l2.061-11.321l-2.945-0.536l0.608-3.342l11.577,2.107l-0.608,3.342l-2.945-0.536
				l-2.061,11.321L283.464,40.828z"/>
		</g>
	</g>
</g>
</svg>
