<?xml version="1.0" encoding="utf-8"?>
<!-- Generator: Adobe Illustrator 18.0.0, SVG Export Plug-In . SVG Version: 6.00 Build 0)  -->
<!DOCTYPE svg PUBLIC "-//W3C//DTD SVG 1.1//EN" "http://www.w3.org/Graphics/SVG/1.1/DTD/svg11.dtd">
<svg version="1.1" id="Layer_1" xmlns="http://www.w3.org/2000/svg" xmlns:xlink="http://www.w3.org/1999/xlink" x="0px" y="0px"
	 viewBox="0 0 250 96.75" enable-background="new 0 0 250 96.75" xml:space="preserve">
<g>
	<path fill="#7FAF48" d="M26.492609,47.9468117c0,0,11.7567348,6.3187294,17.802393,14.3919487
		c0,0,8.9959908-11.1641579,17.4395676-14.3919487c0,0-14.2463074,15.2531967-12.9902267,25.048275
		c1.254837,9.7950897,2.7387848,13.8853683,10.3813896,22.8198318c0,0-7.5289841-1.7212296-14.4879875-11.732254
		c0,0-6.0462875,9.3644638-15.515583,11.732254c0,0,9.7398453-7.1460648,10.7253761-22.2799835
		C40.8324432,58.3985062,26.492609,47.9468117,26.492609,47.9468117"/>
	<path fill="#F5C12F" d="M71.3400269,45.9817696c0,0,0.4343796,4.9760094,0.4933853,9.3230362
		c0,0,4.4085388-1.7375603,8.1014709-0.9246407c0,0-7.2232742,1.9861259-9.23452,5.8328514
		c-2.0074768,3.843586-2.5197067,5.67593-2.1292572,10.7090569c0,0-2.1468353-2.3910141-2.0338364-7.6557808
		c0,0-4.3991356,1.9748344-8.2276535,0.6095276c0,0,4.7745094-0.1688652,8.8786011-5.4235764
		C71.7631073,52.7681503,71.3400269,45.9817696,71.3400269,45.9817696"/>
	<path fill="#F5C12F" d="M77.0342789,51.2003975c-0.6371536,0.9265366-1.9026489,1.1613045-2.8291779,0.5254135
		c-0.9277802-0.635891-1.1619263-1.9020195-0.5272903-2.8291779c0.637764-0.9265251,1.9045258-1.1631775,2.8323059-0.5254021
		C77.4341354,49.0064888,77.6714249,50.2738724,77.0342789,51.2003975"/>
	<path fill="#7FAF48" d="M48.9167824,45.9945755c0,2.6534119-2.1499748,4.8027573-4.8027573,4.8027573
		c-2.6546669,0-4.8033867-2.1493454-4.8033867-4.8027573c0-2.6521492,2.1487198-4.8033791,4.8033867-4.8033791
		C46.7668076,41.1911964,48.9167824,43.3424263,48.9167824,45.9945755"/>
	<path fill="#C5347C" d="M57.4496956,35.9041481c2.9892426,2.6326942,5.4468002,4.3784142,8.463665,4.4769669
		c2.366539,0.0759544,3.9044724-1.9566269,3.9333572-4.651474c0.0012512-0.062767,0.0470734-0.1136208,0.107338-0.1173859
		c0.0640259-0.0043869,0.1186447,0.0389175,0.1305695,0.1010742c1.5630493,8.0462265-0.4337616,14.5306664-6.2785492,20.4062119
		c-0.0426788,0.0420609-0.1129875,0.0451927-0.1600723,0.0043869c-0.0100403-0.0062714-0.0169449-0.0163116-0.0244827-0.0244713
		c-0.0269928-0.0408058-0.0295029-0.0935326-0.0031319-0.1355934c3.0030556-4.6552391,3.0645714-8.8007622,0.1952171-13.0511131
		c-1.6741486-2.4770203-4.1361008-4.7299423-6.5195847-6.8271866c-0.0489655-0.0458221-0.053997-0.1217804-0.013813-0.1707344
		C57.3222656,35.8633537,57.4001007,35.859581,57.4496956,35.9041481"/>
	<path fill="#C5347C" d="M63.4734497,34.0037575c-1.0326195,0.6974106-1.2849693,2.1261253-0.5674744,3.192009
		c0.7231407,1.0658798,2.1424408,1.3665657,3.1731644,0.6697845c1.0313644-0.6967773,1.2849731-2.1267433,0.5655899-3.193882
		C65.925354,33.6076622,64.5047989,33.3063545,63.4734497,34.0037575"/>
	<path fill="#1B8CC2" d="M29.368988,35.9041481c-2.9905014,2.6326942-5.446806,4.3784142-8.4624176,4.4769669
		c-2.369051,0.0759544-3.9044762-1.9566269-3.9352322-4.651474c-0.0025139-0.062767-0.0495911-0.1136208-0.1104813-0.1173859
		c-0.0608902-0.0043869-0.1161289,0.0389175-0.1280575,0.1010742c-1.5642996,8.0462265,0.4343891,14.5306664,6.2785454,20.4062119
		c0.0433121,0.0420609,0.1117363,0.0451927,0.1594467,0.0043869c0.0112972-0.0062714,0.0182037-0.0163116,0.0257359-0.0244713
		c0.0263653-0.0408058,0.0282478-0.0935326,0.001255-0.1355934c-3.0030575-4.6552391-3.0626926-8.8007622-0.1939716-13.0511131
		c1.6722717-2.4770203,4.1361103-4.7299423,6.5177135-6.8271866c0.0521011-0.0458221,0.0583801-0.1217804,0.0150661-0.1707344
		C29.4932766,35.8633537,29.4179478,35.859581,29.368988,35.9041481"/>
	<path fill="#1B8CC2" d="M23.3445473,34.0037575c1.0313587,0.6974106,1.2843323,2.1261253,0.5655804,3.192009
		c-0.7212582,1.0658798-2.1418095,1.3665657-3.1719112,0.6697845c-1.0313625-0.6967773-1.2862186-2.1267433-0.5662117-3.193882
		C20.8920059,33.6076622,22.3119297,33.3063545,23.3445473,34.0037575"/>
	<path fill="#1B8CC2" d="M73.5224457,32.8386345c3.4725952,1.9491043,6.2389984,3.1455498,9.2100449,2.608223
		c2.3301239-0.4187012,3.4135895-4.8900166,2.8781281-7.5321274c-0.0100327-0.061512,0.025116-0.1211472,0.0847549-0.1374683
		c0.060257-0.0163212,0.1230316,0.0150661,0.1468811,0.0721817c3.2083282,7.541544,3.0965881,17.381197-1.3916702,24.3477306
		c-0.0320206,0.0514755-0.0991898,0.0690498-0.1569366,0.0389175c-0.0100479-0.0043869-0.0175705-0.0125504-0.028244-0.019455
		c-0.0326462-0.0338974-0.0458221-0.0853729-0.0288773-0.1330833c1.9622803-5.1787643,0.6647644-10.1641884-3.0275345-13.7215233
		c-2.1549988-2.0715103-5.0337601-3.7607231-7.8001709-5.3137245c-0.0596237-0.0351524-0.0828552-0.1086006-0.0508423-0.1650925
		C73.3881149,32.8248329,73.4615555,32.8059998,73.5224457,32.8386345"/>
	<path fill="#1B8CC2" d="M79.013382,29.7210789c-0.8618698,0.8964043-0.8122864,2.3483448,0.1142426,3.2390842
		c0.9271622,0.893261,2.3790894,0.8888664,3.2434769-0.0069046c0.8624954-0.8963928,0.812912-2.3489552-0.1173859-3.240963
		C81.3303299,28.8209229,79.8771362,28.8253193,79.013382,29.7210789"/>
	<path fill="#C5347C" d="M16.047699,31.4643459c-3.5510654,1.8040981-6.3651762,2.8837948-9.3111048,2.2259312
		c-2.3087883-0.5172539-3.209578-5.0287399-2.5649047-7.646368c0.0144391-0.060257-0.0188313-0.1211472-0.0784664-0.1399784
		c-0.0564933-0.0200958-0.1217794,0.0087833-0.148144,0.0640221c-3.5184188,7.4034386-3.814707,17.2393227,0.3822877,24.3853912
		c0.0282516,0.0539856,0.0947876,0.0734482,0.1525407,0.0458221c0.0106702-0.0037651,0.0207133-0.0119247,0.0282464-0.0188293
		c0.037035-0.0320129,0.0521016-0.0841179,0.037035-0.1311951c-1.7482231-5.2553444-0.2454414-10.1836433,3.5950079-13.5828018
		c2.2378502-1.9811096,5.1850386-3.5516853,8.0123339-4.9873047c0.0621452-0.0326424,0.0847397-0.1048355,0.0571213-0.1619511
		C16.1807766,31.4561939,16.1079578,31.4323349,16.047699,31.4643459"/>
	<path fill="#C5347C" d="M10.6907196,28.1223125c0.8242054,0.9328117,0.7130966,2.3803539-0.2492104,3.2315559
		c-0.9635668,0.8543339-2.4142466,0.7909374-3.2403393-0.142498c-0.8248334-0.9309235-0.7131014-2.3784657,0.2510924-3.2334328
		C8.4133148,27.127367,9.8633718,27.1913986,10.6907196,28.1223125"/>
	<path fill="#793983" d="M14.0375223,48.508194c0,0,0.536706,4.9684792,1.3194847,9.2445679
		c0,0-4.6621447-0.8530807-8.1265793,0.6591187c0,0,7.4693446,0.5517731,10.1861591,3.9364853
		c2.7124157,3.3847122,3.5692692,5.0820923,4.1612148,10.097023c0,0,1.6427689-2.7632675,0.5153694-7.9062424
		c0,0,4.6960373,1.0878448,8.1887245-0.9930687c0,0-4.7161293,0.7564125-9.7586803-3.6044235
		C14.9339151,55.2500076,14.0375223,48.508194,14.0375223,48.508194"/>
	<path fill="#793983" d="M9.4591789,54.7299957c0.802865,0.7878036,2.0922155,0.7727356,2.8800192-0.0307579
		c0.7846613-0.8022346,0.7695942-2.0915909-0.0326433-2.8775063c-0.8047476-0.7859192-2.0928488-0.7721062-2.8800192,0.0307541
		C8.6412468,52.6566124,8.6556816,53.9459648,9.4591789,54.7299957"/>
	<path fill="#D14E2F" d="M56.3954239-0.0183423c0,0-4.0193481,3.8260095-7.7537117,6.887444
		c0,0,4.564846,2.6245346,6.4147568,6.3927965c0,0-6.7286224-4.8937798-11.4585648-3.9754038
		c-4.7318192,0.9208755-6.6758957,1.7438316-10.7774734,5.5704632c0,0,0.59132-3.5221825,5.2390213-7.0707355
		c0,0-4.7619514-2.4512906-6.2277031-6.7229824c0,0,3.4525108,4.0287647,10.8603477,3.9521856
		C50.7973251,5.0505776,56.3954239-0.0183423,56.3954239-0.0183423"/>
	<path fill-rule="evenodd" clip-rule="evenodd" fill="#7FAF48" d="M28.5262012,20.5498333
		c-3.3759308,2.3872585-4.9791527,5.2390327-5.8002205,7.1529751c-1.9735794-5.3859158,3.0896854-9.6971569,9.262146-8.5446472"/>
	<path fill-rule="evenodd" clip-rule="evenodd" fill="#7FAF48" d="M31.9882507,19.1582756
		c-3.9390011,2.5925236-3.2007942,8.4442177-8.2854004,8.6030273c1.104805-2.3979187,2.3288746-4.35079,3.9867077-5.9069233
		c0.9572868-0.9007988,2.0608368-1.6659966,3.368391-2.3094158"/>
	<path fill-rule="evenodd" clip-rule="evenodd" fill="#7FAF48" d="M61.2627754,19.3932438
		c3.3753014,2.3872585,4.9778862,5.2390308,5.8002129,7.1536064c1.9735794-5.3871708-3.0896835-9.6984119-9.2640266-8.5452805"/>
	<path fill-rule="evenodd" clip-rule="evenodd" fill="#7FAF48" d="M57.7990875,18.001503
		c3.9421387,2.5906467,3.2033005,8.4448414,8.2879028,8.6024055c-1.1054382-2.3972969-2.3301277-4.349535-3.9879646-5.9069328
		c-0.9579163-0.8995342-2.0620918-1.665987-3.3677673-2.3100376"/>
	<path fill-rule="evenodd" clip-rule="evenodd" fill="#7FAF48" d="M53.5716476,39.444416
		c3.3759232,2.3878822,4.9778862,5.2383995,5.7995872,7.1529732c1.9742012-5.3871689-3.090313-9.6977806-9.262146-8.545269"/>
	<path fill-rule="evenodd" clip-rule="evenodd" fill="#7FAF48" d="M50.1097221,38.0523033
		c3.9389954,2.5925217,3.2001572,8.4442177,8.2847672,8.6024055c-1.1041756-2.3960457-2.3295021-4.3501701-3.986084-5.9056778
		c-0.9585381-0.9014244-2.0614586-1.667244-3.3690224-2.3100395"/>
	<path fill-rule="evenodd" clip-rule="evenodd" fill="#7FAF48" d="M34.6955795,39.444416
		c-3.3771839,2.3878822-4.9797764,5.2383995-5.8008461,7.1529732c-1.9735775-5.3871689,3.0890541-9.6977806,9.2608871-8.545269"/>
	<path fill-rule="evenodd" clip-rule="evenodd" fill="#7FAF48" d="M38.1553116,38.0523033
		c-3.937748,2.5925217-3.2001648,8.4442177-8.2841434,8.6024055c1.1048012-2.3960457,2.3307552-4.3501701,3.9879627-5.9056778
		c0.9566574-0.9014244,2.0608368-1.667244,3.3677673-2.3100395"/>
	<path fill="#793983" d="M57.4690933,13.3632755c0,0,4.9276695,0.8298616,9.1485138,1.8668756
		c0,0-0.5737381-4.7042046,1.1424789-8.0725965c0,0,0.1054535,7.491313,3.3225632,10.4027214
		c3.2152252,2.9120388,4.8586197,3.8668118,9.830246,4.7563c0,0-2.8580627,1.4751663-7.9225769,0.0426903
		c0,0,0.8047485,4.7550468-1.4789276,8.1165333c0,0,1.0357513-4.6646557-3.0175018-9.9570389
		C64.1456146,14.6614246,57.4690933,13.3632755,57.4690933,13.3632755"/>
	<path fill="#793983" d="M63.9531631,9.1637669c0.7363205,0.8486929,0.6471786,2.1355391-0.2040215,2.8712358
		c-0.8468056,0.7375832-2.1355286,0.645937-2.8706017-0.2033873c-0.7369537-0.8493156-0.6471825-2.1348982,0.20401-2.8706045
		C61.9312401,8.2240601,63.2162018,8.3163376,63.9531631,9.1637669"/>
	<path fill-rule="evenodd" clip-rule="evenodd" fill="#7FAF48" d="M71.3215637,11.8277264
		c1.9509735,3.8009043,4.6313782,5.8554592,6.4681168,6.9772129c-5.7958145,1.2309742-9.4648972-4.5755186-7.3846054-10.7203598"/>
	<path fill-rule="evenodd" clip-rule="evenodd" fill="#7FAF48" d="M70.404892,8.084445
		c2.0758972,4.4060383,8.1692657,4.50459,7.5867386,9.7298002c-3.6144714-2.3370295-6.0557098-4.8196993-7.3268661-8.7222881"/>
	<path fill-rule="evenodd" clip-rule="evenodd" fill="#7FAF48" d="M76.5503006,60.9972382
		c-3.1405334,2.8015633-4.434288,5.8667603-5.0450592,7.8962097c-2.6113586-5.2195663,2.0131302-10.1597939,8.3845749-9.6996651"/>
	<path fill-rule="evenodd" clip-rule="evenodd" fill="#7FAF48" d="M79.8898163,59.1936493
		c-3.6841431,3.072113-2.269249,8.9049683-7.3921432,9.6463165c1.3314056-4.0256271,3.0909424-6.9677887,6.4957352-9.1478958"/>
	<path fill-rule="evenodd" clip-rule="evenodd" fill="#7FAF48" d="M11.6938353,63.4583206
		c3.1399002,2.799675,4.4336481,5.8648758,5.046937,7.8949509c2.6088467-5.2201996-2.0156364-10.1579132-8.3883429-9.6996727"/>
	<path fill-rule="evenodd" clip-rule="evenodd" fill="#7FAF48" d="M8.3526831,61.6534653
		c3.6879091,3.0733643,2.2717495,8.9049683,7.3933935,9.6475677c-1.3326693-4.0268784-3.091568-6.9684219-6.4969997-9.149147"/>
	<path fill="#F5C12F" d="M29.8561058,14.8427725c0,0-4.0827522-0.9516325-8.2577801,0.2623997
		c0,0,0.3747559-4.7236671-1.4826946-8.01548c0,0,0.2121754,7.4869256-2.8787651,10.5332928
		c-3.0903082,3.0451221-4.6903915,4.0702019-9.6199465,5.1680946c0,0,2.9170542,1.3540115,7.9162922-0.2925129
		c0,0-0.6013651,4.7832928,1.8235521,8.0455952c0,0-1.2039852-4.975378,2.6207657-10.4378738
		C23.8022842,14.6463003,29.8561058,14.8427725,29.8561058,14.8427725"/>
	<path fill="#F5C12F" d="M24.0039768,8.9318161c-0.7005501,0.8794489-0.5549145,2.1606445,0.3245335,2.8605661
		c0.8794498,0.7005434,2.1606445,0.5542822,2.8605614-0.3257895c0.6999168-0.8794498,0.5536556-2.1593904-0.3245335-2.8593111
		C25.9850883,7.9067373,24.7026386,8.0529995,24.0039768,8.9318161"/>
	<path fill-rule="evenodd" clip-rule="evenodd" fill="#7FAF48" d="M15.661581,11.8188086
		c-1.9459639,4.2296438-4.7720003,6.5917883-6.721096,7.8955793c6.3701916,1.0740433,10.0976486-5.4185514,7.5496979-12.0141029"/>
	<path fill-rule="evenodd" clip-rule="evenodd" fill="#7FAF48" d="M16.4901199,7.7002754
		c-2.0570679,4.8944111-8.6877728,5.2842321-7.8152294,10.9457188c3.8291464-2.7117939,6.3739605-5.5271587,7.5754356-9.8352585"/>
	<path fill="#C5347C" d="M51.4469147,14.6118851c0,0,4.9973488,5.4103985,4.0318947,12.5294762
		C54.5083466,34.2598076,44.8632851,37.183773,44.8632851,37.183773s6.333786-4.5328369,7.201931-7.7323723
		c0,0,0.6572418-1.4412594-1.0828247-2.5096531c-1.7513695-1.0734196-4.2459641,0.7714729-5.6740456,3.123579
		c0,0,0.509716-3.5918655,4.0432014-5.8724117C51.5511055,22.77425,53.2447281,19.9839993,51.4469147,14.6118851"/>
	<path fill="#C5347C" d="M36.7795792,14.6118851c0,0-4.995472,5.4103985-4.0293961,12.5294762
		c0.9679527,7.1184464,10.6148987,10.0424118,10.6148987,10.0424118s-6.3356705-4.5328369-7.2038155-7.7323723
		c0,0-0.6566086-1.4412594,1.084713-2.5096531c1.7513618-1.0734196,4.2440758,0.7714729,5.6727905,3.123579
		c0,0-0.5097237-3.5918655-4.0425758-5.8724117C36.6759987,22.77425,34.9830093,19.9839993,36.7795792,14.6118851"/>
	<path fill="#C5347C" d="M37.9958725,19.7891464c0,0.9077053,0.7607994,1.6440239,1.6986313,1.6440239
		c0.9403381,0,1.6992607-0.7363186,1.6992607-1.6440239c0-0.9089508-0.7589226-1.6459026-1.6992607-1.6459026
		C38.7566719,18.1432438,37.9958725,18.8801956,37.9958725,19.7891464"/>
	<path fill="#C5347C" d="M46.8347969,19.7891464c0,0.9077053,0.7607994,1.6440239,1.697998,1.6440239
		c0.9409714,0,1.7005196-0.7363186,1.7005196-1.6440239c0-0.9089508-0.7595482-1.6459026-1.7005196-1.6459026
		C47.5955963,18.1432438,46.8347969,18.8801956,46.8347969,19.7891464"/>
	<path fill="#793983" d="M109.2482071,49.5035782c0.291893,0.2787132,0.4507065,0.6233406,0.4789505,1.0395241
		c0,0.386055-0.1374664,0.7262802-0.4161835,1.0162964c-0.276825,0.2918892-0.6239624,0.4356422-1.038887,0.4356422
		c-0.1380997,0.0295029-0.3590698,0.0426826-0.6635132,0.0426826c-0.6101532,0.028244-1.220932,0.0426903-1.8291931,0.0426903
		h-1.8693848c-0.8876114,0-1.7814941-0.0144463-2.6810303-0.0426903c-0.9001617-0.0257378-1.8354797-0.0966682-2.8046951-0.2071533
		c-0.3885574-0.0552368-0.7068176-0.2090302-0.9553986-0.4563522c-0.2498398-0.2504654-0.373497-0.5668411-0.373497-0.9579163
		c0-1.5228653,0.0043869-3.044487,0.0207062-4.5673561c0.012558-1.5253868,0.0351563-3.090313,0.0621414-4.6973
		c0.0539856-2.686676,0.0891418-5.4078865,0.1010742-8.1648712c0.015686-2.7557316-0.0470886-5.5616817-0.1839218-8.4128227
		c0-0.472683,0.1368332-0.8461819,0.4149246-1.122385c0.3320618-0.279335,0.6930161-0.4161816,1.0796967-0.4161816
		c0.7771225,0.0257378,1.544838,0.0345211,2.3069077,0.0200863c0.7633057-0.0131798,1.5303955-0.0200863,2.3050156-0.0200863
		c1.5511169-0.0571251,3.1317368-0.0571251,4.7380905,0c0.4155579,0,0.7620697,0.1443748,1.0389023,0.4362679
		c0.2761917,0.2906456,0.4149246,0.6434269,0.4149246,1.0583534c-0.028244,0.388567-0.1851807,0.721262-0.4770813,0.9968319
		c-0.2906342,0.2780895-0.6321106,0.4174461-1.01754,0.4174461c-1.5517426-0.0552387-3.1028671-0.0552387-4.6533585,0h-3.1593552
		c0.0841064,2.4381008,0.1242905,4.8134251,0.1242905,7.1253529c0,2.313179-0.027626,4.6043968-0.0828629,6.8773956
		l5.5666962-0.1242905c0.41745-0.0288696,0.7702255,0.1023254,1.0608673,0.3929634
		c0.291893,0.2931442,0.4356384,0.6321259,0.4356384,1.0188026c0.0288849,0.3885689-0.09729,0.7256508-0.373497,1.0175514
		c-0.2761993,0.290638-0.6239624,0.4513321-1.0382538,0.4789581l-5.6928787,0.1242905
		c-0.027626,1.0539551-0.0483398,2.0991211-0.0621414,3.1361351c-0.0138168,1.0401459-0.0194702,2.0589485-0.0194702,3.0551491
		c1.327652,0.1123657,2.6013107,0.1594429,3.8216171,0.1456413c1.2184143-0.013813,2.4519119-0.0332756,3.6973267-0.0621452
		h0.7068253C108.6179581,49.1024628,108.9581909,49.2254982,109.2482071,49.5035782"/>
	<path fill="#793983" d="M117.2061234,52.0806618c-0.7495117,0-1.5097046-0.1519051-2.2855759-0.4563522
		c-1.0257111-0.4174461-1.8863297-1.0809479-2.5762024-1.9961853c-0.7495117-0.9974518-1.2058487-2.1738205-1.3715744-3.5315971
		c-0.0571289-0.38731,0.0414276-0.7400932,0.2918777-1.0596085c0.2485962-0.3195152,0.5787659-0.5040627,0.9968414-0.5611877
		c0.3873138-0.0564957,0.7338181,0.0483322,1.0395279,0.3113556c0.3044357,0.264267,0.4827118,0.5888023,0.5379562,0.9761124
		c0.1380997,1.0533371,0.4507065,1.8084869,0.9359436,2.2648468c0.4858551,0.4576187,0.9077072,0.7576714,1.2680054,0.894516
		c0.4701843,0.1920853,0.9491425,0.2692986,1.4331207,0.2266083c0.4852219-0.0395393,0.8800583-0.1851807,1.1845169-0.4350128
		c0.5517731-0.4149284,0.7608109-1.0928764,0.6233444-2.0351028c-0.2222214-1.2742882-0.7476349-2.7161789-1.5799942-4.3212852
		c-0.8298721-1.606987-1.7036667-3.240963-2.6176376-4.9050751c-0.9968414-1.7450867-1.9026489-3.4204979-2.721199-5.026226
		c-0.8173065-1.6076088-1.2943802-3.0765018-1.4324799-4.406662c-0.1117401-0.8568439-0.0219727-1.6452713,0.2692947-2.3659096
		c0.291893-0.7218857,0.7538986-1.3176022,1.3916702-1.7890224c0.6923828-0.4990425,1.4820633-0.788435,2.3684235-0.8712883
		c0.8863449-0.0828629,1.7438202,0.0671635,2.5762024,0.4582405c1.2472992,0.5524044,2.2698669,1.4663734,3.0752411,2.7431717
		c0.4161758,0.6628819,0.7620697,1.4180412,1.0382538,2.26297c0.276207,0.8436642,0.4701843,1.766428,0.5819092,2.7632599
		c0.0552444,0.388567-0.0495758,0.7407246-0.3107224,1.0602322c-0.264267,0.3182602-0.5894394,0.5034409-0.9779968,0.5605659
		c-0.3885727,0.0527267-0.7413483-0.0489655-1.0589828-0.3107224c-0.319519-0.2649002-0.5059509-0.5900688-0.5618134-0.9786358
		c-0.1117401-0.9692078-0.288765-1.7865124-0.5385895-2.4500256c-0.2492142-0.666647-0.5191269-1.2058716-0.8104095-1.6233063
		c-0.291893-0.4136715-0.5825195-0.7262821-0.8725357-0.9353199c-0.2918854-0.2058887-0.5354462-0.3490181-0.7275314-0.4350128
		c-0.8047562-0.3578091-1.4820862-0.33144-2.0363693,0.0859947c-0.4438019,0.357811-0.6227036,0.8568535-0.5379562,1.4946308
		c0.1380997,1.0238247,0.580658,2.2780285,1.32827,3.7594681c0.7470016,1.4833183,1.5643082,2.9992905,2.4506531,4.5504036
		c0.9968414,1.7727089,1.9465942,3.5316086,2.8467484,5.2779503c0.8989182,1.7450867,1.475174,3.3809509,1.7243805,4.9019394
		c0.1663589,0.9974556,0.0954208,1.925869-0.2090378,2.7845993c-0.3038101,0.8034935-0.7890472,1.4814415-1.4544373,2.0369873
		c-0.7739944,0.6082649-1.675415,0.9541435-2.6992493,1.0370026
		C117.6762848,52.066227,117.4823074,52.0806618,117.2061234,52.0806618"/>
	<path fill="#793983" d="M125.3919449,56.1100006h-0.0847473c-0.3879242-0.0288773-0.7200089-0.1883202-0.9962082-0.4783325
		c-0.2768173-0.2900047-0.4011078-0.6296082-0.3753815-1.0162888c0.0558624-1.8292007,0.1035843-3.9697609,0.1468964-6.4197884
		c0.0414352-2.4519119,0.0677948-5.0205765,0.0828552-7.7091446c0.0138092-2.6866798,0-5.4147835-0.04142-8.1855812
		c-0.0414352-2.7682877-0.1035843-5.3890591-0.1883316-7.8522644c-0.0257263-0.4161816,0.0985641-0.7689629,0.3753815-1.0596104
		c0.2761993-0.2918911,0.608284-0.4507008,0.9962082-0.4783249c1.3860321-0.0564938,2.6609497,0.1657162,3.823494,0.6635132
		c1.1073303,0.4714203,2.1198578,1.1506233,3.0338287,2.0369778c0.8034821,0.8587322,1.4669952,1.8417511,1.9955444,2.950325
		c0.5235291,1.1079426,0.8712769,2.3012562,1.0370026,3.573658c0.1933594,1.328907,0.1669769,2.6251678-0.0834808,3.8850212
		c-0.2485809,1.2598572-0.6911316,2.4173851-1.3282776,3.4713402c-0.7206421,1.2190514-1.6622314,2.2215347-2.8279114,3.0112152
		c-1.1613159,0.7878036-2.4914551,1.3496132-3.9860916,1.681057c0,0.5561676-0.0081635,1.3232536-0.022583,2.3069038
		c-0.0150757,0.9842873-0.0257492,1.9955521-0.0414352,3.0350761c-0.0138168,1.0370026-0.027626,2.0363541-0.0401764,2.991127
		c-0.0169525,0.9535179-0.0345383,1.682312-0.0646515,2.1813545c0,0.38731-0.1380997,0.7206383-0.4149399,0.9974632
		C126.1113205,55.9700127,125.777359,56.1100006,125.3919449,56.1100006 M126.8865738,25.9011612
		c0.1676025,5.4593639,0.2077789,10.5408325,0.1242905,15.2506866c1.1349182-0.3320732,2.0702362-0.8242111,2.805954-1.4757996
		c0.7337952-0.6509476,1.3075409-1.3709526,1.72435-2.1593781c0.4149475-0.790947,0.6785736-1.6220512,0.7878113-2.4933395
		c0.1123657-0.8737984,0.1123657-1.7118225,0-2.515316c-0.1092377-0.749506-0.3025665-1.4808159-0.5806427-2.2008152
		c-0.2781067-0.7206383-0.642807-1.3841438-1.0991669-1.9942951c-0.4607544-0.6095314-0.9999695-1.1299152-1.6220551-1.5599079
		C128.4037933,26.3248806,127.6900711,26.039896,126.8865738,25.9011612"/>
	<path fill="#793983" d="M144.5872192,51.9978676c-0.3031921,0-0.5241394-0.0150681-0.6622467-0.0426826
		c-1.0545959-0.1104851-2.0370026-0.4921379-2.9522095-1.1424713c-0.9139862-0.652832-1.7024078-1.5580215-2.3677979-2.7224541
		c-0.7200012-1.1908035-1.2479248-2.5485802-1.5793762-4.0708237c-0.2203217-0.8323708-0.374115-1.7111893-0.4569855-2.6383476
		c-0.0828552-0.9296684-0.1381073-1.8913498-0.1657104-2.888813c0-2.022541,0.157547-3.9540634,0.4764557-5.7958221
		c0.3182373-1.8423843,0.7965698-3.4707108,1.4343414-4.8812141c0.6647797-1.4977627,1.4406433-2.6672249,2.3269806-3.5121441
		c0.8851013-0.8461838,1.8417816-1.2962627,2.8668518-1.3521328c0.8304901-0.0828629,1.6465302,0.1255436,2.4525299,0.623333
		c0.7206421,0.4996758,1.3427124,1.1795006,1.8694,2.0369873c1.080307,1.6904697,1.8712463,4.1963673,2.3690338,7.5201912
		c0.0539856,0.4714203-0.0558624,0.8593636-0.3339539,1.1663208c-0.2761993,0.3301888-0.6220856,0.495903-1.038269,0.495903
		l-9.3500061,0.3735008c-0.0552521,0.5542793-0.0966949,1.1004105-0.1242981,1.6415138
		c-0.0276184,0.5392151-0.0414276,1.1022911-0.0414276,1.6835632c0.0276184,1.6885948,0.1883087,3.2290382,0.4783173,4.611927
		c0.2906494,1.3853989,0.7275391,2.5617676,1.308197,3.5316086c0.9139709,1.4971275,1.9691925,2.3150673,3.1599884,2.4512787
		c0.9133453,0.1136208,1.7501068-0.1989899,2.5121613-0.9334297c0.7614441-0.7356987,1.2956543-1.7519951,1.6013489-3.0539055
		c0.0815887-0.3873024,0.2969208-0.6917534,0.6427917-0.9139709c0.3471375-0.2228432,0.7149811-0.2768364,1.1004028-0.1663475
		c0.3885803,0.0828629,0.6942749,0.2962875,0.915863,0.6440506c0.2209625,0.3446198,0.2761993,0.7124672,0.1657257,1.0991478
		c-0.2228546,0.9974632-0.5687256,1.8988876-1.0401459,2.7036324c-0.4701691,0.8034935-1.0232086,1.4808083-1.6609802,2.0350914
		C147.3297577,51.4988213,146.0291138,51.9978676,144.5872192,51.9978676 M143.75737,25.8184242h-0.0414429
		c-0.3320618,0.0571251-0.7482605,0.3138638-1.2472839,0.7708588c-0.4978027,0.4569855-0.9955902,1.2510624-1.4958801,2.387249
		c-0.2215881,0.4714298-0.4149323,0.9836521-0.5825348,1.5373116c-0.1644592,0.5549145-0.3163757,1.1368122-0.454483,1.7469635
		l7.1040039-0.2931461c-0.2485809-1.301281-0.5266571-2.3326435-0.8323669-3.0959549
		c-0.3038177-0.7608109-0.5806427-1.3358097-0.8304749-1.7243767c-0.1663666-0.248579-0.3929749-0.5310555-0.6848602-0.849947
		C144.4013977,25.9778748,144.0894318,25.8184242,143.75737,25.8184242"/>
	<path fill="#793983" d="M154.6007538,52.0806618h-0.0828705c-0.3873138-0.0288696-0.7137299-0.1795273-0.97612-0.4563522
		c-0.2623901-0.2793427-0.395462-0.6095314-0.395462-0.9993401c0-1.2460442,0.0150452-2.4833031,0.0426788-3.7167892
		c0.0276184-1.2334862,0.0539856-2.4462624,0.0828705-3.6364326c0.109848-3.0482559,0.1719818-6.1228676,0.1870575-9.2251053
		c0.0150604-3.105381-0.1594543-6.2471695-0.5197601-9.4328918c-0.0552368-0.4155579,0.0483398-0.7739906,0.3119659-1.0796947
		c0.2642975-0.3057041,0.5881958-0.4852314,0.9761353-0.5404701c0.3885651-0.0552387,0.7407227,0.0483322,1.0608521,0.3126106
		c0.3170013,0.2623901,0.5046997,0.5875473,0.5586853,0.9736042c0.056488,0.473938,0.0991821,0.9340649,0.1261597,1.3935585
		c0.0269928,0.4563618,0.0684357,0.9221306,0.1242981,1.3923054c0.2222137-0.3873119,0.4645233-0.7407265,0.7281647-1.0589771
		c0.2611542-0.3195152,0.5461273-0.6032562,0.8518219-0.8530884c1.4105225-1.21842,3.1725616-1.8141384,5.2767029-1.7877674
		c0.3885651,0,0.7275391,0.1462517,1.0175476,0.4381523c0.2906494,0.2887497,0.4237213,0.6302395,0.3942261,1.0175514
		c0,0.3885555-0.1437531,0.7256489-0.4356384,1.0162849c-0.2900238,0.2919006-0.6302643,0.4400406-1.0175629,0.4400406
		c-1.3565216-0.0288792-2.4531708,0.2956657-3.2823944,0.9729824c-0.8311157,0.6804581-1.4826965,1.808485-1.9528809,3.3897324
		c-0.4996643,1.6339874-0.8166656,3.5592232-0.9572754,5.7725983c-0.1374664,2.2190247-0.2623901,4.6539841-0.3728638,7.3143044
		c-0.0552521,1.1368179-0.1035919,2.2805367-0.1450043,3.4292793c-0.0426941,1.1487465-0.1048431,2.3326454-0.1870728,3.5504417
		c-0.0301208,0.3891869-0.1738739,0.7156105-0.436264,0.9767456
		C155.3157196,51.9494667,154.9893036,52.0806618,154.6007538,52.0806618"/>
	<path fill="#793983" d="M177.0810547,26.2778606c0.746994,1.5774841,1.1148376,3.5711479,1.1022797,5.9816341
		c-0.015686,2.4117317-0.1205139,5.1931992-0.3126068,8.3513107c-0.1104736,1.5241203-0.2071533,3.1254539-0.2918854,4.799614
		c-0.0828705,1.6772881-0.1381073,3.4292793-0.1657257,5.2559738c0,0.3885689-0.1437531,0.7287903-0.4356384,1.0175514
		c-0.2900238,0.290638-0.630249,0.4368973-1.0188141,0.4368973c-0.3314362,0-0.6496887-0.1230316-0.9560242-0.3728752
		c-0.7752533,0.1927185-1.5630646,0.2900124-2.3652802,0.2900124c-0.3345795,0-0.6597443-0.0194626-0.9792633-0.0633965
		c-0.3176422-0.0401726-0.6289978-0.0872612-0.9359436-0.1437531c-1.5498657-0.3891907-2.7821045-1.1908035-3.6973267-2.4117317
		c-0.4708099-0.5793991-0.8380127-1.2391357-1.1010437-1.9735794c-0.2611237-0.7338181-0.4212036-1.5021591-0.4783173-2.3031425
		c-0.0276337-0.8034935,0.0571136-1.5875206,0.2504425-2.3495865c0.1933594-0.7633209,0.499054-1.4601021,0.9140015-2.0991325
		c0.8876038-1.3565178,2.13237-2.3112946,3.7406158-2.8674622c0.71875-0.2479553,1.4739075-0.4023781,2.2635956-0.4563637
		c0.7896881-0.0539818,1.6283417-0.0138016,2.5153198,0.1261787c0.138092-2.2447624,0.1795349-4.2120667,0.122406-5.9019051
		c-0.0552521-1.6879711-0.3163757-3.0444908-0.787796-4.0720882c-0.4438019-0.8587303-1.1230164-1.3703308-2.0369873-1.5385571
		c-0.7206268-0.1374779-1.4889679-0.0458221-2.3062744,0.2730598c-0.8173065,0.3170071-1.625824,0.8367596-2.429306,1.5561428
		c-0.3057098,0.2774582-0.6534882,0.4086533-1.0401611,0.3954639c-0.3873138-0.0144348-0.7325592-0.1719894-1.0388947-0.4789581
		c-0.2774506-0.3025608-0.4017334-0.6496925-0.3728638-1.0363808c0.0263519-0.3879337,0.1920776-0.7206306,0.4977875-0.9974556
		c1.1091919-1.0520802,2.3119354-1.8015881,3.6144562-2.2453938c1.2749329-0.4161797,2.4933624-0.5254021,3.6577759-0.3320637
		c0.8863678,0.1939716,1.6898651,0.5674629,2.4098663,1.1230087
		C176.1381989,24.7926559,176.6931152,25.4712257,177.0810547,26.2778606 M169.3103943,47.633831
		c1.1361847,1.4688911,2.8800049,1.8831863,5.2365112,1.2460403c0.0552368-1.5222359,0.1173859-2.9904976,0.1864319-4.4041405
		c0.0696869-1.4117699,0.1456299-2.7569847,0.2285004-4.0293961v-0.0445709
		c-1.3860321-0.2209511-2.5762024-0.1782722-3.5717773,0.1268005c-0.9980927,0.3038254-1.7758636,0.8857307-2.3288727,1.7457161
		c-0.5266724,0.8022385-0.7614441,1.7093124-0.7049561,2.7212105
		C168.4114838,46.0080147,168.7297363,46.8862076,169.3103943,47.633831"/>
	<path fill="#793983" d="M192.288681,52.0806618h-0.0401917c-0.4174347-0.0288696-0.7633209-0.1876869-1.0414124-0.4795799
		c-0.2761993-0.290638-0.4004822-0.6427956-0.3728638-1.0577202c0.0552521-1.4682617,0.0828552-2.7915154,0.0828552-3.9697647
		c0-1.1782455-0.0125427-2.5121689-0.0414124-4.0099335c-0.0276337-1.4965057-0.0816193-3.0174866-0.1663666-4.5698662
		c-0.138092-1.8285713-0.2969055-3.4500008-0.4764404-4.8623924c-0.1814117-1.4117565-0.4230804-2.644619-0.7275391-3.6966896
		c-0.3320618-1.2209377-0.6666412-2.0438938-0.9968262-2.4726315c-0.332077-0.4287395-0.5687256-0.6572304-0.7080841-0.6842232
		c-0.0263672,0-0.0608826,0.0037651-0.1035614,0.0194626c-0.0414429,0.0131817-0.1035767,0.0615139-0.1851959,0.1443768
		c-0.1676025,0.1387234-0.3816528,0.4249725-0.6459198,0.852457c-0.263031,0.429369-0.5392303,1.1211205-0.8311157,2.0765266
		c-0.2887573,0.9554062-0.5819092,2.2303181-0.8725586,3.8234997c-0.2899933,1.5925484-0.5473633,3.6088104-0.7670746,6.0469131
		c-0.1387329,1.4130211-0.2435608,2.7695389-0.3113556,4.0701981c-0.0709381,1.303791-0.1255493,2.4600639-0.1669769,3.4719658
		c-0.0433044,1.0112762-0.0778503,2.1242371-0.1054535,3.3439102c0,0.3898201-0.1399994,0.7275429-0.4136658,1.0162926
		c-0.2774658,0.2931595-0.6095276,0.4381561-0.9981079,0.4381561h-0.0414124c-0.3873138,0-0.7206421-0.1399803-0.9987183-0.4149284
		c-0.2762146-0.2761993-0.4281158-0.6114044-0.454483-0.998085l-0.66539-25.6803989
		c-0.0276184-0.3866806,0.104187-0.7256584,0.3942108-1.0162964c0.2893829-0.2918911,0.6296082-0.4494553,1.0175476-0.4783249
		c0.3885498,0,0.7275391,0.1399784,1.0194244,0.4161816c0.2900238,0.2755699,0.4494629,0.6082649,0.4764557,0.9968319
		l0.1249237,4.1549397c0.6095276-2.022543,1.371582-3.4493675,2.285553-4.2817383
		c0.4689178-0.4149265,0.9265289-0.677948,1.371582-0.7884254c0.4425659-0.1111107,0.8298645-0.1368465,1.1631775-0.0816078
		c0.3873138,0.0244808,0.8374023,0.1644707,1.3508759,0.4149246c0.5116119,0.2492104,1.0025024,0.73382,1.4739075,1.4544506
		c0.5254059,0.8034916,0.9968414,1.9390564,1.4130249,3.4066868c0.3056946,1.1368198,0.5599365,2.4644699,0.7689667,3.9885941
		c0.2077789,1.5253754,0.3797913,3.2409592,0.5184937,5.1517715c0.112381,1.6082382,0.181427,3.1662712,0.2071686,4.6765785
		c0.0276184,1.5084343,0.0363922,2.859314,0.0219727,4.0494843c-0.0150757,1.1926804-0.033905,2.1618996-0.062149,2.9107742
		c-0.0276184,0.7470016-0.0414276,1.1481247-0.0414276,1.2046165c-0.0276337,0.3873138-0.1807861,0.7200089-0.4576263,0.9968338
		C193.0080566,51.9406853,192.6772308,52.0806618,192.288681,52.0806618"/>
	<path fill="#793983" d="M201.514267,52.0377884c-0.806015,0-1.6076202-0.0188293-2.4111023-0.0608788
		c-0.8047638-0.0426903-1.6208038-0.0891457-2.4506683-0.1462631c-0.5555267-0.0828629-0.9302979-0.33144-1.1223755-0.7469978
		c-0.2504578-0.4161911-0.2780914-0.8599968-0.0847626-1.330162c0.6101685-1.302536,1.1782684-2.5429268,1.7049255-3.7199173
		c0.5254059-1.1763687,1.0313568-2.326992,1.5153351-3.449379c0.4839783-1.1217537,0.9573059-2.2428741,1.4149017-3.3658829
		c0.4563751-1.1211205,0.919632-2.2629585,1.3910522-3.4261398c0.6095276-1.5241318,1.2404022-3.0821533,1.8901062-4.6747036
		c0.6509399-1.5944271,1.3772278-3.3175507,2.1819611-5.1731129c-1.0796814,0.0533524-2.1888885,0.0828629-3.3256989,0.0828629
		c-1.1349335,0-2.2843018-0.0690517-3.4468689-0.2090397c-0.3873138-0.0288677-0.7137146-0.1933384-0.977356-0.4977875
		c-0.2630157-0.3050728-0.3666077-0.6647606-0.3113556-1.0790634c0.0552368-0.388567,0.2347717-0.7156105,0.5404663-0.9767456
		c0.3044434-0.2655334,0.6503448-0.3678493,1.038269-0.3138657c1.4952545,0.1387253,2.9773254,0.1883221,4.4474487,0.1462631
		c1.4670105-0.0414371,2.8800354-0.0897694,4.236557-0.1462631c0.5266571-0.0539837,0.9566498,0.1531677,1.289978,0.623333
		c0.1381073,0.2215862,0.2197113,0.4582405,0.2492065,0.7055626c0.0269928,0.2504654-0.015686,0.4883747-0.1261749,0.7080822
		c-1.0244446,2.326992-1.9321289,4.4449463-2.7212067,6.3589001c-0.7890472,1.9108028-1.5448303,3.7531948-2.2635803,5.5258961
		c-0.8311157,1.9936714-1.6565857,3.9666176-2.4738922,5.9201126c-0.8166656,1.9528694-1.7243652,4.0381775-2.7224579,6.2540627
		c1.2472992,0.0558701,2.4738922,0.0765877,3.6778717,0.0627747c1.2058563-0.0138092,2.3740845-0.0483322,3.5108795-0.1048241
		c0.6377869-0.025116,1.2680206-0.0483437,1.8901062-0.0627785c0.6239471-0.0138092,1.2284546-0.0194626,1.8090973-0.0194626
		c0.3885803,0,0.7281799,0.1387329,1.0188141,0.4149361c0.2906342,0.276825,0.4356537,0.623333,0.4356537,1.0395126
		c0,0.3879356-0.1450195,0.7269135-0.4356537,1.0181847c-0.2906342,0.2887497-0.6302338,0.4356422-1.0188141,0.4356422
		c-0.5536499,0-1.1298981,0.0087852-1.72435,0.02071c-0.5957184,0.0150642-1.2115326,0.0364075-1.8505707,0.0608902
		c-0.7463684,0.0288773-1.5222321,0.0571251-2.3257294,0.0853691
		C203.1595306,52.0239868,202.3441162,52.0377884,201.514267,52.0377884"/>
	<path fill="#793983" d="M224.3666687,26.2778606c0.746994,1.5774841,1.1148529,3.5711479,1.1022949,5.9816341
		c-0.0138092,2.4117317-0.1192627,5.1931992-0.3126068,8.3513107c-0.1104889,1.5241203-0.2071533,3.1254539-0.2919006,4.799614
		c-0.0828552,1.6772881-0.138092,3.4292793-0.1657257,5.2559738c0,0.3885689-0.1468658,0.7287903-0.4356384,1.0175514
		c-0.2906342,0.290638-0.6321259,0.4368973-1.0187988,0.4368973c-0.3301849,0-0.6503296-0.1230316-0.9560394-0.3728752
		c-0.775238,0.1927185-1.5636749,0.2900124-2.3652802,0.2900124c-0.3345795,0-0.6597443-0.0194626-0.9792633-0.0633965
		c-0.319519-0.0401726-0.6302338-0.0872612-0.9346771-0.1437531c-1.5504913-0.3891907-2.7833557-1.1908035-3.6985779-2.4117317
		c-0.4720612-0.5793991-0.838028-1.2391357-1.1010284-1.9735794c-0.2636566-0.7338181-0.4230957-1.5021591-0.4770813-2.3031425
		c-0.0288696-0.8034935,0.0539856-1.5875206,0.2504578-2.3495865c0.1908264-0.7633209,0.4977875-1.4601021,0.9127197-2.0991325
		c0.8863373-1.3565178,2.1317596-2.3112946,3.7387543-2.8674622c0.7206268-0.2479553,1.4770355-0.4023781,2.2667236-0.4563637
		c0.787796-0.0539818,1.625824-0.0138016,2.513443,0.1261787c0.138092-2.2447624,0.1795197-4.2120667,0.1242828-5.9019051
		c-0.056488-1.6879711-0.3182678-3.0444908-0.7922058-4.0720882c-0.4412689-0.8587303-1.119873-1.3703308-2.0338287-1.5385571
		c-0.7206421-0.1374779-1.49086-0.0458221-2.3069,0.2730598c-0.8179474,0.3170071-1.6270905,0.8367596-2.4305725,1.5561428
		c-0.3057098,0.2774582-0.6509552,0.4086533-1.038269,0.3954639c-0.3872986-0.0144348-0.7344513-0.1719894-1.038269-0.4789581
		c-0.2780762-0.3025608-0.4011078-0.6496925-0.3735046-1.0363808c0.0263824-0.3879337,0.1920929-0.7206306,0.499054-0.9974556
		c1.1060486-1.0520802,2.3119354-1.8015881,3.6132202-2.2453938c1.2749023-0.4161797,2.4933319-0.5254021,3.657135-0.3320637
		c0.8863525,0.1939716,1.6898499,0.5674629,2.4098511,1.1230087
		C223.4238281,24.7926559,223.9781189,25.4712257,224.3666687,26.2778606 M216.5972748,47.633831
		c1.1355591,1.4688911,2.8787689,1.8831863,5.2333679,1.2460403c0.0558777-1.5222359,0.1180267-2.9904976,0.188324-4.4041405
		c0.069046-1.4117699,0.1468811-2.7569847,0.2278748-4.0293961v-0.0445709
		c-1.3854065-0.2209511-2.5743256-0.1782722-3.5724182,0.1268005c-0.997467,0.3038254-1.7745819,0.8857307-2.3288727,1.7457161
		c-0.5254059,0.8022385-0.7601929,1.7093124-0.7055817,2.7212105
		C215.6958618,46.0080147,216.0134735,46.8862076,216.5972748,47.633831"/>
	<path fill="#793983" d="M94.186409,89.4090729c-0.1104889,0-0.2159424-0.0081558-0.3101044-0.021965
		c-0.0979233-0.0138168-0.2033844-0.0207138-0.313858-0.0207138c-1.0520859-0.1381073-2.0294495-0.5323181-2.9296188-1.1838989
		c-0.8989029-0.649704-1.6678772-1.5304108-2.3050232-2.6377182c-0.3596878-0.5549164-0.6641312-1.1713409-0.9139633-1.8492889
		c-0.2504654-0.6804581-0.4720535-1.4061127-0.6641388-2.1813583c-0.194603-0.8034973-0.3327026-1.6622314-0.41745-2.5768356
		c-0.0828552-0.9152298-0.1399765-1.8555679-0.1644592-2.8260345c0-2.0777817,0.1644592-4.0356674,0.4977875-5.8805618
		c0.3333206-1.8405075,0.8173065-3.4826431,1.4532013-4.921402c0.6923828-1.5247459,1.4921112-2.7168045,2.3910141-3.5742798
		c0.9001617-0.8587341,1.8624649-1.330162,2.8869247-1.4130249c0.8034897-0.0834846,1.5655518,0.1123657,2.2855606,0.5819054
		c0.3596878,0.1933403,0.6861115,0.4444389,0.9761124,0.7482567c0.2919083,0.3057022,0.5756378,0.6509552,0.8518372,1.0370026
		c0.9968338,1.5234985,1.7463455,3.756958,2.244133,6.6909637c0.056488,0.3885727-0.0357895,0.7482605-0.2711868,1.0815811
		c-0.2335129,0.3301849-0.5461197,0.5404739-0.9328003,0.6239624c-0.3885651,0.0564957-0.7482529-0.0364075-1.0815811-0.2730637
		c-0.3333206-0.2347717-0.5266571-0.5461197-0.5819092-0.9328079c-0.3872986-2.3552399-0.9001541-4.0657959-1.5366745-5.1316757
		c-0.6358948-1.0671463-1.2190552-1.572464-1.7444534-1.5184822c-0.3333282,0.0295029-0.7551651,0.2849884-1.2680206,0.7695961
		c-0.5115967,0.4833527-1.0332336,1.3100662-1.5586472,2.4732513c-0.5530319,1.2749176-0.97612,2.7343903-1.2680206,4.3840561
		c-0.2900009,1.6459122-0.4356384,3.3853455-0.4356384,5.2120361c0.0276184,2.1330261,0.2285004,3.8398209,0.6013641,5.1134872
		c0.3741226,1.2736588,0.7557831,2.2284317,1.1437225,2.8649521c0.8311157,1.4682617,1.8555679,2.2717514,3.0752411,2.4117355
		c0.8851013,0.1104813,1.6967545-0.1939697,2.4311981-0.9139709c0.7344437-0.7206345,1.252327-1.7180939,1.5567703-2.9923859
		c0.1104813-0.3885651,0.3402252-0.6848526,0.687355-0.8951416c0.3440018-0.2058945,0.711853-0.2674103,1.1004181-0.1858063
		c0.3873062,0.1111069,0.6861038,0.3345718,0.8920059,0.6647644c0.2090302,0.3314362,0.2711716,0.6930161,0.1876831,1.0815735
		c-0.2485733,0.9692154-0.602623,1.8568268-1.0602264,2.6596909c-0.4563599,0.8034973-1.0037384,1.4808121-1.6396332,2.0357285
		C96.8868866,88.9087753,95.5981674,89.4090729,94.186409,89.4090729"/>
	<path fill="#793983" d="M110.6412048,89.4090805c-1.6898499,0-3.2164917-0.7061996-4.5730133-2.1198425
		c-1.2460403-1.3006516-2.2152557-3.0595551-2.9063873-5.276062c-0.6930161-2.3269958-0.9987183-4.9860535-0.9139709-7.9771805
		c0.1368484-4.1009521,0.9679565-7.4115982,2.4914551-9.9350739c0.6930161-1.1336784,1.5391922-2.0476456,2.5360336-2.7406616
		c1.0231934-0.6911278,2.0903244-1.0382576,3.1995316-1.0382576c1.5222397,0,2.9327469,0.6497002,4.237175,1.9534912
		c1.2742844,1.3031693,2.2296753,3.1016045,2.8687057,5.4016075c0.6346436,2.300621,0.9139709,4.959053,0.8298721,7.9765472
		c-0.027626,1.0815811-0.0910339,2.1072922-0.1870651,3.0752487c-0.0966873,0.9704666-0.2567444,1.8856964-0.4783478,2.7425461
		c-0.387291,1.6615982-0.9139709,3.0746155-1.5787277,4.2390594c-0.7193756,1.2184219-1.5517578,2.1418076-2.4920883,2.7626343
		C112.7315216,89.0964661,111.7208862,89.4090805,110.6412048,89.4090805 M110.4748535,63.2296333
		c-0.5819016,0-1.1587906,0.2090416-1.7243729,0.6239662c-0.5693512,0.4161911-1.0878601,1.0112686-1.5592804,1.7865143
		c-0.413681,0.7200089-0.8449249,1.7589035-1.2887344,3.1166763c-0.4425507,1.3577805-0.6917496,3.1430435-0.7457352,5.3608093
		c-0.0841141,2.4380951,0.1387253,4.6401672,0.6635056,6.6049652c0.5260391,1.9691849,1.3000259,3.4776154,2.3276291,4.5303192
		c0.7739792,0.8292313,1.6069794,1.2454147,2.4933395,1.2454147c0.5517578,0,1.106041-0.2121735,1.6615906-0.6427994
		c0.5530319-0.4299927,1.057724-1.0947571,1.5172119-1.99366c0.4563751-0.9001617,0.8348923-2.0281982,1.1418457-3.3859711
		c0.3044586-1.3571548,0.4852371-2.977951,0.5392227-4.8630219c0.0571213-2.602562-0.1657257-4.8893814-0.6635132-6.8560562
		c-0.4990387-1.9660492-1.2347488-3.4499969-2.2014389-4.4436874
		C111.9694672,63.5905876,111.2494583,63.2296333,110.4748535,63.2296333"/>
	<path fill="#793983" d="M132.2476959,89.4495621h-0.0427094c-0.4136658-0.0263672-0.7608032-0.1858063-1.0376129-0.4789581
		c-0.2780914-0.2906342-0.4023895-0.6427917-0.3741455-1.0570984c0.0552521-1.4688797,0.0828552-2.7896271,0.0828552-3.9697571
		c0-1.1763611-0.0137939-2.5115433-0.0401611-4.0086746c-0.0288696-1.4965057-0.0847321-3.0206299-0.1676025-4.5730057
		c-0.1381073-1.8266907-0.2987976-3.4474869-0.4783325-4.8592529c-0.1795349-1.4142761-0.4230957-2.6477661-0.7262878-3.6985779
		c-0.3327026-1.2196808-0.6660004-2.0419998-0.9980927-2.4726257c-0.3301849-0.4293633-0.5680923-0.6572342-0.7049255-0.6854782
		c-0.027626,0-0.0634079,0.0069046-0.1048279,0.0207176c-0.0401917,0.0150642-0.1042099,0.0621452-0.1870651,0.1437416
		c-0.1669922,0.141243-0.3804169,0.4243546-0.642807,0.853714c-0.264267,0.4306259-0.5410995,1.1211243-0.8311157,2.0777817
		c-0.291893,0.9554062-0.5825195,2.2290649-0.8737946,3.8216171c-0.2906265,1.594429-0.5480042,3.6088104-0.7689514,6.0456619
		c-0.1381073,1.4130173-0.241684,2.7695389-0.3126221,4.0733337c-0.0677948,1.3006516-0.1242905,2.4581833-0.1657257,3.4694595
		c-0.0401688,1.010643-0.0759583,2.1248627-0.1035614,3.3451691c0,0.3885574-0.1387329,0.7269058-0.4149399,1.01754
		c-0.2780762,0.2919006-0.6082611,0.4369049-0.9968414,0.4369049h-0.0414124c-0.3885803,0-0.7206421-0.1399841-0.9974747-0.4161835
		c-0.2780838-0.2761993-0.4312363-0.6076431-0.4575958-0.997467l-0.6647797-25.6785049
		c-0.0263596-0.3866882,0.1035767-0.7288017,0.3954697-1.0188065c0.2887497-0.2893791,0.6289978-0.4494553,1.0175552-0.4789543
		c0.3873062,0,0.7268982,0.1399765,1.0175476,0.4161797c0.291893,0.2787132,0.4494553,0.6114082,0.4783249,0.99683
		l0.1249237,4.1580772c0.6095276-2.0231667,1.3697052-3.4499931,2.285553-4.2804794
		c0.4701614-0.4161873,0.9277802-0.6804581,1.3703384-0.7909431c0.442543-0.1098442,0.8292236-0.1374702,1.1644211-0.0834846
		c0.3867035,0.0276222,0.8374023,0.1676025,1.3490143,0.4149246c0.5134735,0.2517204,1.0056152,0.7357063,1.475769,1.456337
		c0.5266876,0.8034935,0.9968414,1.9384232,1.4130249,3.4079361c0.3057098,1.1355591,0.561203,2.4644699,0.7683411,3.9879684
		c0.2077789,1.5241241,0.3810272,3.2415924,0.5191345,5.1523972c0.1117401,1.6063614,0.1795349,3.1637573,0.2084045,4.6734467
		c0.0276184,1.512825,0.0345306,2.862442,0.0207214,4.0526199c-0.0138092,1.1907959-0.0345306,2.1587524-0.0608978,2.9082642
		c-0.0301361,0.7470016-0.0439453,1.1518784-0.0439453,1.2058716c-0.0263519,0.3885574-0.1814117,0.71875-0.4563446,0.9968338
		C132.9683075,89.312088,132.6349792,89.4495621,132.2476959,89.4495621"/>
	<path fill="#793983" d="M147.2460785,75.738205c0.0276184,0.4149246-0.0966797,0.7689667-0.3716125,1.0589752
		c-0.2780762,0.2900162-0.6114044,0.4507141-0.9974823,0.4770813c-0.5831451,0.0276184-1.1361847,0.0508423-1.6634674,0.0640259
		c-0.5247803,0.0131836-1.0244446,0.0351486-1.4971313,0.0608902c0,1.3037949,0.006897,2.5410461,0.0232239,3.7186661
		c0.0125427,1.1769867,0.0263672,2.2391052,0.0401764,3.1794434c0.0138092,0.9428482,0.0263519,1.7312851,0.0414276,2.3684235
		c0.0138092,0.6390305,0.0207062,1.0395203,0.0207062,1.2058716v0.1242828c0,0.3879395-0.144989,0.7275467-0.4368896,1.0175552
		c-0.2887573,0.2906342-0.6289825,0.4362717-1.0162964,0.4362717c-0.471405,0-0.8599854-0.1939697-1.1644287-0.5812836
		c-0.1381073-0.1945953-0.2222137-0.3734894-0.2485809-0.5404739c-0.0276184-0.1657181-0.0414276-0.3596878-0.0414276-0.5819016
		v-0.373497c0-0.1380997-0.0150757-0.291893-0.0414429-0.4576187v-1.2680054c0-0.4839859-0.0150604-1.0457993-0.0433044-1.6823196
		c0-0.9679565-0.0050201-2.008728-0.0200806-3.1173019c-0.0125732-1.1073151-0.0213623-2.2428741-0.0213623-3.405426
		c-0.5806427-0.0276184-1.1625519-0.0483398-1.7431946-0.0627747c-0.580658-0.0150681-1.1782532-0.0483398-1.7865143-0.1048279
		c-0.3898163-0.0539932-0.7218933-0.2266159-0.9999695-0.5185089c-0.2761993-0.291893-0.3873138-0.6440506-0.332077-1.0589752
		c0.0282593-0.3891983,0.193985-0.7137299,0.4996796-0.9780045c0.3044434-0.2611313,0.6509552-0.3785248,1.0382538-0.3540421
		c0.5542908,0.0564957,1.1016693,0.0929108,1.64151,0.1067123c0.5404663,0.0138168,1.0878601,0.0332718,1.6421356,0.062149
		c0-1.2466736-0.0062561-2.6257935-0.0219727-4.1354828c-0.0137939-1.5103149-0.0194397-2.9302368-0.0194397-4.25914v-2.5134201
		c0-0.596344,0.0056458-1.0439224,0.0194397-1.3508797c0.0157166-0.3031921,0.0295258-0.5046959,0.0433197-0.6032448
		c0.0138092-0.0947876,0.0345306-0.1726227,0.0602722-0.2266083c0.1123657-0.3885651,0.3339539-0.6873627,0.6666565-0.893261
		c0.3320618-0.2084045,0.6898651-0.256115,1.0803223-0.1468849c0.386673,0.1110992,0.6785736,0.3195076,0.8725281,0.623333
		c0.1920929,0.3063278,0.2623901,0.650959,0.2059021,1.0407791c0,0.1638298-0.0069122,0.6289825-0.0194702,1.3897858
		c-0.0138092,0.760807-0.0207062,1.7199745-0.0207062,2.867466c0,1.1500015,0.006897,2.4305649,0.0207062,3.8423309
		c0.012558,1.4149017,0.0194702,2.8542862,0.0194702,4.3244247c0.4726715-0.0295029,0.9579163-0.0502167,1.4557037-0.0640335
		c0.4996643-0.0138016,1.0231934-0.0351486,1.579361-0.0640259c0.4161835-0.0244827,0.7683411,0.0985565,1.0589905,0.3747559
		C147.0608978,75.0181961,147.2197113,75.3496399,147.2460785,75.738205"/>
	<path fill="#793983" d="M149.8233948,67.3863297c0.4161835,0,0.7620544,0.1437531,1.038269,0.4356461
		c0.2780914,0.2931519,0.4149323,0.6314926,0.4149323,1.0194321c-0.0539856,2.0206604-0.088501,3.8938065-0.1023254,5.6062469
		c-0.0150757,1.7199783-0.0345154,3.396019-0.0634003,5.0306244c-0.0263672,1.3301544-0.0552368,2.6854248-0.0828552,4.070816
		c-0.0276184,1.3853989-0.0552521,2.8680954-0.081604,4.4468384c0,0.3873062-0.1468964,0.7193756-0.4387817,0.9968338
		c-0.2887573,0.276825-0.630249,0.4161835-1.0175629,0.4161835c-0.4142914,0-0.7620544-0.1475143-1.0382538-0.4381561
		c-0.2761993-0.2906342-0.4161835-0.6289825-0.4161835-1.0162888c0.0288696-1.5793762,0.0565033-3.0683441,0.0841217-4.468811
		c0.0263519-1.3966904,0.0558624-2.7601166,0.0834808-4.0915298c0.0269928-1.6327286,0.0546265-3.3024902,0.0828552-5.0061417
		c0.0276184-1.7042847,0.0539856-3.5680161,0.0841217-5.5899277c0-0.3873138,0.1450195-0.7275391,0.4356384-1.0175476
		C149.095871,67.4911652,149.434845,67.3568268,149.8233948,67.3863297 M149.9062653,63.3129959
		c-0.3885651,0-0.7131042-0.1286774-0.9773712-0.394207c-0.2630157-0.2630234-0.3942261-0.5888138-0.3942261-0.9767494
		c0-0.3866768,0.1312103-0.720005,0.3942261-0.9962082c0.264267-0.276825,0.5888062-0.4155579,0.9773712-0.4155579
		s0.7124634,0.1387329,0.9748535,0.4155579c0.2642822,0.2762032,0.3954773,0.6095314,0.3954773,0.9962082
		c0,0.3879356-0.1311951,0.713726-0.3954773,0.9767494C150.6187286,63.1843185,150.2948303,63.3129959,149.9062653,63.3129959"/>
	<path fill="#793983" d="M165.4043427,72.7886887c0.0552368,1.1613007,0.1186371,2.583107,0.1876831,4.2591476
		c0.0696869,1.676033,0.0966797,3.3639984,0.0828705,5.0676575c-0.0131836,1.7049103-0.0897675,3.2836456-0.2278595,4.7374649
		c-0.1399841,1.4544525-0.3885803,2.5561142-0.7482758,3.3024826c-0.3898163,0.8606186-0.9428406,1.5674438-1.6615753,2.1198425
		c-0.7206421,0.5549164-1.5517578,0.9146042-2.4946136,1.0815811c-0.3860474,0.0828629-0.7884216,0.1217728-1.202713,0.1217728
		c-0.8882446,0-1.7036591-0.1380997-2.4531708-0.4124146c-1.3289032-0.473938-2.5623932-1.23349-3.6960602-2.2861862
		c-0.3057098-0.2774582-0.4733124-0.6170578-0.5009308-1.0194321c-0.0269928-0.3998642,0.09729-0.7526474,0.3734894-1.057724
		c0.3057098-0.304451,0.6515808-0.4632645,1.0395355-0.4789581c0.3891754-0.0131836,0.7344208,0.1192703,1.0401306,0.3942184
		c0.8022461,0.7482452,1.6258087,1.2906036,2.4726257,1.6220474c0.8442993,0.3320694,1.6408844,0.4274826,2.3878937,0.2887573
		c0.970459-0.2209625,1.6634674-0.7601776,2.077774-1.6189194c0.0834808-0.1945953,0.1732483-0.4218292,0.2699127-0.6861038
		c0.0966797-0.2611389,0.1864471-0.6509552,0.269928-1.1638107c0.0828705-0.5122299,0.1450195-1.1908035,0.1864319-2.0369797
		c0.0426941-0.8417816,0.062149-1.9578857,0.062149-3.3432846v-1.1851501c0-0.1506577-0.0056305-0.2611389-0.019455-0.3314438
		c-0.0150757-0.0709305-0.0276184-0.1996155-0.0426941-0.3942108c-0.0125427-0.1939774-0.0332489-0.6666565-0.0608826-1.4130173
		c-0.276825,0.0288696-0.5392151,0.0495834-0.7909393,0.0615158c-0.2485809,0.0156937-0.4977875,0.0207138-0.7463684,0.0207138
		c-1.1355591,0-2.1612701-0.1795273-3.0752411-0.5404739c-1.5781097-0.6095276-2.8254089-1.6327286-3.7406464-3.0733643
		c-1.0796967-1.7162094-1.5787201-3.6847687-1.4946136-5.90065c0.0552368-1.0539627,0.2485809-2.0715103,0.5806427-3.0557861
		c0.3333282-0.9798889,0.8022308-1.8467789,1.4149017-2.59692c0.4682922-0.6352577,1.0162811-1.1556396,1.6396332-1.5548782
		c0.6239471-0.4029999,1.2943878-0.7156105,2.014389-0.9346886c1.2215576-0.3628273,2.5793304-0.3766403,4.0726929-0.0445671
		c0.3056946-0.2485886,0.6220703-0.3747559,0.9553986-0.3747559c0.3885803,0,0.7269287,0.1393585,1.0188141,0.419323
		c0.2906342,0.2749405,0.4368896,0.6208229,0.4368896,1.0363808c0.0263672,1.5781059,0.0747223,3.296833,0.1450195,5.1511421
		C165.244278,68.827095,165.3227386,70.7661514,165.4043427,72.7886887 M156.8465271,73.2450485
		c1.2171631,1.9108124,3.1442719,2.6295624,5.7744598,2.1606445l-0.1249084-2.4920883
		c-0.0565033-1.6641006-0.1173859-3.2786255-0.1864471-4.842926c-0.069046-1.5649261-0.1186371-3.0539017-0.1450043-4.4644012
		c-2.1336365-0.5561714-3.7958679-0.0721931-4.9866791,1.453186c-0.4155426,0.5542831-0.7407074,1.1776199-0.9773712,1.8712616
		c-0.2335052,0.6904984-0.3659668,1.4054794-0.3942108,2.137413c-0.0276184,0.7357025,0.0420532,1.4695206,0.2090454,2.2027054
		C156.1811066,72.0052872,156.4579468,72.6625214,156.8465271,73.2450485"/>
	<path fill="#793983" d="M176.0843811,89.4090805c-1.6911011,0-3.2145996-0.7061996-4.571106-2.1198425
		c-1.2472992-1.3006516-2.215271-3.0595551-2.9082642-5.276062c-0.6936493-2.3269958-0.9981079-4.9860535-0.9133606-7.9771805
		c0.138092-4.1009521,0.9673309-7.4115982,2.4914551-9.9350739c0.6936493-1.1336784,1.5373077-2.0476456,2.5341492-2.7406616
		c1.0263214-0.6911278,2.0922089-1.0382576,3.201416-1.0382576c1.5222473,0,2.935257,0.6497002,4.2384186,1.9534912
		c1.273056,1.3031693,2.2284393,3.1016045,2.8655853,5.4016075c0.6377716,2.300621,0.9146118,4.959053,0.8317566,7.9765472
		c-0.0263824,1.0815811-0.0904083,2.1072922-0.1870728,3.0752487c-0.0966797,0.9704666-0.25737,1.8856964-0.4783478,2.7425461
		c-0.3872833,1.6615982-0.9139709,3.0746155-1.579361,4.2390594c-0.7187347,1.2184219-1.5498505,2.1418076-2.4927063,2.7626343
		C178.1734619,89.0964661,177.1659698,89.4090805,176.0843811,89.4090805 M175.9186707,63.2296333
		c-0.5825348,0-1.157547,0.2090416-1.7243652,0.6239662c-0.5681,0.4161911-1.0878601,1.0112686-1.556778,1.7865143
		c-0.4168091,0.7200089-0.8493195,1.7589035-1.2918549,3.1166763c-0.4406891,1.3577805-0.6911469,3.1430435-0.7463837,5.3608093
		c-0.0828552,2.4380951,0.138092,4.6401672,0.6635132,6.6049652c0.5254059,1.9691849,1.3037872,3.4776154,2.3288879,4.5303192
		c0.7739716,0.8292313,1.6050873,1.2454147,2.492691,1.2454147c0.5530396,0,1.1060638-0.2121735,1.660965-0.6427994
		c0.5568237-0.4299927,1.060257-1.0947571,1.5178528-1.99366c0.4576111-0.9001617,0.8367767-2.0281982,1.1424713-3.3859711
		c0.3057098-1.3571548,0.4852448-2.977951,0.5392303-4.8630219c0.056488-2.602562-0.1644592-4.8893814-0.6635132-6.8560562
		c-0.4984283-1.9660492-1.2341156-3.4499969-2.2014465-4.4436874
		C177.4132843,63.5905876,176.6926422,63.2296333,175.9186707,63.2296333"/>
	<path fill="#793983" d="M210.4245605,88.973999c-0.2347717,0.3439941-0.5461121,0.5461273-0.9346771,0.6013641h-0.2498474
		c-0.3295441,0-0.6365204-0.1111069-0.9127197-0.3333206c-0.2780762-0.2197037-0.4438019-0.5134888-0.4977875-0.8725433
		c0-0.0263672-0.0571289-0.3735046-0.1663361-1.038269c-0.1104736-0.66539-0.2774658-1.5655518-0.499054-2.7017441
		c-0.4990387,0.0552368-1.0049896,0.1035767-1.5165863,0.1462631c-0.51474,0.0414276-1.0056305,0.0621414-1.4739227,0.0621414
		c-0.6390076,0-1.2761688-0.0207138-1.9126892-0.0621414c-0.6371307-0.0426865-1.2611084-0.0910263-1.8693695-0.1462631
		c-0.1393433,0.8857269-0.2498322,1.6214218-0.3333282,2.2027054c-0.0828552,0.5812759-0.1242981,0.9428482-0.1242981,1.0809479
		c0,0.3879318-0.1399689,0.7275391-0.4161682,1.0175476c-0.2768402,0.2900085-0.6220856,0.4356384-1.038269,0.4356384
		c-0.3873138,0-0.7262878-0.1456299-1.016922-0.4356384c-0.292511-0.2900085-0.4381409-0.6296158-0.4381409-1.0175476
		c0-0.304451,0.0696716-0.9359436,0.2090149-1.8900909c0.1381073-0.9554062,0.3113556-2.0922241,0.5197601-3.4085693
		c0.2071686-1.3163528,0.4412994-2.72686,0.7049561-4.2378006c0.2630157-1.5103226,0.5341797-2.9710464,0.810379-4.3846893
		c0.1092377-0.6088943,0.2353973-1.2667618,0.3753815-1.9735794c0.1362305-0.7049408,0.2831116-1.4324799,0.4350281-2.1807327
		c0.1537933-0.7488785,0.3057098-1.4958725,0.4576263-2.2453842c0.1512756-0.7476273,0.3113556-1.4531937,0.4770508-2.1185837
		c0.2768402-1.1901703,0.527298-2.1606483,0.7482605-2.9076462c0.1104889-0.3609428,0.2919006-0.7758675,0.5404816-1.2472954
		c0.2492065-0.4701653,0.66539-0.7344437,1.2460327-0.7884254c0.1669922-0.0288811,0.4230957,0,0.7702332,0.0822296
		c0.345871,0.0828629,0.656601,0.4023781,0.9346771,0.9566612c0.1368561,0.2768326,0.2623901,0.6220779,0.3735046,1.0401459
		c0.2209625,0.6346321,0.4839783,1.6603432,0.7896729,3.0733604c0.2761993,1.0803223,0.5681,2.3822327,0.8719177,3.9051056
		c0.3044586,1.5234909,0.6503448,3.2397079,1.0388947,5.1517715c0.303833,1.6346054,0.5957184,3.2353134,0.8737946,4.8008728
		c0.2768402,1.5643005,0.5241699,2.9647598,0.7451324,4.1951065c0.2240906,1.23349,0.4745636,2.6119843,0.7494965,4.136116
		C210.7509766,88.2590179,210.6612244,88.6249847,210.4245605,88.973999 M200.8479462,81.7224731
		c0.9691925,0.1092224,1.9371643,0.1782761,2.9107666,0.2077789c0.9679565,0.0257339,1.9359131-0.0295029,2.9063873-0.1676025
		c-0.138092-0.8311157-0.2969208-1.7030258-0.4770813-2.6170044c-0.1814117-0.9139709-0.3540344-1.8574524-0.5184937-2.8254089
		c-0.3622131-1.8003311-0.6873627-3.4261475-0.9761353-4.8824768c-0.2931366-1.4544449-0.5618134-2.7507095-0.8116455-3.8869019
		c-0.0565033-0.1368408-0.0916443-0.276825-0.1035614-0.414299c-0.0138245-0.1387329-0.0345459-0.2787094-0.0627747-0.4161835
		c-0.222229,0.969841-0.4764557,2.1675491-0.7696075,3.5943756c-0.2906342,1.4287109-0.6283722,3.1361389-1.0181885,5.1329422
		c-0.2209473,1.1619263-0.4218292,2.2704926-0.6013489,3.3244553
		C201.1454773,79.8242188,200.9860229,80.8085022,200.8479462,81.7224731"/>
	<path fill="#793983" d="M213.8123016,89.3662033c-0.499054,0-0.9290466-0.1795349-1.2887268-0.5404739
		c-0.360321-0.3584366-0.5404816-0.7878036-0.5404816-1.2874756c0-0.5241547,0.1801605-0.9692078,0.5404816-1.3270187
		c0.3596802-0.3615723,0.7896729-0.5410995,1.2887268-0.5410995c0.4983978,0,0.9265137,0.1795273,1.2874756,0.5410995
		c0.3596802,0.357811,0.5404663,0.8028641,0.5404663,1.3270187c0,0.4996719-0.1807861,0.929039-0.5404663,1.2874756
		C214.7388153,89.1866684,214.3106995,89.3662033,213.8123016,89.3662033"/>
	<path fill="#793983" d="M224.990387,89.4090729c-0.1129913,0-0.2153168-0.0081558-0.3126068-0.021965
		c-0.0979309-0.0138168-0.2002563-0.0207138-0.31073-0.0207138c-1.0539703-0.1381073-2.0313263-0.5323181-2.9302368-1.1838989
		c-0.9014282-0.649704-1.6703949-1.5304108-2.3062897-2.6377182c-0.3609314-0.5549164-0.66539-1.1713409-0.9139709-1.8492889
		c-0.2492065-0.6804581-0.4726715-1.4061127-0.66539-2.1813583c-0.1933441-0.8034973-0.3314514-1.6622314-0.4130402-2.5768356
		c-0.0847473-0.9152298-0.1399841-1.8555679-0.1688538-2.8260345c0-2.0777817,0.1688538-4.0356674,0.4977875-5.8805618
		c0.3333282-1.8405075,0.8173065-3.4826431,1.4550629-4.921402c0.6923828-1.5247459,1.4889832-2.7168045,2.3891449-3.5742798
		c0.901413-0.8587341,1.8637238-1.330162,2.8869171-1.4130249c0.8034973-0.0834846,1.5649414,0.1123657,2.2868195,0.5819054
		c0.3596954,0.1933403,0.6861267,0.4444389,0.9767456,0.7482567c0.2912598,0.3057022,0.5750122,0.6509552,0.8530884,1.0370026
		c0.9955902,1.5234985,1.7450867,3.756958,2.2428741,6.6909637c0.0552368,0.3885727-0.035141,0.7482605-0.2699127,1.0815811
		c-0.2360229,0.3301849-0.5473785,0.5404739-0.9359436,0.6239624c-0.3873138,0.0564957-0.746994-0.0364075-1.0796967-0.2730637
		c-0.3308105-0.2347717-0.527298-0.5461197-0.5812836-0.9328079c-0.389801-2.3552399-0.9026794-4.0657959-1.5372925-5.1316757
		c-0.6390381-1.0671463-1.219696-1.572464-1.7463531-1.5184822c-0.3320618,0.0295029-0.7551575,0.2849884-1.2680054,0.7695961
		c-0.513504,0.4833527-1.0301208,1.3100662-1.5574036,2.4732513c-0.5542908,1.2749176-0.97612,2.7343903-1.2661285,4.3840561
		c-0.2919006,1.6459122-0.4381561,3.3853455-0.4381561,5.2120361c0.0269928,2.1330261,0.2291107,3.8398209,0.6038818,5.1134872
		c0.3722229,1.2736588,0.753891,2.2284317,1.1424713,2.8649521c0.8292084,1.4682617,1.8567963,2.2717514,3.0752258,2.4117355
		c0.8857422,0.1104813,1.6961212-0.1939697,2.4305725-0.9139709c0.7325592-0.7206345,1.2529602-1.7180939,1.5586548-2.9923859
		c0.109848-0.3885651,0.3370819-0.6848526,0.6854706-0.8951416c0.3458862-0.2058945,0.7118378-0.2674103,1.1004181-0.1858063
		c0.3885651,0.1111069,0.6848602,0.3345718,0.8932648,0.6647644c0.2077789,0.3314362,0.2699127,0.6930161,0.1883087,1.0815735
		c-0.2504578,0.9692154-0.6045074,1.8568268-1.0602264,2.6596909c-0.4576263,0.8034973-1.0056152,1.4808121-1.6434021,2.0357285
		C227.6908722,88.9087753,226.4021454,89.4090729,224.990387,89.4090729"/>
	<path fill="#793983" d="M234.7526398,89.3662033c-0.4965363,0-0.9277954-0.1795349-1.2862244-0.5404739
		c-0.3621826-0.3584366-0.5404663-0.7878036-0.5404663-1.2874756c0-0.5241547,0.1782837-0.9692078,0.5404663-1.3270187
		c0.358429-0.3615723,0.7896881-0.5410995,1.2862244-0.5410995c0.5003052,0,0.9290314,0.1795273,1.2899933,0.5410995
		c0.3578033,0.357811,0.5391998,0.8028641,0.5391998,1.3270187c0,0.4996719-0.1813965,0.929039-0.5391998,1.2874756
		C235.6816711,89.1866684,235.2529449,89.3662033,234.7526398,89.3662033"/>
	<path fill="#793983" d="M185.749054,89.4508209c-0.2768402,0-0.5034485-0.0954132-0.6760864-0.2862396
		c-0.1738586-0.190834-0.2554779-0.407402-0.2473145-0.649704c0.0087891-0.2435608,0.1085968-0.4513397,0.2987976-0.6252213
		c0.1738739-0.1544189,0.2693024-0.3333206,0.2862549-0.5323105c0.0169373-0.1989899,0.0169373-0.3678513,0-0.5078354
		c-0.0514832-0.3289261-0.1513062-0.6063843-0.2988129-0.8323669c-0.1475067-0.2253494-0.2724304-0.3634567-0.3772736-0.4161835
		c-0.2422943-0.1198959-0.4029999-0.298172-0.480835-0.5316849c-0.0771942-0.2341461-0.0571289-0.4638901,0.0646515-0.6904984
		c0.1211548-0.2241058,0.2994537-0.3760147,0.5329437-0.4551086c0.2341614-0.0772095,0.4638977-0.0552444,0.68927,0.0652847
		c0.4167938,0.2077789,0.7758636,0.5505142,1.0796661,1.0275955c0.303833,0.4764481,0.4984283,1.0005951,0.5850525,1.573082
		c0.0866241,0.5203934,0.0521088,1.0100174-0.104187,1.4688873c-0.1557007,0.4607544-0.4067841,0.8461838-0.7539215,1.1587906
		C186.1909637,89.371727,185.9919739,89.4508209,185.749054,89.4508209"/>
	<path fill="#793983" d="M248.7571411,85.9091721c0,1.8467789-1.4494171,3.2962036-3.3357391,3.2962036
		c-1.8668671,0-3.3558502-1.4494247-3.3558502-3.2962036c0-1.8066101,1.4889832-3.2566605,3.3558502-3.2566605
		C247.307724,82.6525116,248.7571411,84.102562,248.7571411,85.9091721 M242.8991852,85.9091721
		c0,1.4494247,1.0727844,2.6006851,2.5416718,2.6006851c1.4299622,0,2.4820251-1.1512604,2.4820251-2.5805969
		c0-1.450058-1.052063-2.6213989-2.5014801-2.6213989C243.9719696,83.3078613,242.8991852,84.4792023,242.8991852,85.9091721
		 M244.9054108,87.6165924h-0.7545319v-3.2560272c0.2975464-0.059639,0.7143555-0.0991821,1.2510529-0.0991821
		c0.6151886,0,0.8932648,0.0991821,1.1318054,0.2385406c0.1789093,0.1380997,0.3170013,0.3960876,0.3170013,0.7143555
		c0,0.3578033-0.2774658,0.6352615-0.6748199,0.7538986v0.0401764c0.3176422,0.1192627,0.4965515,0.3571777,0.5950928,0.7947006
		c0.0998077,0.4965363,0.1594391,0.6942749,0.2385406,0.8135376h-0.8141632
		c-0.0991821-0.1192627-0.1588135-0.4168091-0.2580109-0.794075c-0.0589905-0.3578033-0.2579803-0.5159912-0.6747894-0.5159912
		h-0.3571777V87.6165924z M244.9248657,85.7704391h0.3571625c0.41745,0,0.7545471-0.1393509,0.7545471-0.477066
		c0-0.2975464-0.2178345-0.4965363-0.6949158-0.4965363c-0.198349,0-0.3370819,0.0200882-0.4167938,0.0401688V85.7704391z"/>
	<path fill="#231F20" d="M107.2425537,4.0782852c0.2391586-0.3502717,0.7011642-0.5247805,1.3853836-0.5247805
		c0.0652924,0,0.1312027,0.0018871,0.1996231,0.0056512c0.0684204,0.0043967,0.1468887,0.0094156,0.2335129,0.0169539v0.9353099
		c-0.1067123-0.0069056-0.1845474-0.0119247-0.2335129-0.0138021c-0.0477066-0.0018873-0.0928955-0.0031419-0.1349564-0.0031419
		c-0.3151169,0-0.5040741,0.0809755-0.5655823,0.2423043c-0.0608902,0.1619515-0.0916595,0.5731134-0.0916595,1.2353725h1.0257111
		V6.781919h-1.0257111v5.269156h-1.0150299V6.781919h-0.8505783V5.9721527h0.8505783V5.0136051
		C107.0347672,4.5880089,107.1088409,4.2760215,107.2425537,4.0782852"/>
	<path fill="#231F20" d="M118.0427017,5.9430728v4.0551343c0,0.3113546,0.047699,0.5662165,0.1437302,0.7639427
		c0.1782761,0.3653393,0.5097275,0.548008,0.9943314,0.548008c0.6967697,0,1.1707077-0.3195152,1.4224319-0.9585371
		c0.1368561-0.3421116,0.2052612-0.8122854,0.2052612-1.4086266V5.9430728h1.0263443v6.1078105h-0.9692154l0.0112991-0.9007893
		c-0.1305695,0.2316246-0.2931519,0.4281054-0.487114,0.5869246c-0.3841705,0.3195162-0.8505859,0.4795809-1.3985825,0.4795809
		c-0.8549652,0-1.4362411-0.2912598-1.7463455-0.8725433c-0.1676025-0.3119774-0.2517242-0.7281685-0.2517242-1.2491751V5.9430728
		H118.0427017z"/>
	<path fill="#231F20" d="M130.5200043,5.9430728h0.9754791v0.8669009c0.2887573-0.3571777,0.5950928-0.6139169,0.9183807-0.7702265
		c0.3226318-0.1556773,0.6823273-0.2335114,1.0771637-0.2335114c0.8668976,0,1.4525757,0.3025622,1.7563934,0.9070635
		c0.1676025,0.3308182,0.251709,0.8041248,0.251709,1.419929v3.917655h-1.0438995V8.2016468
		c0-0.3728681-0.0552368-0.6735525-0.1651001-0.9014225c-0.182663-0.3797731-0.5141144-0.5699711-0.9924316-0.5699711
		c-0.2435608,0-0.4431763,0.0244823-0.5988617,0.0740695c-0.2818604,0.0834851-0.5285339,0.2504654-0.7419739,0.5021853
		c-0.1707306,0.2008681-0.2818451,0.4092746-0.333313,0.6239552c-0.0508575,0.2153125-0.0765991,0.5222707-0.0765991,0.9215074
		v3.1989126h-1.026947V5.9430728z"/>
	<path fill="#231F20" d="M147.3789825,6.1312113c0.1820221,0.1142411,0.3891754,0.3138647,0.6195679,0.5988503V3.6447773h0.9867859
		v8.4065466h-0.9240112V11.201376c-0.2385406,0.3766422-0.5210266,0.6478157-0.8461914,0.8154182
		c-0.326416,0.1676025-0.6992798,0.2510967-1.119873,0.2510967c-0.6779327,0-1.2648621-0.2862492-1.7607727-0.8587303
		c-0.4959106-0.5718679-0.7444916-1.3333015-0.7444916-2.283679c0-0.8894968,0.2266083-1.660346,0.6785736-2.3125577
		c0.4532318-0.6522112,1.0997925-0.9786329,1.9403076-0.9786329C146.6746521,5.834291,147.0644836,5.9341073,147.3789825,6.1312113
		 M145.0877686,10.7111168c0.2761841,0.4406719,0.7193756,0.6616268,1.3276367,0.6616268
		c0.4733124,0,0.8618622-0.20401,1.1663208-0.6132851c0.3044434-0.4086523,0.4569855-0.9955778,0.4569855-1.7595301
		c0-0.771472-0.1575623-1.3427081-0.4714203-1.7136979c-0.3138733-0.3709903-0.7011871-0.556169-1.1625519-0.556169
		c-0.5153809,0-0.9321899,0.1983685-1.251709,0.5938311c-0.3195038,0.3948402-0.4789581,0.9767466-0.4789581,1.7444639
		C144.6740723,9.7224445,144.8121796,10.2698307,145.0877686,10.7111168"/>
	<path fill="#231F20" d="M160.8009644,8.3546896c0.2360077-0.0301237,0.3935699-0.1286755,0.4732971-0.2962885
		c0.046463-0.0910134,0.069046-0.2228408,0.069046-0.3948398c0-0.3508945-0.1249237-0.6057563-0.3728638-0.7639432
		c-0.2492218-0.1581869-0.6044922-0.2379079-1.0671539-0.2379079c-0.5354462,0-0.9145813,0.1450071-1.1387024,0.4356441
		c-0.1248932,0.1606965-0.2064972,0.3992367-0.2441711,0.7168655h-0.9585419
		c0.0188293-0.7551599,0.2630157-1.2805634,0.7319183-1.5762291c0.4689178-0.2956557,1.0125275-0.4431725,1.6320953-0.4431725
		c0.7174988,0,1.3006592,0.1374688,1.7488708,0.4105296c0.4444275,0.2743154,0.6660156,0.6992893,0.6660156,1.277431v3.5196738
		c0,0.1060896,0.022583,0.1914616,0.0659027,0.2561159s0.1362305,0.0966749,0.2761993,0.0966749
		c0.046463,0,0.0973053-0.0031414,0.1544342-0.0081606c0.056488-0.0056515,0.1180115-0.0144444,0.1826782-0.0257378v0.7589245
		c-0.1594543,0.0451908-0.2818604,0.0734377-0.3653412,0.0847397c-0.0835114,0.0119257-0.1977386,0.0175772-0.3414917,0.0175772
		c-0.3540344,0-0.6107788-0.1261768-0.7702179-0.3766413c-0.0841217-0.1330729-0.1431427-0.321394-0.1770325-0.5643206
		c-0.2090302,0.2736835-0.5097198,0.5109682-0.901413,0.7124691c-0.3917084,0.2021227-0.8229675,0.3025618-1.2943878,0.3025618
		c-0.5668335,0-1.0294647-0.171999-1.3885193-0.5153646c-0.3590851-0.343998-0.5392303-0.7739916-0.5392303-1.2906113
		c0-0.5655842,0.1770325-1.0043602,0.5304413-1.3157158c0.3540344-0.3113546,0.8179321-0.5034399,1.3916779-0.5756321
		L160.8009644,8.3546896z M158.6396942,11.1279964c0.2171783,0.1701221,0.4732971,0.2561169,0.7702179,0.2561169
		c0.3609314,0,0.7105713-0.0841179,1.0489197-0.2504654c0.5706024-0.2774572,0.8556061-0.7306776,0.8556061-1.3609161v-0.826088
		c-0.1249237,0.0803528-0.2862396,0.1475163-0.4839783,0.2008677c-0.1970978,0.0533619-0.3904572,0.0910234-0.580658,0.1136189
		l-0.6201782,0.079731c-0.3716278,0.0495872-0.6516113,0.1274214-0.8386536,0.233511
		c-0.3176422,0.1789055-0.4764404,0.4632587-0.4764404,0.8537121
		C158.3145294,10.7237406,158.4231262,10.957262,158.6396942,11.1279964"/>
	<path fill="#231F20" d="M175.0661011,6.2679906c0.4312439,0.3345828,0.6911163,0.9108377,0.7783813,1.7281418h-0.9980927
		c-0.060257-0.3766317-0.1996307-0.6892414-0.4161682-0.937829c-0.216568-0.2492008-0.5643463-0.3734999-1.0439301-0.3734999
		c-0.6540985,0-1.1211243,0.3188934-1.4023438,0.9566607c-0.1826782,0.4143028-0.2743225,0.9246492-0.2743225,1.5322924
		c0,0.61203,0.1293182,1.1261406,0.3879395,1.5435858c0.2586212,0.4180679,0.6654053,0.6264744,1.220932,0.6264744
		c0.4255981,0,0.7633209-0.1293182,1.0118866-0.388567c0.2492218-0.2598801,0.4212189-0.6151714,0.5160065-1.0652599h0.9980927
		c-0.1136169,0.8097763-0.3992462,1.40172-0.8549652,1.776475c-0.4569855,0.3741312-1.0401611,0.5611877-1.7513733,0.5611877
		c-0.7984772,0-1.4349976-0.2918921-1.9101715-0.8750525c-0.4758148-0.5837831-0.713089-1.3125839-0.713089-2.1870041
		c0-1.0727892,0.2604828-1.9070473,0.7808838-2.5040102c0.5209961-0.5963507,1.1845093-0.8951483,1.9905243-0.8951483
		C174.0749207,5.7664375,174.6348419,5.9340401,175.0661011,6.2679906"/>
	<path fill="#231F20" d="M183.8795471,3.6733303h1.0438995v1.1638122h-1.0438995V3.6733303z M183.8795471,5.9720759h1.0438995
		v6.079555h-1.0438995V5.9720759z"/>
	<path fill="#231F20" d="M197.9073944,6.5532255c0.5398407,0.524158,0.8097687,1.2950072,0.8097687,2.3125572
		c0,0.9842844-0.237915,1.7978153-0.7137299,2.4393568c-0.4758148,0.6415405-1.214035,0.9629335-2.2139893,0.9629335
		c-0.8348999,0-1.4971466-0.2843628-1.9873962-0.8518248c-0.4915161-0.5680943-0.7363434-1.3301601-0.7363434-2.2880754
		c0-1.0257111,0.2586365-1.8423829,0.7752686-2.450026c0.5172424-0.6076436,1.2121429-0.9114604,2.0840454-0.9114604
		C196.7065582,5.7666864,197.3675385,6.0284448,197.9073944,6.5532255 M197.2702332,10.6121235
		c0.2498474-0.5147324,0.3747711-1.0872231,0.3747711-1.7174616c0-0.5693493-0.0904083-1.0326171-0.2705536-1.3897953
		c-0.2856293-0.56182-0.7783966-0.8430414-1.4776764-0.8430414c-0.6201935,0-1.0715332,0.2391624-1.3533936,0.7174978
		c-0.2818451,0.4789572-0.4230957,1.0558348-0.4230957,1.7319059c0,0.6490698,0.1412506,1.1901722,0.4230957,1.6233063
		c0.2818604,0.4325027,0.7294464,0.6496925,1.3420868,0.6496925
		C196.5583954,11.3842278,197.0197906,11.1268663,197.2702332,10.6121235 M197.1371765,3.4848852l-1.5228882,1.6484213h-0.7865295
		l1.0432739-1.6484213H197.1371765z"/>
	<path fill="#231F20" d="M206.9858856,5.9430728h0.9754791v0.8669009c0.2887573-0.3571777,0.5950928-0.6139169,0.9183807-0.7702265
		c0.3226318-0.1556773,0.6823273-0.2335114,1.0771637-0.2335114c0.8668976,0,1.4525757,0.3025622,1.7563934,0.9070635
		c0.1676025,0.3308182,0.251709,0.8041248,0.251709,1.419929v3.917655h-1.0438995V8.2016468
		c0-0.3728681-0.0552368-0.6735525-0.1651001-0.9014225c-0.182663-0.3797731-0.5141144-0.5699711-0.9924316-0.5699711
		c-0.2435608,0-0.4431763,0.0244823-0.5988617,0.0740695c-0.2818604,0.0834851-0.5285339,0.2504654-0.7419739,0.5021853
		c-0.1707306,0.2008681-0.2818451,0.4092746-0.333313,0.6239552c-0.0508575,0.2153125-0.0765991,0.5222707-0.0765991,0.9215074
		v3.1989126h-1.026947V5.9430728z"/>
</g>
</svg>
