<?xml version="1.0" encoding="utf-8"?>
<!-- Generator: Adobe Illustrator 18.1.1, SVG Export Plug-In . SVG Version: 6.00 Build 0)  -->
<svg version="1.1" id="Capa_1" xmlns="http://www.w3.org/2000/svg" xmlns:xlink="http://www.w3.org/1999/xlink" x="0px" y="0px"
	 viewBox="0 0 280.484 62.167" enable-background="new 0 0 280.484 62.167" xml:space="preserve">
<g>
	<g>
		<path fill="#FB9C00" d="M187.636,56.49V35.979h7.466c2.289,0,4.048,0.42,5.278,1.259c1.23,0.839,1.845,2.022,1.845,3.547
			c0,1.106-0.374,2.074-1.123,2.904c-0.749,0.83-1.705,1.406-2.868,1.73v0.057c1.459,0.181,2.625,0.72,3.498,1.616
			c0.873,0.896,1.309,1.988,1.309,3.275c0,1.879-0.672,3.369-2.017,4.47c-1.345,1.101-3.181,1.652-5.507,1.652H187.636z
			 M192.256,39.384v4.863h2.031c0.954,0,1.705-0.231,2.253-0.694c0.548-0.462,0.823-1.099,0.823-1.909
			c0-1.507-1.125-2.26-3.376-2.26H192.256z M192.256,47.679v5.407h2.503c1.068,0,1.905-0.248,2.51-0.744
			c0.605-0.496,0.908-1.173,0.908-2.031c0-0.82-0.298-1.463-0.894-1.931c-0.596-0.467-1.428-0.701-2.496-0.701H192.256z"/>
		<path fill="#FB9C00" d="M212.953,56.848c-2.441,0-4.36-0.684-5.757-2.052c-1.397-1.368-2.096-3.226-2.096-5.571
			c0-2.422,0.725-4.317,2.174-5.686c1.449-1.368,3.409-2.053,5.878-2.053c2.432,0,4.339,0.685,5.722,2.053
			c1.382,1.368,2.074,3.178,2.074,5.428c0,2.432-0.713,4.353-2.138,5.764C217.385,56.142,215.432,56.848,212.953,56.848z
			 M213.067,44.948c-1.068,0-1.897,0.367-2.489,1.102s-0.887,1.773-0.887,3.118c0,2.813,1.135,4.219,3.404,4.219
			c2.165,0,3.247-1.444,3.247-4.334C216.343,46.316,215.251,44.948,213.067,44.948z"/>
		<path fill="#FB9C00" d="M235.681,56.49h-4.277v-2.103h-0.057c-0.982,1.64-2.437,2.46-4.362,2.46c-1.421,0-2.539-0.402-3.354-1.208
			c-0.815-0.806-1.223-1.881-1.223-3.226c0-2.841,1.683-4.481,5.049-4.92l3.977-0.529c0-1.602-0.868-2.403-2.604-2.403
			c-1.745,0-3.404,0.52-4.978,1.559v-3.404c0.629-0.324,1.49-0.61,2.582-0.858c1.092-0.248,2.086-0.372,2.982-0.372
			c4.177,0,6.265,2.084,6.265,6.251V56.49z M231.433,50.54v-0.987l-2.661,0.343c-1.468,0.191-2.203,0.854-2.203,1.988
			c0,0.515,0.179,0.937,0.537,1.266c0.357,0.329,0.841,0.494,1.452,0.494c0.849,0,1.54-0.293,2.074-0.88
			S231.433,51.437,231.433,50.54z"/>
		<path fill="#FB9C00" d="M248.812,45.92c-0.543-0.295-1.178-0.443-1.902-0.443c-0.982,0-1.75,0.36-2.303,1.08
			c-0.553,0.72-0.83,1.7-0.83,2.939v6.994h-4.52V41.844h4.52v2.717h0.057c0.715-1.983,2.002-2.975,3.862-2.975
			c0.477,0,0.849,0.058,1.116,0.172V45.92z"/>
		<path fill="#FB9C00" d="M264.86,56.49h-4.52v-2.017h-0.057c-1.03,1.583-2.542,2.374-4.534,2.374c-1.831,0-3.304-0.646-4.42-1.938
			c-1.115-1.292-1.673-3.097-1.673-5.414c0-2.422,0.615-4.363,1.845-5.822s2.841-2.188,4.834-2.188c1.888,0,3.204,0.677,3.948,2.031
			h0.057v-8.711h4.52V56.49z M260.426,49.367v-1.102c0-0.953-0.277-1.745-0.83-2.374c-0.553-0.629-1.273-0.944-2.16-0.944
			c-1.001,0-1.783,0.394-2.346,1.18c-0.563,0.787-0.844,1.867-0.844,3.24c0,1.287,0.272,2.279,0.815,2.975
			c0.543,0.696,1.297,1.044,2.26,1.044c0.916,0,1.662-0.367,2.239-1.101C260.138,51.551,260.426,50.578,260.426,49.367z"/>
	</g>
	<g>
		<path fill="#FB9C00" d="M7.531,5.376h14.961c0.502,0,0.966,0.267,1.218,0.702l15.431,26.642h0.187V6.783
			c0-0.777,0.63-1.407,1.407-1.407h13.03c0.777,0,1.407,0.63,1.407,1.407v47.07c0,1.457-1.181,2.639-2.639,2.639H39.611
			c-0.495,0-0.954-0.26-1.208-0.685L22.117,28.553h-0.149v26.532c0,0.777-0.63,1.407-1.407,1.407H7.531
			c-0.777,0-1.407-0.63-1.407-1.407V6.783C6.124,6.006,6.754,5.376,7.531,5.376z"/>
		<path fill="#FB9C00" d="M174.301,57.058h-14.785c-0.278,0-0.521-0.186-0.594-0.454l-8.446-31.081h-0.144l-7.35,31.061
			c-0.066,0.278-0.314,0.474-0.599,0.474h-15.8c-0.289,0-0.539-0.201-0.601-0.483L114.87,6.124
			c-0.085-0.384,0.208-0.748,0.601-0.748h14.628c0.29,0,0.54,0.202,0.602,0.485l5.331,24.557h0.144l6.21-24.577
			c0.069-0.273,0.315-0.465,0.597-0.465h15.293c0.274,0,0.514,0.181,0.591,0.443l7.017,24.033h0.144l4.523-23.975
			c0.055-0.291,0.309-0.502,0.605-0.502h14.679c0.396,0,0.689,0.368,0.6,0.753l-11.533,50.45
			C174.837,56.859,174.588,57.058,174.301,57.058z"/>
		<g>
			<path fill="#FB9C00" d="M107.777,11.957c-4.781-4.882-11.256-7.37-19.425-7.463c-8.074,0.093-14.488,2.581-19.245,7.463
				c-4.926,4.837-7.413,11.213-7.461,19.127c0.048,7.868,2.535,14.221,7.461,19.057c4.757,4.929,11.172,7.439,19.245,7.532
				c8.169-0.093,14.644-2.603,19.425-7.532c4.805-4.836,7.232-11.189,7.281-19.057C115.009,23.17,112.582,16.794,107.777,11.957z
				 M98.853,34.562c0,5.776-4.726,10.502-10.502,10.502h0c-5.776,0-10.502-4.726-10.502-10.502v-6.957
				c0-5.776,4.726-10.502,10.502-10.502h0c5.776,0,10.502,4.726,10.502,10.502V34.562z"/>
		</g>
	</g>
</g>
<g>
	<path fill="#FB9C00" d="M264.86,27.915c0-1.237,0.286-2.386,0.859-3.444c0.572-1.06,1.366-1.895,2.379-2.505
		c1.014-0.608,2.109-0.913,3.285-0.913c1.176,0,2.27,0.305,3.281,0.913c1.01,0.61,1.802,1.445,2.374,2.505
		c0.572,1.059,0.859,2.207,0.859,3.444c0,1.207-0.276,2.338-0.827,3.391c-0.551,1.055-1.333,1.9-2.347,2.542
		c-1.014,0.64-2.127,0.959-3.34,0.959c-1.207,0-2.317-0.316-3.331-0.95c-1.014-0.634-1.799-1.478-2.356-2.533
		C265.139,30.271,264.86,29.135,264.86,27.915z M265.917,27.911c0,1.053,0.244,2.027,0.735,2.924
		c0.49,0.897,1.156,1.599,1.998,2.106c0.843,0.509,1.753,0.763,2.734,0.763c0.98,0,1.889-0.254,2.729-0.763
		c0.839-0.507,1.503-1.209,1.993-2.106c0.491-0.897,0.735-1.871,0.735-2.924c0-1.04-0.242-2.005-0.726-2.893
		c-0.483-0.886-1.147-1.586-1.989-2.097c-0.843-0.511-1.757-0.766-2.743-0.766c-0.98,0-1.893,0.252-2.738,0.757
		c-0.845,0.505-1.511,1.204-1.998,2.097C266.16,25.904,265.917,26.871,265.917,27.911z M274.306,29.128
		c0,0.937-0.266,1.652-0.795,2.147c-0.53,0.493-1.279,0.739-2.247,0.739c-0.962,0-1.732-0.323-2.311-0.969
		c-0.579-0.647-0.868-1.527-0.868-2.643v-1.011c0-1.077,0.293-1.939,0.878-2.586c0.585-0.645,1.353-0.969,2.302-0.969
		c0.98,0,1.733,0.25,2.261,0.754c0.527,0.502,0.79,1.209,0.79,2.123h-1.342c0-0.61-0.146-1.046-0.436-1.309
		c-0.291-0.261-0.715-0.391-1.273-0.391c-0.576,0-1.029,0.211-1.36,0.636c-0.331,0.423-0.496,1.013-0.496,1.77v1.04
		c0,0.739,0.165,1.32,0.496,1.742c0.331,0.425,0.784,0.636,1.36,0.636c0.563,0,0.988-0.129,1.273-0.388
		c0.285-0.259,0.427-0.698,0.427-1.321H274.306z"/>
</g>
</svg>
