<?xml version="1.0" encoding="utf-8"?>
<!-- Generator: Adobe Illustrator 18.1.1, SVG Export Plug-In . SVG Version: 6.00 Build 0)  -->
<svg version="1.1" id="Capa_1" xmlns="http://www.w3.org/2000/svg" xmlns:xlink="http://www.w3.org/1999/xlink" x="0px" y="0px"
	 viewBox="0 0 514.3 192.2" enable-background="new 0 0 514.3 192.2" xml:space="preserve">
<radialGradient id="SVGID_2_" cx="108.2116" cy="136.4782" r="86.3194" fx="108.199" fy="127.1505" gradientTransform="matrix(1 5.740356e-003 -6.553707e-004 0.1142 9.122668e-002 120.2757)" gradientUnits="userSpaceOnUse">
	<stop  offset="0" style="stop-color:#A2A2A1"/>
	<stop  offset="0.8159" style="stop-color:#A6A6A5;stop-opacity:0"/>
</radialGradient>
<path opacity="0.83" fill="url(#SVGID_2_)" d="M211.6,136.5c0,5.4-46.3,9.7-103.4,9.7c-57.1,0-103.4-4.4-103.4-9.7
	c0-5.4,46.3-9.7,103.4-9.7C165.3,126.8,211.6,131.1,211.6,136.5z"/>
<g>
	<path fill="#0F334A" d="M52.9,95c1.5,5.1,1.5,5.1,2.5,7.6c2.3,4.9,2.3,4.9,3.8,7.2c3,4.5,3.1,4.6,4.9,6.7l1,1.1
		c-3.1-3.8-1.5-5.3,3.1-8.1c3.9-2.3,7.9-4.7,4.1-9.6c-4.5-5.8-19.9-12.3-20.3-9.7c0,0.1,0,0.2,0,0.3C52.3,91.9,52.5,93.7,52.9,95"/>
</g>
<g>
	<path fill="#0F334A" d="M59.6,49.2c-2.7,4.4-2.8,4.5-3.8,6.9c-0.6,1.5-1.4,3.6-1.9,5.2c-1.2,4.9-1.2,4.9-1.5,7.6
		c-0.1,1.4-0.2,3.2-0.2,4.6c0.3-2.3,0.6-4.8,13.9-8.8c9.5-2.8,13.7-5.6,12.9-8.5c-1.6-6.1-15.3-11-17.7-9.3c-0.1,0-0.1,0.1-0.1,0.1
		L59.6,49.2"/>
</g>
<g>
	<path fill="#0F334A" d="M97.6,19.6c-5.3,1.1-5.3,1.1-7.9,2c-5,1.9-5,1.9-7.4,3.1c-4.5,2.5-4.6,2.6-6.7,4.1c-4,3.2-4,3.2-5.9,5.1
		l-1.3,1.4c3.4-3.3,14.6-2.8,36.9-1.8c22.4,1,25.5-2.2,25.3-4.2c-0.5-5.4-22.9-10.4-26.6-10.4c-0.3,0-0.7,0-1,0
		C101.4,19.1,99.2,19.3,97.6,19.6"/>
</g>
<path fill="#9FA7AA" d="M164.2,81.5c-1.3,28.4-25.3,50.4-53.7,49.1c-28.4-1.3-50.4-25.3-49.1-53.7c1.3-28.4,25.3-50.4,53.7-49.1
	C143.5,29,165.5,53.1,164.2,81.5z"/>
<g>
	<path fill="#1B8093" d="M89,129c-2.5,3.5-20.3-7.3-23.9-11.4l-1-1.1c-3.4-4.3-3.4-4.3-4.9-6.7c-2.7-4.7-2.7-4.7-3.8-7.2
		c-1.9-4.9-1.9-5-2.5-7.6c-0.3-1.3-0.7-3.1-0.9-4.4c0.4,1,0.7,1.7,3.3,4.2c9.2,8.4,19.6,15.7,28.3,24.6C85.3,121,90.6,126.7,89,129"
		/>
</g>
<g opacity="0.53">
	
		<linearGradient id="SVGID_3_" gradientUnits="userSpaceOnUse" x1="-1621.9301" y1="-331.9259" x2="-1559.6637" y2="-331.9259" gradientTransform="matrix(0.9538 0.3006 -0.3006 0.9538 1507.7266 881.1935)">
		<stop  offset="0" style="stop-color:#808080"/>
		<stop  offset="0.2325" style="stop-color:#838383;stop-opacity:0.7675"/>
		<stop  offset="0.4058" style="stop-color:#8C8C8C;stop-opacity:0.5942"/>
		<stop  offset="0.5599" style="stop-color:#9D9D9D;stop-opacity:0.4401"/>
		<stop  offset="0.7028" style="stop-color:#B3B3B3;stop-opacity:0.2972"/>
		<stop  offset="0.8381" style="stop-color:#D1D1D1;stop-opacity:0.1619"/>
		<stop  offset="0.9659" style="stop-color:#F4F4F4;stop-opacity:3.411043e-002"/>
		<stop  offset="1" style="stop-color:#FFFFFF;stop-opacity:0"/>
	</linearGradient>
	<path fill="url(#SVGID_3_)" d="M114,112.7c-6.5,4.7-52.8-21.6-53.3-30.3c0-1.2,0.1-2.9,0.2-4.1c0.7-4.4,0.7-4.6,1.3-6.7
		c0.5-1.4,1.1-3.2,1.7-4.6c2.1-4.2,2.1-4.2,3.4-6.1l1.4-2c-0.4,1.4,0.7,3,5.3,7.4C85.6,77.2,98.5,87,108.9,99
		C114.6,105.7,116.6,110.8,114,112.7"/>
</g>
<g opacity="0.53">
	
		<linearGradient id="SVGID_4_" gradientUnits="userSpaceOnUse" x1="-1619.1639" y1="-370.411" x2="-1542.9293" y2="-370.411" gradientTransform="matrix(0.9538 0.3006 -0.3006 0.9538 1507.7266 881.1935)">
		<stop  offset="0" style="stop-color:#808080"/>
		<stop  offset="0.2325" style="stop-color:#838383;stop-opacity:0.7675"/>
		<stop  offset="0.4058" style="stop-color:#8C8C8C;stop-opacity:0.5942"/>
		<stop  offset="0.5599" style="stop-color:#9D9D9D;stop-opacity:0.4401"/>
		<stop  offset="0.7028" style="stop-color:#B3B3B3;stop-opacity:0.2972"/>
		<stop  offset="0.8381" style="stop-color:#D1D1D1;stop-opacity:0.1619"/>
		<stop  offset="0.9659" style="stop-color:#F4F4F4;stop-opacity:3.411043e-002"/>
		<stop  offset="1" style="stop-color:#FFFFFF;stop-opacity:0"/>
	</linearGradient>
	<path fill="url(#SVGID_4_)" d="M142.2,80c-6.3,8.9-65.7-24.9-68.6-34c-0.1-0.3-0.3-1.2,0.4-2.1l1.2-1.3c3.4-3.2,3.4-3.2,5.3-4.6
		c3.9-2.6,3.9-2.6,6-3.7c4.3-2,4.3-2,6.6-2.7c4.6-1.4,4.6-1.4,7.1-1.8c1.4-0.2,3.4-0.5,4.8-0.6c-1.4,0.2-1.5,0.4-1.7,0.9
		c-0.1,1.5-0.1,1.5,22.1,23C143,70.2,144.3,77.2,142.2,80"/>
</g>
<g>
	<path fill="#1B8093" d="M112.1,107c-7.3,5.3-59.2-24.2-59.8-33.9c0.1-1.4,0.1-3.2,0.2-4.6c0.7-5,0.8-5.1,1.5-7.6
		c0.5-1.6,1.2-3.6,1.9-5.2c2.3-4.7,2.3-4.7,3.8-6.9l1.6-2.2c-0.5,1.6,0.8,3.4,6,8.3c13,12.3,27.4,23.3,39,36.8
		C112.8,99.2,115,104.9,112.1,107"/>
</g>
<g>
	<path fill="#1B8093" d="M144.4,75.3c-7,9.9-73.2-27.7-76.4-37.8c-0.1-0.4-0.3-1.4,0.5-2.3l1.3-1.4c3.8-3.5,3.8-3.5,5.9-5.1
		c4.3-2.9,4.3-2.9,6.7-4.1c4.8-2.2,4.8-2.2,7.4-3.1c5.2-1.5,5.2-1.5,7.9-2c1.6-0.2,3.8-0.5,5.4-0.7c-1.5,0.2-1.7,0.5-1.9,1
		c-0.1,1.6-0.1,1.6,24.7,25.6C145.3,64.3,146.7,72.1,144.4,75.3"/>
</g>
<g>
	<path fill="#3C3C3B" d="M209,123.2c-6,0-11-1.5-15.6-4.7l-1.4,3.8h-2.8l-4.9-17.2l2.8-0.9c5.3,10.1,12.9,15.5,21.5,15.5
		c7.7,0,13.6-4.8,13.6-11.2c0-4.5-2.6-6.8-10-8.6l-10.1-2.6c-3.8-1-15.5-3.6-15.5-13.8c0-5.3,4.7-13.5,17.2-13.5
		c5.7,0,10,1.1,14.2,3.7L219,71h2.7l4.6,13.6l-2.4,0.9c-5.3-8-11.3-11.9-18.5-11.9c-6.2,0-11.1,3.5-11.1,8c0,4.1,2.9,6.4,10.2,8.2
		l9.4,2.3c10.7,2.6,15.9,5.9,15.9,14.9C229.9,116.1,220.8,123.2,209,123.2z"/>
	<path fill="#3C3C3B" d="M253.2,122.9c-13.2,0-18.6-10.8-18.6-19.2c0-10.8,7.4-18.6,17.7-18.6c5.6,0,16.5,3.2,16.4,15.4h-26.1
		c0,11,2.6,19,12.8,19c4.7,0,8.1-2.3,10.8-7.2l2.5,1.2C265,120.1,260.2,122.9,253.2,122.9z M261,97.3c0.1-1.9-1.1-9.2-8.9-9.2
		c-6.3,0-8.3,4.4-9.2,9.4h18V97.3z"/>
	<path fill="#3C3C3B" d="M291.9,122.9c-4.9,0-8-1-12.1-4.1l-0.8,3.2h-2.5l-2.6-13.4h2.6c1.1,2.9,1.8,4.4,3.2,5.9
		c2.8,3.4,7.4,5.4,12,5.4c5.5,0,9.7-3,9.7-6.9c0-2.4-1.7-4-5.5-5l-9.6-2.4c-8-2-11.2-4.8-11.2-9.5c0-6.2,6.1-11,13.8-11
		c4.2,0,7.5,1.1,10.7,3.7l0.7-2.7h2.1l2.4,11.6h-2.4c-2.5-5.9-7.4-9.5-13.2-9.5c-4.4,0-7.6,2.4-7.6,5.6c0,3.3,3.3,4.1,5.9,4.7
		L298,101c6.5,1.6,9.5,4.6,9.5,9.7C307.6,117.7,301,122.9,291.9,122.9z"/>
	<path fill="#3C3C3B" d="M360.1,122.2V120l1.4-0.1c2.7-0.5,4.7-1.3,4.7-6.2V97.2c0-5.4-2-8.2-5.9-8.2c-3.5,0-6.5,1.4-11.1,5.2v19.4
		c0,4.1,1.3,5.8,4.7,6.2l1.6,0.1v2.3h-19.6V120l1.6-0.1c3.4-0.5,4.7-2.1,4.7-6.2V97c0-5.5-1.9-8-6.2-8c-3.5,0-6.5,1.4-10.8,5.2v19.4
		c0,5.6,2.6,5.9,4.7,6.2l1.4,0.1v2.3h-19.7V120l1.9-0.1c3.3-0.4,4.7-2.1,4.7-6.2V95.9c0-4.5-1.1-5.9-5-6.2l-1.6-0.2v-2.3
		c4.4-0.4,6.8-0.7,11.1-1.5h2.6v5c4.8-4.2,8.4-5.7,13.7-5.7c5.4,0,8.3,1.7,10.3,6.2c5.4-4.6,9.2-6.2,14.3-6.2c6.2,0,10,3.8,10,10.1
		v18.4c0,4.1,1.4,5.9,4.7,6.2l1.9,0.1v2.3H360.1z"/>
	<path fill="#3C3C3B" d="M417.1,122.9c-4.4,0-7-1.7-8.4-5.8c-5,4.2-8.7,5.8-13.8,5.8c-6.7,0-11.6-3.9-11.6-9.3
		c0-10.6,17.5-11.9,25.3-12.7v-6c0-4.1-3.4-6.8-8.7-6.8c-4.2,0-7.6,1.7-7.6,3.9l0.1,2.1c0,2.1-1.7,3.8-3.8,3.8c-2,0-3.6-1.5-3.6-3.3
		c0-5.8,9-9.5,16.4-9.5c6.1,0,14.4,2.1,14.4,11.1v15.9c0,3.6,0.1,7.4,4.2,7.4c1.3,0,2.1-0.4,3.4-1.5l1.4,2
		C422.7,122,420.2,122.9,417.1,122.9z M408.7,103.5c-11.4,1-17.7,4.3-17.7,9.3c0,3.6,2.9,6.5,6.5,6.5c3.8,0,6.9-1.6,11.1-5.6V103.5z
		"/>
	<path fill="#3C3C3B" d="M453.6,93.4c-1.4,0-2.6-0.4-3.8-1.4c-1.4-0.9-1.9-1.1-3.2-1.1c-2.2,0-4.2,1.2-6.9,4.2v18.4
		c0,4.1,1.4,5.9,4.7,6.2l1.9,0.1v2.3H426V120l1.9-0.1c3.3-0.4,4.7-2.1,4.7-6.2V95.9c0-4.5-1.1-5.9-5-6.2l-1.8-0.2v-2.3
		c4.2-0.3,6.7-0.6,11.4-1.5h2.6v6c2.9-2.3,6.5-6.7,12.7-6.7c3.2,0,5.5,1.7,5.5,4.2C457.9,91.7,456.1,93.4,453.6,93.4z"/>
	<path fill="#3C3C3B" d="M483.1,122.2V120l2-0.1c3.8-0.4,1.8-4.1,0.2-6.2l-7.9-11.4l-6.1,5.2v6.2c0,4.1,1.4,5.9,4.6,6.2l2,0.1v2.3
		h-20.2V120l1.9-0.1c3.3-0.4,4.7-2.1,4.7-6.2V81.8c0-6.7-0.8-8-4.9-8.4l-1.7-0.2v-2.3c5.1-0.6,6.8-1.1,10.7-2.6h3v35.2l11.7-10.2
		c1.6-1.4,2-2,2-2.9c0-1.4-1.4-2.2-4.2-2.4v-2.2h20V88c-6.5,1-9.8,2.5-14.4,6.5l-3.4,3l11.2,16c2.8,3.7,5.6,5.6,9.1,6.2v2.4H483.1z"
		/>
</g>
<g>
	<path fill="#808080" d="M53.2,164.3c1,0.6,2.4,1.1,3.9,1.1c2.3,0,3.6-1.2,3.6-2.9c0-1.6-0.9-2.5-3.2-3.4c-2.8-1-4.5-2.5-4.5-4.9
		c0-2.7,2.2-4.6,5.5-4.6c1.7,0,3,0.4,3.8,0.8l-0.6,1.8c-0.5-0.3-1.7-0.8-3.2-0.8c-2.3,0-3.2,1.4-3.2,2.6c0,1.6,1,2.4,3.4,3.3
		c2.9,1.1,4.3,2.5,4.3,5c0,2.6-1.9,5-6,5c-1.7,0-3.5-0.5-4.4-1.1L53.2,164.3z"/>
	<path fill="#808080" d="M68.4,151.3c0,0.8-0.5,1.4-1.4,1.4c-0.8,0-1.3-0.6-1.3-1.4s0.6-1.4,1.4-1.4
		C67.8,149.9,68.4,150.5,68.4,151.3z M65.9,167v-12.3h2.2V167H65.9z"/>
	<path fill="#808080" d="M71.5,164.8c0.7,0.4,1.9,0.9,3,0.9c1.6,0,2.4-0.8,2.4-1.8c0-1.1-0.6-1.6-2.3-2.2c-2.2-0.8-3.3-2-3.3-3.5
		c0-2,1.6-3.6,4.2-3.6c1.2,0,2.3,0.3,3,0.8l-0.5,1.6c-0.5-0.3-1.4-0.7-2.5-0.7c-1.3,0-2,0.8-2,1.7c0,1,0.7,1.5,2.3,2.1
		c2.1,0.8,3.2,1.9,3.2,3.7c0,2.2-1.7,3.7-4.6,3.7c-1.3,0-2.6-0.4-3.5-0.9L71.5,164.8z"/>
	<path fill="#808080" d="M84.6,151.8v2.9h3.2v1.7h-3.2v6.6c0,1.5,0.4,2.4,1.7,2.4c0.6,0,1-0.1,1.3-0.2l0.1,1.7
		c-0.4,0.2-1.1,0.3-2,0.3c-1,0-1.9-0.4-2.4-0.9c-0.6-0.7-0.9-1.8-0.9-3.2v-6.7h-1.9v-1.7h1.9v-2.3L84.6,151.8z"/>
	<path fill="#808080" d="M91.4,161.3c0.1,3,2,4.3,4.2,4.3c1.6,0,2.6-0.3,3.4-0.6l0.4,1.6c-0.8,0.4-2.2,0.8-4.1,0.8
		c-3.8,0-6-2.5-6-6.2s2.2-6.6,5.8-6.6c4,0,5.1,3.5,5.1,5.8c0,0.5,0,0.8-0.1,1H91.4z M98,159.7c0-1.4-0.6-3.6-3.1-3.6
		c-2.3,0-3.3,2.1-3.4,3.6H98z"/>
	<path fill="#808080" d="M102.9,158c0-1.3-0.1-2.3-0.1-3.3h2l0.1,2h0.1c0.7-1.2,1.8-2.3,3.9-2.3c1.7,0,2.9,1,3.5,2.5h0.1
		c0.4-0.7,0.9-1.2,1.4-1.6c0.7-0.6,1.5-0.9,2.7-0.9c1.7,0,4.1,1.1,4.1,5.3v7.2h-2.2v-6.9c0-2.4-0.9-3.8-2.7-3.8
		c-1.3,0-2.3,0.9-2.7,2c-0.1,0.3-0.2,0.7-0.2,1.1v7.6h-2.2v-7.4c0-2-0.9-3.4-2.6-3.4c-1.4,0-2.4,1.1-2.8,2.2
		c-0.1,0.3-0.2,0.7-0.2,1.1v7.4h-2.2V158z"/>
	<path fill="#808080" d="M132.7,164.1c0,1.1,0.1,2.1,0.2,2.9h-2l-0.2-1.5h-0.1c-0.7,1-2,1.8-3.8,1.8c-2.5,0-3.8-1.8-3.8-3.5
		c0-3,2.6-4.6,7.4-4.6v-0.3c0-1-0.3-2.8-2.8-2.8c-1.2,0-2.4,0.3-3.2,0.9l-0.5-1.5c1-0.6,2.5-1.1,4.1-1.1c3.8,0,4.7,2.6,4.7,5V164.1z
		 M130.5,160.7c-2.4-0.1-5.2,0.4-5.2,2.8c0,1.5,1,2.1,2.1,2.1c1.6,0,2.7-1,3-2.1c0.1-0.3,0.1-0.5,0.1-0.7V160.7z"/>
	<path fill="#808080" d="M136,164.8c0.7,0.4,1.9,0.9,3,0.9c1.6,0,2.4-0.8,2.4-1.8c0-1.1-0.6-1.6-2.3-2.2c-2.2-0.8-3.3-2-3.3-3.5
		c0-2,1.6-3.6,4.2-3.6c1.2,0,2.3,0.3,3,0.8l-0.5,1.6c-0.5-0.3-1.4-0.7-2.5-0.7c-1.3,0-2,0.8-2,1.7c0,1,0.7,1.5,2.3,2.1
		c2.1,0.8,3.2,1.9,3.2,3.7c0,2.2-1.7,3.7-4.6,3.7c-1.3,0-2.6-0.4-3.5-0.9L136,164.8z"/>
	<path fill="#808080" d="M162.3,149v14.9c0,1.1,0.1,2.3,0.1,3.2h-2l-0.1-2.1h-0.1c-0.7,1.4-2.1,2.4-4.1,2.4c-3,0-5.3-2.5-5.3-6.3
		c0-4.1,2.5-6.6,5.5-6.6c1.9,0,3.2,0.9,3.7,1.9h0.1V149H162.3z M160.1,159.7c0-0.3,0-0.7-0.1-0.9c-0.3-1.4-1.5-2.6-3.2-2.6
		c-2.3,0-3.7,2-3.7,4.7c0,2.5,1.2,4.5,3.6,4.5c1.5,0,2.9-1,3.3-2.7c0.1-0.3,0.1-0.6,0.1-1V159.7z"/>
	<path fill="#808080" d="M167.3,161.3c0.1,3,2,4.3,4.2,4.3c1.6,0,2.6-0.3,3.4-0.6l0.4,1.6c-0.8,0.4-2.2,0.8-4.1,0.8
		c-3.8,0-6-2.5-6-6.2s2.2-6.6,5.8-6.6c4,0,5.1,3.5,5.1,5.8c0,0.5,0,0.8-0.1,1H167.3z M173.9,159.7c0-1.4-0.6-3.6-3.1-3.6
		c-2.3,0-3.3,2.1-3.4,3.6H173.9z"/>
	<path fill="#808080" d="M198.7,159.5c-0.1-2.4-0.3-5.3-0.3-7.4h-0.1c-0.6,2-1.3,4.1-2.2,6.5l-3,8.3h-1.7l-2.8-8.2
		c-0.8-2.4-1.5-4.6-2-6.7h-0.1c-0.1,2.1-0.2,5-0.3,7.6l-0.5,7.3h-2.1l1.2-17.1h2.8l2.9,8.3c0.7,2.1,1.3,4,1.7,5.8h0.1
		c0.5-1.7,1.1-3.6,1.8-5.8l3-8.3h2.8l1.1,17.1h-2.2L198.7,159.5z"/>
	<path fill="#808080" d="M213.4,164.1c0,1.1,0.1,2.1,0.2,2.9h-2l-0.2-1.5h-0.1c-0.7,1-2,1.8-3.8,1.8c-2.5,0-3.8-1.8-3.8-3.5
		c0-3,2.6-4.6,7.4-4.6v-0.3c0-1-0.3-2.8-2.8-2.8c-1.2,0-2.4,0.3-3.2,0.9l-0.5-1.5c1-0.6,2.5-1.1,4.1-1.1c3.8,0,4.7,2.6,4.7,5V164.1z
		 M211.2,160.7c-2.4-0.1-5.2,0.4-5.2,2.8c0,1.5,1,2.1,2.1,2.1c1.6,0,2.7-1,3-2.1c0.1-0.3,0.1-0.5,0.1-0.7V160.7z"/>
	<path fill="#808080" d="M217,158.6c0-1.4,0-2.7-0.1-3.8h2l0.1,2.4h0.1c0.6-1.7,1.9-2.7,3.4-2.7c0.2,0,0.4,0,0.6,0.1v2.1
		c-0.2-0.1-0.5-0.1-0.8-0.1c-1.6,0-2.7,1.2-3,2.8c-0.1,0.3-0.1,0.7-0.1,1v6.6H217V158.6z"/>
	<path fill="#808080" d="M227.6,160.4L227.6,160.4c0.4-0.4,0.8-1,1.1-1.4l3.6-4.2h2.7l-4.7,5.1l5.4,7.2H233l-4.2-5.9l-1.1,1.3v4.6
		h-2.2v-18h2.2V160.4z"/>
	<path fill="#808080" d="M238.6,161.3c0.1,3,2,4.3,4.2,4.3c1.6,0,2.6-0.3,3.4-0.6l0.4,1.6c-0.8,0.4-2.2,0.8-4.1,0.8
		c-3.8,0-6-2.5-6-6.2s2.2-6.6,5.8-6.6c4,0,5.1,3.5,5.1,5.8c0,0.5,0,0.8-0.1,1H238.6z M245.1,159.7c0-1.4-0.6-3.6-3.1-3.6
		c-2.3,0-3.3,2.1-3.4,3.6H245.1z"/>
	<path fill="#808080" d="M252.7,151.8v2.9h3.2v1.7h-3.2v6.6c0,1.5,0.4,2.4,1.7,2.4c0.6,0,1-0.1,1.3-0.2l0.1,1.7
		c-0.4,0.2-1.1,0.3-2,0.3c-1,0-1.9-0.4-2.4-0.9c-0.6-0.7-0.9-1.8-0.9-3.2v-6.7h-1.9v-1.7h1.9v-2.3L252.7,151.8z"/>
	<path fill="#808080" d="M260.9,151.3c0,0.8-0.5,1.4-1.4,1.4c-0.8,0-1.3-0.6-1.3-1.4s0.6-1.4,1.4-1.4
		C260.4,149.9,260.9,150.5,260.9,151.3z M258.5,167v-12.3h2.2V167H258.5z"/>
	<path fill="#808080" d="M264.4,158c0-1.3,0-2.3-0.1-3.3h2l0.1,2h0.1c0.6-1.1,2-2.3,4.1-2.3c1.7,0,4.3,1,4.3,5.2v7.3h-2.2v-7.1
		c0-2-0.7-3.6-2.8-3.6c-1.4,0-2.6,1-3,2.3c-0.1,0.3-0.2,0.7-0.2,1v7.4h-2.2V158z"/>
	<path fill="#808080" d="M289,165.2c0,2.8-0.6,4.5-1.8,5.6c-1.2,1.1-2.9,1.5-4.5,1.5c-1.5,0-3.1-0.4-4.1-1l0.6-1.7
		c0.8,0.5,2.1,1,3.6,1c2.3,0,4-1.2,4-4.3v-1.3h-0.1c-0.7,1.1-2,2.1-3.9,2.1c-3,0-5.2-2.6-5.2-6c0-4.2,2.7-6.5,5.6-6.5
		c2.1,0,3.3,1.1,3.8,2.1h0.1l0.1-1.9h2c-0.1,0.9-0.1,1.9-0.1,3.4V165.2z M286.8,159.6c0-0.4,0-0.7-0.1-1c-0.4-1.3-1.5-2.4-3.1-2.4
		c-2.1,0-3.7,1.8-3.7,4.6c0,2.4,1.2,4.4,3.6,4.4c1.4,0,2.6-0.9,3.1-2.3c0.1-0.4,0.2-0.8,0.2-1.2V159.6z"/>
	<path fill="#808080" d="M312.8,158.3c0,5.9-3.6,9-8,9c-4.5,0-7.7-3.5-7.7-8.7c0-5.4,3.4-9,7.9-9
		C309.8,149.6,312.8,153.2,312.8,158.3z M299.5,158.5c0,3.7,2,7,5.5,7c3.5,0,5.5-3.2,5.5-7.1c0-3.4-1.8-7-5.5-7
		C301.3,151.4,299.5,154.8,299.5,158.5z"/>
	<path fill="#808080" d="M315.6,158c0-1.3,0-2.3-0.1-3.3h2l0.1,2h0.1c0.6-1.1,2-2.3,4.1-2.3c1.7,0,4.3,1,4.3,5.2v7.3h-2.2v-7.1
		c0-2-0.7-3.6-2.8-3.6c-1.4,0-2.6,1-3,2.3c-0.1,0.3-0.2,0.7-0.2,1v7.4h-2.2V158z"/>
	<path fill="#808080" d="M329.7,149h2.2v18h-2.2V149z"/>
	<path fill="#808080" d="M338.2,151.3c0,0.8-0.5,1.4-1.4,1.4c-0.8,0-1.3-0.6-1.3-1.4s0.6-1.4,1.4-1.4
		C337.6,149.9,338.2,150.5,338.2,151.3z M335.7,167v-12.3h2.2V167H335.7z"/>
	<path fill="#808080" d="M341.6,158c0-1.3,0-2.3-0.1-3.3h2l0.1,2h0.1c0.6-1.1,2-2.3,4.1-2.3c1.7,0,4.3,1,4.3,5.2v7.3h-2.2v-7.1
		c0-2-0.7-3.6-2.8-3.6c-1.4,0-2.6,1-3,2.3c-0.1,0.3-0.2,0.7-0.2,1v7.4h-2.2V158z"/>
	<path fill="#808080" d="M357,161.3c0.1,3,2,4.3,4.2,4.3c1.6,0,2.6-0.3,3.4-0.6l0.4,1.6c-0.8,0.4-2.2,0.8-4.1,0.8
		c-3.8,0-6-2.5-6-6.2s2.2-6.6,5.8-6.6c4,0,5.1,3.5,5.1,5.8c0,0.5,0,0.8-0.1,1H357z M363.5,159.7c0-1.4-0.6-3.6-3.1-3.6
		c-2.3,0-3.3,2.1-3.4,3.6H363.5z"/>
	<path fill="#808080" d="M382.2,165.1L382.2,165.1c-0.7,1.2-2.1,2.2-4.1,2.2c-2.9,0-5.2-2.5-5.2-6.2c0-4.6,3-6.6,5.6-6.6
		c1.9,0,3.2,0.9,3.8,2.1h0.1l0.1-1.9h2.1c-0.1,1-0.1,2.1-0.1,3.4V172h-2.2V165.1z M382.2,159.7c0-0.3,0-0.6-0.1-0.9
		c-0.4-1.4-1.5-2.5-3.2-2.5c-2.3,0-3.7,2-3.7,4.7c0,2.5,1.2,4.6,3.6,4.6c1.4,0,2.7-0.9,3.2-2.4c0.1-0.3,0.2-0.8,0.2-1.1V159.7z"/>
	<path fill="#808080" d="M398.4,163.6c0,1.3,0,2.4,0.1,3.4h-2l-0.1-2h-0.1c-0.6,1-1.9,2.3-4.1,2.3c-1.9,0-4.2-1.1-4.2-5.4v-7.2h2.2
		v6.8c0,2.3,0.7,3.9,2.7,3.9c1.5,0,2.5-1,2.9-2.1c0.1-0.3,0.2-0.7,0.2-1.1v-7.5h2.2V163.6z"/>
	<path fill="#808080" d="M403.4,161.3c0.1,3,2,4.3,4.2,4.3c1.6,0,2.6-0.3,3.4-0.6l0.4,1.6c-0.8,0.4-2.2,0.8-4.1,0.8
		c-3.8,0-6-2.5-6-6.2s2.2-6.6,5.8-6.6c4,0,5.1,3.5,5.1,5.8c0,0.5,0,0.8-0.1,1H403.4z M409.9,159.7c0-1.4-0.6-3.6-3.1-3.6
		c-2.3,0-3.3,2.1-3.4,3.6H409.9z"/>
	<path fill="#808080" d="M421.1,154.7l2.4,6.9c0.4,1.1,0.7,2.2,1,3.2h0.1c0.3-1,0.6-2,1-3.2l2.4-6.9h2.3l-4.8,12.3h-2.1l-4.7-12.3
		H421.1z"/>
	<path fill="#808080" d="M433.4,161.3c0.1,3,2,4.3,4.2,4.3c1.6,0,2.6-0.3,3.4-0.6l0.4,1.6c-0.8,0.4-2.2,0.8-4.1,0.8
		c-3.8,0-6-2.5-6-6.2s2.2-6.6,5.8-6.6c4,0,5.1,3.5,5.1,5.8c0,0.5,0,0.8-0.1,1H433.4z M440,159.7c0-1.4-0.6-3.6-3.1-3.6
		c-2.3,0-3.3,2.1-3.4,3.6H440z"/>
	<path fill="#808080" d="M444.9,158c0-1.3,0-2.3-0.1-3.3h2l0.1,2h0.1c0.6-1.1,2-2.3,4.1-2.3c1.7,0,4.3,1,4.3,5.2v7.3h-2.2v-7.1
		c0-2-0.7-3.6-2.8-3.6c-1.4,0-2.6,1-3,2.3c-0.1,0.3-0.2,0.7-0.2,1v7.4h-2.2V158z"/>
	<path fill="#808080" d="M469.6,149v14.9c0,1.1,0.1,2.3,0.1,3.2h-2l-0.1-2.1h-0.1c-0.7,1.4-2.1,2.4-4.1,2.4c-3,0-5.3-2.5-5.3-6.3
		c0-4.1,2.5-6.6,5.5-6.6c1.9,0,3.2,0.9,3.7,1.9h0.1V149H469.6z M467.4,159.7c0-0.3,0-0.7-0.1-0.9c-0.3-1.4-1.5-2.6-3.2-2.6
		c-2.3,0-3.7,2-3.7,4.7c0,2.5,1.2,4.5,3.6,4.5c1.5,0,2.9-1,3.3-2.7c0.1-0.3,0.1-0.6,0.1-1V159.7z"/>
	<path fill="#808080" d="M474.6,161.3c0.1,3,2,4.3,4.2,4.3c1.6,0,2.6-0.3,3.4-0.6l0.4,1.6c-0.8,0.4-2.2,0.8-4.1,0.8
		c-3.8,0-6-2.5-6-6.2s2.2-6.6,5.8-6.6c4,0,5.1,3.5,5.1,5.8c0,0.5,0,0.8-0.1,1H474.6z M481.1,159.7c0-1.4-0.6-3.6-3.1-3.6
		c-2.3,0-3.3,2.1-3.4,3.6H481.1z"/>
	<path fill="#808080" d="M486.1,158c0-1.3,0-2.3-0.1-3.3h2l0.1,2h0.1c0.6-1.1,2-2.3,4.1-2.3c1.7,0,4.3,1,4.3,5.2v7.3h-2.2v-7.1
		c0-2-0.7-3.6-2.8-3.6c-1.4,0-2.6,1-3,2.3c-0.1,0.3-0.2,0.7-0.2,1v7.4h-2.2V158z"/>
</g>
</svg>
