<?xml version="1.0" encoding="utf-8"?>
<!-- Generator: Adobe Illustrator 18.1.1, SVG Export Plug-In . SVG Version: 6.00 Build 0)  -->
<svg version="1.1" id="Capa_1" xmlns="http://www.w3.org/2000/svg" xmlns:xlink="http://www.w3.org/1999/xlink" x="0px" y="0px"
	 viewBox="214 0 815 263" enable-background="new 214 0 815 263" xml:space="preserve">
<radialGradient id="SVGID_1_" cx="108.1983" cy="163.3713" r="86.3877" fx="108.1857" fy="154.0362" gradientTransform="matrix(1.5609 8.959973e-003 1.022951e-003 -0.1783 198.4568 241.2108)" gradientUnits="userSpaceOnUse">
	<stop  offset="0" style="stop-color:#A2A2A1"/>
	<stop  offset="0.8159" style="stop-color:#A6A6A5;stop-opacity:0"/>
</radialGradient>
<path opacity="0.83" fill="url(#SVGID_1_)" enable-background="new    " d="M528.9,213.1c0,8.4-72.3,15.1-161.4,15.1
	s-161.4-6.9-161.4-15.1c0-8.4,72.3-15.1,161.4-15.1S528.9,204.6,528.9,213.1z"/>
<g>
	<path fill="#0F334A" d="M281.2,148.3c2.3,8,2.3,8,3.9,11.9c3.6,7.6,3.6,7.6,5.9,11.2c4.7,7,4.8,7.2,7.6,10.5l1.6,1.7
		c-4.8-5.9-2.3-8.3,4.8-12.6c6.1-3.6,12.3-7.3,6.4-15c-7-9.1-31.1-19.2-31.7-15.1c0,0.2,0,0.3,0,0.5
		C280.3,143.4,280.6,146.3,281.2,148.3"/>
</g>
<g>
	<path fill="#0F334A" d="M291.6,76.8c-4.2,6.9-4.4,7-5.9,10.8c-0.9,2.3-2.2,5.6-3,8.1c-1.9,7.6-1.9,7.6-2.3,11.9
		c-0.2,2.2-0.3,5-0.3,7.2c0.5-3.6,0.9-7.5,21.7-13.7c14.8-4.4,21.4-8.7,20.1-13.3c-2.5-9.5-23.9-17.2-27.6-14.5
		c-0.2,0-0.2,0.2-0.2,0.2L291.6,76.8"/>
</g>
<g>
	<path fill="#0F334A" d="M351,30.6c-8.3,1.7-8.3,1.7-12.3,3.1c-7.8,3-7.8,3-11.6,4.8c-7,3.9-7.2,4.1-10.5,6.4c-6.2,5-6.2,5-9.2,8
		l-2,2.2c5.3-5.2,22.8-4.4,57.6-2.8c35,1.6,39.8-3.4,39.5-6.6c-0.8-8.4-35.7-16.2-41.5-16.2c-0.5,0-1.1,0-1.6,0
		C356.9,29.8,353.5,30.1,351,30.6"/>
</g>
<path fill="#9FA7AA" d="M454.9,127.2c-2,44.3-39.5,78.7-83.8,76.6c-44.3-2-78.7-39.5-76.6-83.8s39.5-78.7,83.8-76.6
	C422.6,45.3,456.9,82.9,454.9,127.2z"/>
<g>
	<path fill="#1B8093" d="M337.5,201.4c-3.9,5.5-31.7-11.4-37.3-17.8l-1.6-1.7c-5.3-6.7-5.3-6.7-7.6-10.5c-4.2-7.3-4.2-7.3-5.9-11.2
		c-3-7.6-3-7.8-3.9-11.9c-0.5-2-1.1-4.8-1.4-6.9c0.6,1.6,1.1,2.7,5.2,6.6c14.4,13.1,30.6,24.5,44.2,38.4
		C331.8,188.9,340,197.8,337.5,201.4"/>
</g>
<g opacity="0.53">
	
		<linearGradient id="SVGID_2_" gradientUnits="userSpaceOnUse" x1="-1621.9532" y1="631.8934" x2="-1559.679" y2="631.8934" gradientTransform="matrix(1.4888 0.4692 0.4692 -1.4888 2411.2329 1822.0607)">
		<stop  offset="0" style="stop-color:#808080"/>
		<stop  offset="0.2325" style="stop-color:#838383;stop-opacity:0.7675"/>
		<stop  offset="0.4058" style="stop-color:#8C8C8C;stop-opacity:0.5942"/>
		<stop  offset="0.5599" style="stop-color:#9D9D9D;stop-opacity:0.4401"/>
		<stop  offset="0.7028" style="stop-color:#B3B3B3;stop-opacity:0.2972"/>
		<stop  offset="0.8381" style="stop-color:#D1D1D1;stop-opacity:0.1619"/>
		<stop  offset="0.9659" style="stop-color:#F4F4F4;stop-opacity:3.411043e-002"/>
		<stop  offset="1" style="stop-color:#FFFFFF;stop-opacity:0"/>
	</linearGradient>
	<path fill="url(#SVGID_2_)" d="M376.6,175.9c-10.1,7.3-82.4-33.7-83.2-47.3c0-1.9,0.2-4.5,0.3-6.4c1.1-6.9,1.1-7.2,2-10.5
		c0.8-2.2,1.7-5,2.7-7.2c3.3-6.6,3.3-6.6,5.3-9.5l2.2-3.1c-0.6,2.2,1.1,4.7,8.3,11.6c18.1,17,38.2,32.3,54.5,51
		C377.5,165,380.6,172.9,376.6,175.9"/>
</g>
<g opacity="0.53">
	
		<linearGradient id="SVGID_3_" gradientUnits="userSpaceOnUse" x1="-1619.1819" y1="670.4847" x2="-1542.9308" y2="670.4847" gradientTransform="matrix(1.4888 0.4692 0.4692 -1.4888 2411.2329 1822.0607)">
		<stop  offset="0" style="stop-color:#808080"/>
		<stop  offset="0.2325" style="stop-color:#838383;stop-opacity:0.7675"/>
		<stop  offset="0.4058" style="stop-color:#8C8C8C;stop-opacity:0.5942"/>
		<stop  offset="0.5599" style="stop-color:#9D9D9D;stop-opacity:0.4401"/>
		<stop  offset="0.7028" style="stop-color:#B3B3B3;stop-opacity:0.2972"/>
		<stop  offset="0.8381" style="stop-color:#D1D1D1;stop-opacity:0.1619"/>
		<stop  offset="0.9659" style="stop-color:#F4F4F4;stop-opacity:3.411043e-002"/>
		<stop  offset="1" style="stop-color:#FFFFFF;stop-opacity:0"/>
	</linearGradient>
	<path fill="url(#SVGID_3_)" d="M420.6,124.9C410.7,138.8,318,86,313.5,71.8c-0.2-0.5-0.5-1.9,0.6-3.3l1.9-2c5.3-5,5.3-5,8.3-7.2
		c6.1-4.1,6.1-4.1,9.4-5.8c6.7-3.1,6.7-3.1,10.3-4.2c7.2-2.2,7.2-2.2,11.1-2.8c2.2-0.3,5.3-0.8,7.5-0.9c-2.2,0.3-2.3,0.6-2.7,1.4
		c-0.2,2.3-0.2,2.3,34.5,35.9C421.8,109.6,423.9,120.5,420.6,124.9"/>
</g>
<g>
	<path fill="#1B8093" d="M373.6,167c-11.4,8.3-92.4-37.8-93.3-52.9c0.2-2.2,0.2-5,0.3-7.2c1.1-7.8,1.2-8,2.3-11.9
		c0.8-2.5,1.9-5.6,3-8.1c3.6-7.3,3.6-7.3,5.9-10.8l2.5-3.4c-0.8,2.5,1.2,5.3,9.4,13c20.3,19.2,42.8,36.4,60.9,57.4
		C374.7,154.8,378.1,163.7,373.6,167"/>
</g>
<g>
	<path fill="#1B8093" d="M424,117.5c-10.9,15.5-114.3-43.2-119.3-59c-0.2-0.6-0.5-2.2,0.8-3.6l2-2.2c5.9-5.5,5.9-5.5,9.2-8
		c6.7-4.5,6.7-4.5,10.5-6.4c7.5-3.4,7.5-3.4,11.6-4.8c8.1-2.3,8.1-2.3,12.3-3.1c2.5-0.3,5.9-0.8,8.4-1.1c-2.3,0.3-2.7,0.8-3,1.6
		c-0.2,2.5-0.2,2.5,38.6,40C425.4,100.4,427.6,112.5,424,117.5"/>
</g>
<g>
	<path fill="#3C3C3B" d="M524.8,192.3c-9.4,0-17.2-2.3-24.3-7.3l-2.2,5.9h-4.4l-7.6-26.8l4.4-1.4c8.3,15.8,20.1,24.2,33.6,24.2
		c12,0,21.2-7.5,21.2-17.5c0-7-4.1-10.6-15.6-13.4l-15.8-4.1c-5.9-1.6-24.2-5.6-24.2-21.5c0-8.3,7.3-21.1,26.8-21.1
		c8.9,0,15.6,1.7,22.2,5.8l1.6-4.2h4.2l7.2,21.2l-3.7,1.4c-8.3-12.5-17.6-18.6-28.9-18.6c-9.7,0-17.3,5.5-17.3,12.5
		c0,6.4,4.5,10,15.9,12.8l14.7,3.6c16.7,4.1,24.8,9.2,24.8,23.3C557.5,181.2,543.3,192.3,524.8,192.3z"/>
	<path fill="#3C3C3B" d="M593.8,191.8c-20.6,0-29-16.9-29-30c0-16.9,11.6-29,27.6-29c8.7,0,25.8,5,25.6,24h-40.7
		c0,17.2,4.1,29.7,20,29.7c7.3,0,12.6-3.6,16.9-11.2l3.9,1.9C612.3,187.5,604.8,191.8,593.8,191.8z M606,151.9
		c0.2-3-1.7-14.4-13.9-14.4c-9.8,0-13,6.9-14.4,14.7h28.1v-0.3H606z"/>
	<path fill="#3C3C3B" d="M654.2,191.8c-7.6,0-12.5-1.6-18.9-6.4l-1.2,5h-3.9l-4.1-20.9h4.1c1.7,4.5,2.8,6.9,5,9.2
		c4.4,5.3,11.6,8.4,18.7,8.4c8.6,0,15.1-4.7,15.1-10.8c0-3.7-2.7-6.2-8.6-7.8l-15-3.7C633,161.7,628,157.3,628,150
		c0-9.7,9.5-17.2,21.5-17.2c6.6,0,11.7,1.7,16.7,5.8l1.1-4.2h3.3l3.7,18.1h-3.7c-3.9-9.2-11.6-14.8-20.6-14.8
		c-6.9,0-11.9,3.7-11.9,8.7c0,5.2,5.2,6.4,9.2,7.3l16.4,3.9c10.1,2.5,14.8,7.2,14.8,15.1C678.7,183.7,668.4,191.8,654.2,191.8z"/>
	<path fill="#3C3C3B" d="M760.7,190.7v-3.4l2.2-0.2c4.2-0.8,7.3-2,7.3-9.7v-25.8c0-8.4-3.1-12.8-9.2-12.8c-5.5,0-10.1,2.2-17.3,8.1
		v30.3c0,6.4,2,9.1,7.3,9.7l2.5,0.2v3.6h-30.6v-3.4l2.5-0.2c5.3-0.8,7.3-3.3,7.3-9.7v-26.1c0-8.6-3-12.5-9.7-12.5
		c-5.5,0-10.1,2.2-16.9,8.1v30.3c0,8.7,4.1,9.2,7.3,9.7l2.2,0.2v3.6H685v-3.4l3-0.2c5.2-0.6,7.3-3.3,7.3-9.7v-27.8
		c0-7-1.7-9.2-7.8-9.7l-2.5-0.3v-3.6c6.9-0.6,10.6-1.1,17.3-2.3h4.1v7.8c7.5-6.6,13.1-8.9,21.4-8.9c8.4,0,13,2.7,16.1,9.7
		c8.4-7.2,14.4-9.7,22.3-9.7c9.7,0,15.6,5.9,15.6,15.8v28.7c0,6.4,2.2,9.2,7.3,9.7l3,0.2v3.6h-31.4V190.7z"/>
	<path fill="#3C3C3B" d="M849.7,191.8c-6.9,0-10.9-2.7-13.1-9.1c-7.8,6.6-13.6,9.1-21.5,9.1c-10.5,0-18.1-6.1-18.1-14.5
		c0-16.5,27.3-18.6,39.5-19.8v-9.4c0-6.4-5.3-10.6-13.6-10.6c-6.6,0-11.9,2.7-11.9,6.1l0.2,3.3c0,3.3-2.7,5.9-5.9,5.9
		c-3.1,0-5.6-2.3-5.6-5.2c0-9.1,14-14.8,25.6-14.8c9.5,0,22.5,3.3,22.5,17.3V175c0,5.6,0.2,11.6,6.6,11.6c2,0,3.3-0.6,5.3-2.3
		l2.2,3.1C858.4,190.4,854.5,191.8,849.7,191.8z M836.6,161.6c-17.8,1.6-27.6,6.7-27.6,14.5c0,5.6,4.5,10.1,10.1,10.1
		c5.9,0,10.8-2.5,17.3-8.7v-15.9H836.6z"/>
	<path fill="#3C3C3B" d="M906.6,145.8c-2.2,0-4.1-0.6-5.9-2.2c-2.2-1.4-3-1.7-5-1.7c-3.4,0-6.6,1.9-10.8,6.6v28.7
		c0,6.4,2.2,9.2,7.3,9.7l3,0.2v3.6h-31.7v-3.3l3-0.2c5.2-0.6,7.3-3.3,7.3-9.7v-27.8c0-7-1.7-9.2-7.8-9.7l-2.8-0.3v-3.6
		c6.6-0.5,10.5-0.9,17.8-2.3h4.1v9.4c4.5-3.6,10.1-10.5,19.8-10.5c5,0,8.6,2.7,8.6,6.6C913.3,143.1,910.5,145.8,906.6,145.8z"/>
	<path fill="#3C3C3B" d="M952.7,190.7v-3.4l3.1-0.2c5.9-0.6,2.8-6.4,0.3-9.7l-12.3-17.8l-9.5,8.1v9.7c0,6.4,2.2,9.2,7.2,9.7l3.1,0.2
		v3.6H913v-3.6l3-0.2c5.2-0.6,7.3-3.3,7.3-9.7v-49.8c0-10.5-1.2-12.5-7.6-13.1l-2.7-0.3v-3.6c8-0.9,10.6-1.7,16.7-4.1h4.7v54.9
		l18.3-15.9c2.5-2.2,3.1-3.1,3.1-4.5c0-2.2-2.2-3.4-6.6-3.7v-3.4h31.2v3.4c-10.1,1.6-15.3,3.9-22.5,10.1l-5.3,4.7l17.5,25
		c4.4,5.8,8.7,8.7,14.2,9.7v3.7h-31.7V190.7z"/>
</g>
</svg>
